<svg width="660" height="660" viewBox="0 0 660 660" fill="none" xmlns="http://www.w3.org/2000/svg">
<path fill-rule="evenodd" clip-rule="evenodd" d="M460.494 247C423.153 247 393.094 277.067 393.094 314.417C393.094 351.767 423.153 381.46 460.494 381.46C477.111 381.46 493.167 375.671 505.863 363.345C507.17 362.038 507.357 359.61 506.05 358.304L491.487 342.803C490.367 341.496 487.94 341.496 486.632 342.616C479.911 348.405 470.389 351.58 461.614 351.58C440.517 351.58 424.834 334.399 424.834 313.67C424.834 292.754 440.33 275.199 461.428 275.199C470.576 275.199 479.725 278.561 486.632 284.724C487.94 286.031 489.994 286.031 491.3 284.724L505.863 269.597C507.357 268.103 507.357 265.862 505.676 264.368C492.981 252.789 479.165 247 460.494 247ZM552.166 303.025C530.881 303.025 513.331 320.953 513.331 342.056C513.331 363.533 530.881 381.46 552.166 381.46C573.449 381.46 591 363.533 591 342.056C591 320.953 573.449 303.025 552.166 303.025ZM552.166 357.369C543.951 357.369 537.416 350.46 537.416 342.056C537.416 333.839 543.951 327.116 552.166 327.116C560.381 327.116 566.915 333.839 566.915 342.056C566.915 350.46 560.381 357.369 552.166 357.369Z" fill="#DD0033"/>
<path fill-rule="evenodd" clip-rule="evenodd" d="M68.1055 376.044V252.416C68.1055 250.548 69.5991 248.868 71.6528 248.868H115.155C137.186 248.868 155.296 263.994 155.296 283.603C155.296 297.983 142.414 308.441 133.638 313.11C143.534 317.218 158.657 326.369 158.657 343.55C158.657 364.466 140.173 379.593 117.955 379.593H71.6528C69.5991 379.593 68.1055 377.912 68.1055 376.044ZM97.2312 301.905H111.794C118.889 301.905 124.863 295.929 124.863 288.459C124.863 280.989 118.889 275.76 111.794 275.76H97.2312V301.905ZM97.2312 352.888H114.221C121.503 352.888 127.664 346.911 127.664 339.255C127.664 331.785 119.636 326.182 112.354 326.182H97.2312V352.888ZM172.659 376.044V308.441C172.659 306.387 174.34 304.893 176.207 304.893H184.982C187.036 304.893 187.783 306.013 188.343 307.134L191.704 315.351C195.437 309.935 202.345 303.025 212.054 303.025C222.322 303.025 229.604 306.76 226.99 311.055L217.842 325.996C217.095 327.303 215.788 328.423 213.735 327.676C212.801 327.302 210.934 326.742 209.254 326.742C203.652 326.742 199.358 331.038 199.358 337.387V376.044C199.358 378.286 198.238 379.593 195.251 379.593H176.207C174.34 379.593 172.659 377.912 172.659 376.044ZM230.537 342.056C230.537 320.953 248.088 303.025 269.372 303.025C290.657 303.025 308.206 320.953 308.206 342.056C308.206 363.533 290.657 381.461 269.372 381.461C248.088 381.461 230.537 363.533 230.537 342.056ZM254.622 342.056C254.622 350.46 261.157 357.37 269.372 357.37C277.587 357.37 284.122 350.46 284.122 342.056C284.122 333.839 277.587 327.116 269.372 327.116C261.157 327.116 254.622 333.839 254.622 342.056ZM319.969 375.298C318.661 374.177 317.728 373.057 318.661 371.376L325.196 358.49C325.756 357.37 327.624 356.249 329.117 356.996C329.117 356.996 337.892 361.852 345.921 361.852C347.787 361.852 349.468 360.731 349.468 358.49C349.468 356.623 348.347 354.008 338.826 350.646C324.263 345.604 317.915 337.2 317.915 325.622C317.915 313.11 326.876 303.025 347.041 303.025C358.803 303.025 367.765 306.2 371.872 308.814C373.553 309.935 374.86 311.616 373.74 313.483L366.831 326.182C366.271 327.303 364.405 327.863 362.911 327.303C362.911 327.303 354.322 323.008 347.041 323.008C344.614 323.008 342.934 323.568 342.934 325.622C342.934 327.49 344.987 329.357 351.335 331.598C366.458 336.827 376.913 342.803 376.913 357.743C376.913 370.816 366.458 381.461 345.36 381.461C333.038 381.461 323.703 378.286 319.969 375.298Z" fill="#202563"/>
</svg>
