<svg width="1440" height="500" viewBox="0 0 1440 500" fill="none" xmlns="http://www.w3.org/2000/svg">
<g clip-path="url(#clip0_120_5286)">
<rect width="1440" height="500" fill="#082538"/>
<path d="M1408.81 384.315C1411.91 381.216 1411.91 376.193 1408.81 373.095C1405.71 369.997 1400.69 369.996 1397.59 373.095C1394.49 376.193 1394.49 381.216 1397.59 384.315C1400.69 387.413 1405.71 387.413 1408.81 384.315Z" fill="#2B3E54"/>
<path d="M1411.09 427.185C1411.8 422.86 1408.86 418.785 1404.53 418.083C1400.21 417.38 1396.13 420.317 1395.43 424.642C1394.73 428.967 1397.67 433.043 1401.99 433.745C1406.32 434.447 1410.39 431.51 1411.09 427.185Z" fill="#2B3E54"/>
<path d="M1411.09 474.335C1411.79 470.01 1408.85 465.935 1404.53 465.233C1400.2 464.531 1396.13 467.468 1395.43 471.793C1394.72 476.118 1397.66 480.193 1401.99 480.895C1406.31 481.597 1410.39 478.66 1411.09 474.335Z" fill="#2B3E54"/>
<path d="M1411.09 191.446C1411.79 187.121 1408.86 183.046 1404.53 182.344C1400.21 181.642 1396.13 184.579 1395.43 188.904C1394.73 193.229 1397.66 197.304 1401.99 198.006C1406.31 198.708 1410.39 195.771 1411.09 191.446Z" fill="#2B3E54"/>
<path d="M1411.09 238.598C1411.79 234.273 1408.86 230.198 1404.53 229.496C1400.21 228.793 1396.13 231.73 1395.43 236.055C1394.73 240.38 1397.66 244.456 1401.99 245.158C1406.31 245.86 1410.39 242.923 1411.09 238.598Z" fill="#2B3E54"/>
<path d="M1411.09 285.743C1411.79 281.418 1408.86 277.343 1404.53 276.641C1400.21 275.939 1396.13 278.876 1395.43 283.201C1394.73 287.526 1397.67 291.601 1401.99 292.303C1406.32 293.005 1410.39 290.068 1411.09 285.743Z" fill="#2B3E54"/>
<path d="M1411.09 332.888C1411.79 328.563 1408.86 324.488 1404.53 323.786C1400.21 323.084 1396.13 326.021 1395.43 330.346C1394.73 334.671 1397.67 338.746 1401.99 339.448C1406.32 340.15 1410.39 337.213 1411.09 332.888Z" fill="#2B3E54"/>
<path d="M1411.1 2.86004C1411.8 -1.46498 1408.86 -5.54018 1404.54 -6.24223C1400.21 -6.94428 1396.14 -4.00732 1395.43 0.317695C1394.73 4.64271 1397.67 8.71804 1401.99 9.42009C1406.32 10.1221 1410.39 7.18506 1411.1 2.86004Z" fill="#2B3E54"/>
<path d="M1411.1 50.0056C1411.8 45.6805 1408.86 41.6053 1404.54 40.9033C1400.21 40.2012 1396.14 43.1382 1395.43 47.4632C1394.73 51.7882 1397.67 55.8636 1401.99 56.5656C1406.32 57.2677 1410.39 54.3306 1411.1 50.0056Z" fill="#2B3E54"/>
<path d="M1411.1 97.1565C1411.8 92.8315 1408.86 88.7563 1404.54 88.0542C1400.21 87.3522 1396.14 90.2891 1395.43 94.6141C1394.73 98.9392 1397.67 103.014 1401.99 103.717C1406.32 104.419 1410.39 101.482 1411.1 97.1565Z" fill="#2B3E54"/>
<path d="M1411.1 144.302C1411.8 139.977 1408.86 135.902 1404.54 135.2C1400.21 134.498 1396.14 137.435 1395.44 141.76C1394.73 146.085 1397.67 150.16 1402 150.862C1406.32 151.564 1410.4 148.627 1411.1 144.302Z" fill="#2B3E54"/>
<path d="M1356.05 386.64C1360.44 386.64 1363.99 383.088 1363.99 378.706C1363.99 374.325 1360.44 370.773 1356.05 370.773C1351.67 370.773 1348.12 374.325 1348.12 378.706C1348.12 383.088 1351.67 386.64 1356.05 386.64Z" fill="#2B3E54"/>
<path d="M1356.05 433.786C1360.44 433.786 1363.99 430.234 1363.99 425.853C1363.99 421.471 1360.44 417.919 1356.05 417.919C1351.67 417.919 1348.12 421.471 1348.12 425.853C1348.12 430.234 1351.67 433.786 1356.05 433.786Z" fill="#2B3E54"/>
<path d="M1356.05 480.927C1360.44 480.927 1363.99 477.375 1363.99 472.993C1363.99 468.611 1360.44 465.059 1356.05 465.059C1351.67 465.059 1348.12 468.611 1348.12 472.993C1348.12 477.375 1351.67 480.927 1356.05 480.927Z" fill="#2B3E54"/>
<path d="M1356.05 198.055C1360.44 198.055 1363.99 194.503 1363.99 190.122C1363.99 185.74 1360.44 182.188 1356.05 182.188C1351.67 182.188 1348.12 185.74 1348.12 190.122C1348.12 194.503 1351.67 198.055 1356.05 198.055Z" fill="#2B3E54"/>
<path d="M1356.05 245.201C1360.44 245.201 1363.99 241.649 1363.99 237.268C1363.99 232.886 1360.44 229.334 1356.05 229.334C1351.67 229.334 1348.12 232.886 1348.12 237.268C1348.12 241.649 1351.67 245.201 1356.05 245.201Z" fill="#2B3E54"/>
<path d="M1356.05 292.348C1360.44 292.348 1363.99 288.796 1363.99 284.414C1363.99 280.032 1360.44 276.48 1356.05 276.48C1351.67 276.48 1348.12 280.032 1348.12 284.414C1348.12 288.796 1351.67 292.348 1356.05 292.348Z" fill="#2B3E54"/>
<path d="M1356.05 339.494C1360.44 339.494 1363.99 335.942 1363.99 331.56C1363.99 327.179 1360.44 323.627 1356.05 323.627C1351.67 323.627 1348.12 327.179 1348.12 331.56C1348.12 335.942 1351.67 339.494 1356.05 339.494Z" fill="#2B3E54"/>
<path d="M1356.05 9.47583C1360.44 9.47583 1363.99 5.9238 1363.99 1.54217C1363.99 -2.83946 1360.44 -6.39142 1356.05 -6.39142C1351.67 -6.39142 1348.12 -2.83946 1348.12 1.54217C1348.12 5.9238 1351.67 9.47583 1356.05 9.47583Z" fill="#2B3E54"/>
<path d="M1356.05 56.622C1360.44 56.622 1363.99 53.07 1363.99 48.6884C1363.99 44.3067 1360.44 40.7547 1356.05 40.7547C1351.67 40.7547 1348.12 44.3067 1348.12 48.6884C1348.12 53.07 1351.67 56.622 1356.05 56.622Z" fill="#2B3E54"/>
<path d="M1356.05 103.768C1360.44 103.768 1363.99 100.216 1363.99 95.8347C1363.99 91.4531 1360.44 87.9011 1356.05 87.9011C1351.67 87.9011 1348.12 91.4531 1348.12 95.8347C1348.12 100.216 1351.67 103.768 1356.05 103.768Z" fill="#2B3E54"/>
<path d="M1356.05 150.915C1360.44 150.915 1363.99 147.363 1363.99 142.981C1363.99 138.599 1360.44 135.047 1356.05 135.047C1351.67 135.047 1348.12 138.599 1348.12 142.981C1348.12 147.363 1351.67 150.915 1356.05 150.915Z" fill="#2B3E54"/>
<path d="M1308.91 386.64C1313.29 386.64 1316.84 383.088 1316.84 378.706C1316.84 374.325 1313.29 370.773 1308.91 370.773C1304.53 370.773 1300.97 374.325 1300.97 378.706C1300.97 383.088 1304.53 386.64 1308.91 386.64Z" fill="#2B3E54"/>
<path d="M1308.91 433.786C1313.29 433.786 1316.84 430.234 1316.84 425.853C1316.84 421.471 1313.29 417.919 1308.91 417.919C1304.53 417.919 1300.97 421.471 1300.97 425.853C1300.97 430.234 1304.53 433.786 1308.91 433.786Z" fill="#2B3E54"/>
<path d="M1308.91 480.927C1313.29 480.927 1316.84 477.375 1316.84 472.993C1316.84 468.611 1313.29 465.059 1308.91 465.059C1304.53 465.059 1300.97 468.611 1300.97 472.993C1300.97 477.375 1304.53 480.927 1308.91 480.927Z" fill="#2B3E54"/>
<path d="M1308.91 198.055C1313.29 198.055 1316.84 194.503 1316.84 190.122C1316.84 185.74 1313.29 182.188 1308.91 182.188C1304.53 182.188 1300.97 185.74 1300.97 190.122C1300.97 194.503 1304.53 198.055 1308.91 198.055Z" fill="#2B3E54"/>
<path d="M1308.91 245.201C1313.29 245.201 1316.84 241.649 1316.84 237.268C1316.84 232.886 1313.29 229.334 1308.91 229.334C1304.53 229.334 1300.97 232.886 1300.97 237.268C1300.97 241.649 1304.53 245.201 1308.91 245.201Z" fill="#2B3E54"/>
<path d="M1308.91 292.348C1313.29 292.348 1316.84 288.796 1316.84 284.414C1316.84 280.032 1313.29 276.48 1308.91 276.48C1304.53 276.48 1300.97 280.032 1300.97 284.414C1300.97 288.796 1304.53 292.348 1308.91 292.348Z" fill="#2B3E54"/>
<path d="M1308.91 339.494C1313.29 339.494 1316.84 335.942 1316.84 331.56C1316.84 327.179 1313.29 323.627 1308.91 323.627C1304.53 323.627 1300.97 327.179 1300.97 331.56C1300.97 335.942 1304.53 339.494 1308.91 339.494Z" fill="#2B3E54"/>
<path d="M1308.91 9.47583C1313.29 9.47583 1316.84 5.9238 1316.84 1.54217C1316.84 -2.83946 1313.29 -6.39142 1308.91 -6.39142C1304.53 -6.39142 1300.97 -2.83946 1300.97 1.54217C1300.97 5.9238 1304.53 9.47583 1308.91 9.47583Z" fill="#2B3E54"/>
<path d="M1308.91 56.622C1313.29 56.622 1316.84 53.07 1316.84 48.6884C1316.84 44.3067 1313.29 40.7547 1308.91 40.7547C1304.53 40.7547 1300.97 44.3067 1300.97 48.6884C1300.97 53.07 1304.53 56.622 1308.91 56.622Z" fill="#2B3E54"/>
<path d="M1308.91 103.768C1313.29 103.768 1316.84 100.216 1316.84 95.8347C1316.84 91.4531 1313.29 87.9011 1308.91 87.9011C1304.53 87.9011 1300.97 91.4531 1300.97 95.8347C1300.97 100.216 1304.53 103.768 1308.91 103.768Z" fill="#2B3E54"/>
<path d="M1308.91 150.915C1313.29 150.915 1316.84 147.363 1316.84 142.981C1316.84 138.599 1313.29 135.047 1308.91 135.047C1304.53 135.047 1300.97 138.599 1300.97 142.981C1300.97 147.363 1304.53 150.915 1308.91 150.915Z" fill="#2B3E54"/>
<path d="M1269.76 379.122C1269.96 374.744 1266.57 371.037 1262.19 370.842C1257.81 370.646 1254.1 374.036 1253.91 378.413C1253.71 382.79 1257.1 386.497 1261.48 386.693C1265.86 386.889 1269.56 383.499 1269.76 379.122Z" fill="#2B3E54"/>
<path d="M1264.94 433.016C1268.97 431.282 1270.82 426.615 1269.09 422.591C1267.35 418.567 1262.69 416.71 1258.66 418.444C1254.64 420.178 1252.78 424.846 1254.52 428.87C1256.25 432.894 1260.92 434.75 1264.94 433.016Z" fill="#2B3E54"/>
<path d="M1264.94 480.154C1268.97 478.421 1270.82 473.753 1269.09 469.729C1267.35 465.705 1262.69 463.848 1258.66 465.582C1254.64 467.316 1252.78 471.984 1254.52 476.008C1256.25 480.032 1260.92 481.888 1264.94 480.154Z" fill="#2B3E54"/>
<path d="M1264.92 197.286C1268.95 195.553 1270.81 190.885 1269.07 186.861C1267.34 182.837 1262.67 180.98 1258.65 182.714C1254.62 184.448 1252.77 189.116 1254.5 193.14C1256.23 197.164 1260.9 199.02 1264.92 197.286Z" fill="#2B3E54"/>
<path d="M1264.93 244.436C1268.95 242.702 1270.81 238.034 1269.07 234.01C1267.34 229.986 1262.67 228.13 1258.65 229.864C1254.62 231.598 1252.77 236.265 1254.5 240.289C1256.24 244.313 1260.9 246.17 1264.93 244.436Z" fill="#2B3E54"/>
<path d="M1264.93 291.58C1268.95 289.846 1270.81 285.178 1269.08 281.154C1267.34 277.13 1262.67 275.274 1258.65 277.007C1254.63 278.741 1252.77 283.409 1254.5 287.433C1256.24 291.457 1260.91 293.313 1264.93 291.58Z" fill="#2B3E54"/>
<path d="M1264.93 338.723C1268.96 336.989 1270.81 332.322 1269.08 328.298C1267.34 324.274 1262.68 322.417 1258.65 324.151C1254.63 325.885 1252.77 330.552 1254.51 334.576C1256.24 338.6 1260.91 340.457 1264.93 338.723Z" fill="#2B3E54"/>
<path d="M1264.91 8.71162C1268.94 6.97779 1270.79 2.31015 1269.06 -1.71384C1267.33 -5.73782 1262.66 -7.59433 1258.63 -5.8605C1254.61 -4.12666 1252.75 0.540909 1254.49 4.5649C1256.22 8.58888 1260.89 10.4455 1264.91 8.71162Z" fill="#2B3E54"/>
<path d="M1264.91 55.8611C1268.94 54.1273 1270.8 49.4596 1269.06 45.4356C1267.33 41.4117 1262.66 39.5551 1258.64 41.2889C1254.61 43.0228 1252.76 47.6904 1254.49 51.7144C1256.22 55.7384 1260.89 57.5949 1264.91 55.8611Z" fill="#2B3E54"/>
<path d="M1264.92 103.005C1268.95 101.271 1270.8 96.6032 1269.07 92.5793C1267.34 88.5553 1262.67 86.6988 1258.64 88.4326C1254.62 90.1664 1252.76 94.834 1254.5 98.858C1256.23 102.882 1260.9 104.739 1264.92 103.005Z" fill="#2B3E54"/>
<path d="M1264.93 150.148C1268.95 148.414 1270.81 143.747 1269.07 139.723C1267.34 135.699 1262.67 133.842 1258.65 135.576C1254.62 137.31 1252.77 141.977 1254.5 146.001C1256.23 150.025 1260.9 151.882 1264.93 150.148Z" fill="#2B3E54"/>
<path d="M1214.62 386.64C1219 386.64 1222.55 383.088 1222.55 378.706C1222.55 374.325 1219 370.773 1214.62 370.773C1210.23 370.773 1206.68 374.325 1206.68 378.706C1206.68 383.088 1210.23 386.64 1214.62 386.64Z" fill="#2B3E54"/>
<path d="M1214.62 433.786C1219 433.786 1222.55 430.234 1222.55 425.853C1222.55 421.471 1219 417.919 1214.62 417.919C1210.23 417.919 1206.68 421.471 1206.68 425.853C1206.68 430.234 1210.23 433.786 1214.62 433.786Z" fill="#2B3E54"/>
<path d="M1214.62 480.927C1219 480.927 1222.55 477.375 1222.55 472.993C1222.55 468.611 1219 465.059 1214.62 465.059C1210.23 465.059 1206.68 468.611 1206.68 472.993C1206.68 477.375 1210.23 480.927 1214.62 480.927Z" fill="#2B3E54"/>
<path d="M1214.62 198.055C1219 198.055 1222.55 194.503 1222.55 190.122C1222.55 185.74 1219 182.188 1214.62 182.188C1210.23 182.188 1206.68 185.74 1206.68 190.122C1206.68 194.503 1210.23 198.055 1214.62 198.055Z" fill="#2B3E54"/>
<path d="M1214.62 245.201C1219 245.201 1222.55 241.649 1222.55 237.268C1222.55 232.886 1219 229.334 1214.62 229.334C1210.23 229.334 1206.68 232.886 1206.68 237.268C1206.68 241.649 1210.23 245.201 1214.62 245.201Z" fill="#2B3E54"/>
<path d="M1214.62 292.348C1219 292.348 1222.55 288.796 1222.55 284.414C1222.55 280.032 1219 276.48 1214.62 276.48C1210.23 276.48 1206.68 280.032 1206.68 284.414C1206.68 288.796 1210.23 292.348 1214.62 292.348Z" fill="#2B3E54"/>
<path d="M1214.62 339.494C1219 339.494 1222.55 335.942 1222.55 331.56C1222.55 327.179 1219 323.627 1214.62 323.627C1210.23 323.627 1206.68 327.179 1206.68 331.56C1206.68 335.942 1210.23 339.494 1214.62 339.494Z" fill="#2B3E54"/>
<path d="M1214.62 9.47583C1219 9.47583 1222.55 5.9238 1222.55 1.54217C1222.55 -2.83946 1219 -6.39142 1214.62 -6.39142C1210.23 -6.39142 1206.68 -2.83946 1206.68 1.54217C1206.68 5.9238 1210.23 9.47583 1214.62 9.47583Z" fill="#2B3E54"/>
<path d="M1214.62 56.622C1219 56.622 1222.55 53.07 1222.55 48.6884C1222.55 44.3067 1219 40.7547 1214.62 40.7547C1210.23 40.7547 1206.68 44.3067 1206.68 48.6884C1206.68 53.07 1210.23 56.622 1214.62 56.622Z" fill="#2B3E54"/>
<path d="M1214.62 103.768C1219 103.768 1222.55 100.216 1222.55 95.8347C1222.55 91.4531 1219 87.9011 1214.62 87.9011C1210.23 87.9011 1206.68 91.4531 1206.68 95.8347C1206.68 100.216 1210.23 103.768 1214.62 103.768Z" fill="#2B3E54"/>
<path d="M1214.62 150.915C1219 150.915 1222.55 147.363 1222.55 142.981C1222.55 138.599 1219 135.047 1214.62 135.047C1210.23 135.047 1206.68 138.599 1206.68 142.981C1206.68 147.363 1210.23 150.915 1214.62 150.915Z" fill="#2B3E54"/>
<path d="M1168.13 386.55C1172.5 386.21 1175.77 382.393 1175.43 378.025C1175.09 373.656 1171.27 370.39 1166.9 370.73C1162.53 371.07 1159.27 374.887 1159.61 379.256C1159.95 383.624 1163.76 386.89 1168.13 386.55Z" fill="#2B3E54"/>
<path d="M1174.72 428.827C1176.43 424.793 1174.55 420.136 1170.52 418.426C1166.48 416.715 1161.82 418.598 1160.11 422.632C1158.4 426.666 1160.29 431.323 1164.32 433.034C1168.35 434.744 1173.01 432.861 1174.72 428.827Z" fill="#2B3E54"/>
<path d="M1174.71 475.966C1176.42 471.932 1174.54 467.275 1170.51 465.565C1166.47 463.854 1161.82 465.738 1160.11 469.771C1158.4 473.805 1160.28 478.462 1164.31 480.173C1168.35 481.883 1173 480 1174.71 475.966Z" fill="#2B3E54"/>
<path d="M1174.71 193.114C1176.42 189.08 1174.54 184.423 1170.5 182.713C1166.47 181.002 1161.81 182.885 1160.1 186.919C1158.39 190.953 1160.28 195.61 1164.31 197.321C1168.34 199.031 1173 197.148 1174.71 193.114Z" fill="#2B3E54"/>
<path d="M1174.71 240.255C1176.42 236.221 1174.54 231.565 1170.51 229.854C1166.47 228.143 1161.82 230.027 1160.11 234.061C1158.4 238.095 1160.28 242.751 1164.31 244.462C1168.35 246.173 1173 244.289 1174.71 240.255Z" fill="#2B3E54"/>
<path d="M1174.71 287.397C1176.42 283.363 1174.54 278.706 1170.5 276.995C1166.47 275.285 1161.81 277.168 1160.1 281.202C1158.39 285.236 1160.28 289.893 1164.31 291.604C1168.34 293.314 1173 291.431 1174.71 287.397Z" fill="#2B3E54"/>
<path d="M1174.71 334.544C1176.43 330.51 1174.54 325.853 1170.51 324.143C1166.47 322.432 1161.82 324.316 1160.11 328.35C1158.4 332.383 1160.28 337.04 1164.31 338.751C1168.35 340.462 1173 338.578 1174.71 334.544Z" fill="#2B3E54"/>
<path d="M1174.71 4.54492C1176.42 0.511009 1174.54 -4.14595 1170.5 -5.85658C1166.47 -7.56721 1161.81 -5.68372 1160.1 -1.64981C1158.39 2.38409 1160.27 7.04089 1164.31 8.75152C1168.34 10.4622 1173 8.57882 1174.71 4.54492Z" fill="#2B3E54"/>
<path d="M1174.71 51.6862C1176.42 47.6523 1174.53 42.9954 1170.5 41.2847C1166.46 39.5741 1161.81 41.4576 1160.1 45.4915C1158.39 49.5254 1160.27 54.1822 1164.3 55.8928C1168.34 57.6035 1172.99 55.7201 1174.71 51.6862Z" fill="#2B3E54"/>
<path d="M1174.71 98.8336C1176.42 94.7996 1174.54 90.1427 1170.5 88.4321C1166.47 86.7214 1161.81 88.6049 1160.1 92.6388C1158.39 96.6727 1160.27 101.33 1164.31 103.04C1168.34 104.751 1173 102.867 1174.71 98.8336Z" fill="#2B3E54"/>
<path d="M1174.71 145.975C1176.42 141.941 1174.54 137.284 1170.51 135.573C1166.47 133.863 1161.81 135.746 1160.1 139.78C1158.39 143.814 1160.28 148.471 1164.31 150.181C1168.34 151.892 1173 150.009 1174.71 145.975Z" fill="#2B3E54"/>
<path d="M280.066 375.64C284.448 375.64 288 372.088 288 367.706C288 363.325 284.448 359.773 280.066 359.773C275.685 359.773 272.133 363.325 272.133 367.706C272.133 372.088 275.685 375.64 280.066 375.64Z" fill="#2B3E54"/>
<path d="M280.066 422.786C284.448 422.786 288 419.234 288 414.853C288 410.471 284.448 406.919 280.066 406.919C275.685 406.919 272.133 410.471 272.133 414.853C272.133 419.234 275.685 422.786 280.066 422.786Z" fill="#2B3E54"/>
<path d="M280.066 469.927C284.448 469.927 288 466.375 288 461.993C288 457.611 284.448 454.059 280.066 454.059C275.685 454.059 272.133 457.611 272.133 461.993C272.133 466.375 275.685 469.927 280.066 469.927Z" fill="#2B3E54"/>
<path d="M280.066 187.055C284.448 187.055 288 183.503 288 179.122C288 174.74 284.448 171.188 280.066 171.188C275.685 171.188 272.133 174.74 272.133 179.122C272.133 183.503 275.685 187.055 280.066 187.055Z" fill="#2B3E54"/>
<path d="M280.066 234.201C284.448 234.201 288 230.649 288 226.268C288 221.886 284.448 218.334 280.066 218.334C275.685 218.334 272.133 221.886 272.133 226.268C272.133 230.649 275.685 234.201 280.066 234.201Z" fill="#2B3E54"/>
<path d="M280.066 281.348C284.448 281.348 288 277.796 288 273.414C288 269.032 284.448 265.48 280.066 265.48C275.685 265.48 272.133 269.032 272.133 273.414C272.133 277.796 275.685 281.348 280.066 281.348Z" fill="#2B3E54"/>
<path d="M280.066 328.494C284.448 328.494 288 324.942 288 320.56C288 316.179 284.448 312.627 280.066 312.627C275.685 312.627 272.133 316.179 272.133 320.56C272.133 324.942 275.685 328.494 280.066 328.494Z" fill="#2B3E54"/>
<path d="M280.066 45.622C284.448 45.622 288 42.07 288 37.6884C288 33.3067 284.448 29.7547 280.066 29.7547C275.685 29.7547 272.133 33.3067 272.133 37.6884C272.133 42.07 275.685 45.622 280.066 45.622Z" fill="#2B3E54"/>
<path d="M280.066 92.7684C284.448 92.7684 288 89.2163 288 84.8347C288 80.4531 284.448 76.9011 280.066 76.9011C275.685 76.9011 272.133 80.4531 272.133 84.8347C272.133 89.2163 275.685 92.7684 280.066 92.7684Z" fill="#2B3E54"/>
<path d="M280.066 139.915C284.448 139.915 288 136.363 288 131.981C288 127.599 284.448 124.047 280.066 124.047C275.685 124.047 272.133 127.599 272.133 131.981C272.133 136.363 275.685 139.915 280.066 139.915Z" fill="#2B3E54"/>
<path d="M232.926 375.64C237.308 375.64 240.86 372.088 240.86 367.706C240.86 363.325 237.308 359.773 232.926 359.773C228.544 359.773 224.992 363.325 224.992 367.706C224.992 372.088 228.544 375.64 232.926 375.64Z" fill="#2B3E54"/>
<path d="M232.926 422.786C237.308 422.786 240.86 419.234 240.86 414.853C240.86 410.471 237.308 406.919 232.926 406.919C228.544 406.919 224.992 410.471 224.992 414.853C224.992 419.234 228.544 422.786 232.926 422.786Z" fill="#2B3E54"/>
<path d="M232.926 469.927C237.308 469.927 240.86 466.375 240.86 461.993C240.86 457.611 237.308 454.059 232.926 454.059C228.544 454.059 224.992 457.611 224.992 461.993C224.992 466.375 228.544 469.927 232.926 469.927Z" fill="#2B3E54"/>
<path d="M232.926 187.055C237.308 187.055 240.86 183.503 240.86 179.122C240.86 174.74 237.308 171.188 232.926 171.188C228.544 171.188 224.992 174.74 224.992 179.122C224.992 183.503 228.544 187.055 232.926 187.055Z" fill="#2B3E54"/>
<path d="M232.926 234.201C237.308 234.201 240.86 230.649 240.86 226.268C240.86 221.886 237.308 218.334 232.926 218.334C228.544 218.334 224.992 221.886 224.992 226.268C224.992 230.649 228.544 234.201 232.926 234.201Z" fill="#2B3E54"/>
<path d="M232.926 281.348C237.308 281.348 240.86 277.796 240.86 273.414C240.86 269.032 237.308 265.48 232.926 265.48C228.544 265.48 224.992 269.032 224.992 273.414C224.992 277.796 228.544 281.348 232.926 281.348Z" fill="#2B3E54"/>
<path d="M232.926 328.494C237.308 328.494 240.86 324.942 240.86 320.56C240.86 316.179 237.308 312.627 232.926 312.627C228.544 312.627 224.992 316.179 224.992 320.56C224.992 324.942 228.544 328.494 232.926 328.494Z" fill="#2B3E54"/>
<path d="M232.926 45.622C237.308 45.622 240.86 42.07 240.86 37.6884C240.86 33.3067 237.308 29.7547 232.926 29.7547C228.544 29.7547 224.992 33.3067 224.992 37.6884C224.992 42.07 228.544 45.622 232.926 45.622Z" fill="#2B3E54"/>
<path d="M232.926 92.7684C237.308 92.7684 240.86 89.2163 240.86 84.8347C240.86 80.4531 237.308 76.9011 232.926 76.9011C228.544 76.9011 224.992 80.4531 224.992 84.8347C224.992 89.2163 228.544 92.7684 232.926 92.7684Z" fill="#2B3E54"/>
<path d="M232.926 139.915C237.308 139.915 240.86 136.363 240.86 131.981C240.86 127.599 237.308 124.047 232.926 124.047C228.544 124.047 224.992 127.599 224.992 131.981C224.992 136.363 228.544 139.915 232.926 139.915Z" fill="#2B3E54"/>
<path d="M185.78 375.64C190.161 375.64 193.713 372.088 193.713 367.706C193.713 363.325 190.161 359.773 185.78 359.773C181.398 359.773 177.846 363.325 177.846 367.706C177.846 372.088 181.398 375.64 185.78 375.64Z" fill="#2B3E54"/>
<path d="M185.78 422.786C190.161 422.786 193.713 419.234 193.713 414.853C193.713 410.471 190.161 406.919 185.78 406.919C181.398 406.919 177.846 410.471 177.846 414.853C177.846 419.234 181.398 422.786 185.78 422.786Z" fill="#2B3E54"/>
<path d="M185.78 469.927C190.161 469.927 193.713 466.375 193.713 461.993C193.713 457.611 190.161 454.059 185.78 454.059C181.398 454.059 177.846 457.611 177.846 461.993C177.846 466.375 181.398 469.927 185.78 469.927Z" fill="#2B3E54"/>
<path d="M185.78 187.055C190.161 187.055 193.713 183.503 193.713 179.122C193.713 174.74 190.161 171.188 185.78 171.188C181.398 171.188 177.846 174.74 177.846 179.122C177.846 183.503 181.398 187.055 185.78 187.055Z" fill="#2B3E54"/>
<path d="M185.78 234.201C190.161 234.201 193.713 230.649 193.713 226.268C193.713 221.886 190.161 218.334 185.78 218.334C181.398 218.334 177.846 221.886 177.846 226.268C177.846 230.649 181.398 234.201 185.78 234.201Z" fill="#2B3E54"/>
<path d="M185.78 281.348C190.161 281.348 193.713 277.796 193.713 273.414C193.713 269.032 190.161 265.48 185.78 265.48C181.398 265.48 177.846 269.032 177.846 273.414C177.846 277.796 181.398 281.348 185.78 281.348Z" fill="#2B3E54"/>
<path d="M185.78 328.494C190.161 328.494 193.713 324.942 193.713 320.56C193.713 316.179 190.161 312.627 185.78 312.627C181.398 312.627 177.846 316.179 177.846 320.56C177.846 324.942 181.398 328.494 185.78 328.494Z" fill="#2B3E54"/>
<path d="M185.78 45.622C190.161 45.622 193.713 42.07 193.713 37.6884C193.713 33.3067 190.161 29.7547 185.78 29.7547C181.398 29.7547 177.846 33.3067 177.846 37.6884C177.846 42.07 181.398 45.622 185.78 45.622Z" fill="#2B3E54"/>
<path d="M185.78 92.7684C190.161 92.7684 193.713 89.2163 193.713 84.8347C193.713 80.4531 190.161 76.9011 185.78 76.9011C181.398 76.9011 177.846 80.4531 177.846 84.8347C177.846 89.2163 181.398 92.7684 185.78 92.7684Z" fill="#2B3E54"/>
<path d="M185.78 139.915C190.161 139.915 193.713 136.363 193.713 131.981C193.713 127.599 190.161 124.047 185.78 124.047C181.398 124.047 177.846 127.599 177.846 131.981C177.846 136.363 181.398 139.915 185.78 139.915Z" fill="#2B3E54"/>
<path d="M138.633 375.64C143.015 375.64 146.567 372.088 146.567 367.706C146.567 363.325 143.015 359.773 138.633 359.773C134.252 359.773 130.7 363.325 130.7 367.706C130.7 372.088 134.252 375.64 138.633 375.64Z" fill="#2B3E54"/>
<path d="M138.633 422.786C143.015 422.786 146.567 419.234 146.567 414.853C146.567 410.471 143.015 406.919 138.633 406.919C134.252 406.919 130.7 410.471 130.7 414.853C130.7 419.234 134.252 422.786 138.633 422.786Z" fill="#2B3E54"/>
<path d="M138.633 469.927C143.015 469.927 146.567 466.375 146.567 461.993C146.567 457.611 143.015 454.059 138.633 454.059C134.252 454.059 130.7 457.611 130.7 461.993C130.7 466.375 134.252 469.927 138.633 469.927Z" fill="#2B3E54"/>
<path d="M138.633 187.055C143.015 187.055 146.567 183.503 146.567 179.122C146.567 174.74 143.015 171.188 138.633 171.188C134.252 171.188 130.7 174.74 130.7 179.122C130.7 183.503 134.252 187.055 138.633 187.055Z" fill="#2B3E54"/>
<path d="M138.633 234.201C143.015 234.201 146.567 230.649 146.567 226.268C146.567 221.886 143.015 218.334 138.633 218.334C134.252 218.334 130.7 221.886 130.7 226.268C130.7 230.649 134.252 234.201 138.633 234.201Z" fill="#2B3E54"/>
<path d="M138.633 281.348C143.015 281.348 146.567 277.796 146.567 273.414C146.567 269.032 143.015 265.48 138.633 265.48C134.252 265.48 130.7 269.032 130.7 273.414C130.7 277.796 134.252 281.348 138.633 281.348Z" fill="#2B3E54"/>
<path d="M138.633 328.494C143.015 328.494 146.567 324.942 146.567 320.56C146.567 316.179 143.015 312.627 138.633 312.627C134.252 312.627 130.7 316.179 130.7 320.56C130.7 324.942 134.252 328.494 138.633 328.494Z" fill="#2B3E54"/>
<path d="M138.633 45.622C143.015 45.622 146.567 42.07 146.567 37.6884C146.567 33.3067 143.015 29.7547 138.633 29.7547C134.252 29.7547 130.7 33.3067 130.7 37.6884C130.7 42.07 134.252 45.622 138.633 45.622Z" fill="#2B3E54"/>
<path d="M138.633 92.7684C143.015 92.7684 146.567 89.2163 146.567 84.8347C146.567 80.4531 143.015 76.9011 138.633 76.9011C134.252 76.9011 130.7 80.4531 130.7 84.8347C130.7 89.2163 134.252 92.7684 138.633 92.7684Z" fill="#2B3E54"/>
<path d="M138.633 139.915C143.015 139.915 146.567 136.363 146.567 131.981C146.567 127.599 143.015 124.047 138.633 124.047C134.252 124.047 130.7 127.599 130.7 131.981C130.7 136.363 134.252 139.915 138.633 139.915Z" fill="#2B3E54"/>
<path d="M91.4871 375.64C95.8687 375.64 99.4208 372.088 99.4208 367.706C99.4208 363.325 95.8687 359.773 91.4871 359.773C87.1054 359.773 83.5535 363.325 83.5535 367.706C83.5535 372.088 87.1054 375.64 91.4871 375.64Z" fill="#2B3E54"/>
<path d="M91.4871 422.786C95.8687 422.786 99.4208 419.234 99.4208 414.853C99.4208 410.471 95.8687 406.919 91.4871 406.919C87.1054 406.919 83.5535 410.471 83.5535 414.853C83.5535 419.234 87.1054 422.786 91.4871 422.786Z" fill="#2B3E54"/>
<path d="M91.4871 469.927C95.8687 469.927 99.4208 466.375 99.4208 461.993C99.4208 457.611 95.8687 454.059 91.4871 454.059C87.1054 454.059 83.5535 457.611 83.5535 461.993C83.5535 466.375 87.1054 469.927 91.4871 469.927Z" fill="#2B3E54"/>
<path d="M91.4871 187.055C95.8687 187.055 99.4208 183.503 99.4208 179.122C99.4208 174.74 95.8687 171.188 91.4871 171.188C87.1054 171.188 83.5535 174.74 83.5535 179.122C83.5535 183.503 87.1054 187.055 91.4871 187.055Z" fill="#2B3E54"/>
<path d="M91.4871 234.201C95.8687 234.201 99.4208 230.649 99.4208 226.268C99.4208 221.886 95.8687 218.334 91.4871 218.334C87.1054 218.334 83.5535 221.886 83.5535 226.268C83.5535 230.649 87.1054 234.201 91.4871 234.201Z" fill="#2B3E54"/>
<path d="M91.4871 281.348C95.8687 281.348 99.4208 277.796 99.4208 273.414C99.4208 269.032 95.8687 265.48 91.4871 265.48C87.1054 265.48 83.5535 269.032 83.5535 273.414C83.5535 277.796 87.1054 281.348 91.4871 281.348Z" fill="#2B3E54"/>
<path d="M91.4871 328.494C95.8687 328.494 99.4208 324.942 99.4208 320.56C99.4208 316.179 95.8687 312.627 91.4871 312.627C87.1054 312.627 83.5535 316.179 83.5535 320.56C83.5535 324.942 87.1054 328.494 91.4871 328.494Z" fill="#2B3E54"/>
<path d="M91.4871 45.622C95.8687 45.622 99.4208 42.07 99.4208 37.6884C99.4208 33.3067 95.8687 29.7547 91.4871 29.7547C87.1054 29.7547 83.5535 33.3067 83.5535 37.6884C83.5535 42.07 87.1054 45.622 91.4871 45.622Z" fill="#2B3E54"/>
<path d="M91.4871 92.7684C95.8687 92.7684 99.4208 89.2163 99.4208 84.8347C99.4208 80.4531 95.8687 76.9011 91.4871 76.9011C87.1054 76.9011 83.5535 80.4531 83.5535 84.8347C83.5535 89.2163 87.1054 92.7684 91.4871 92.7684Z" fill="#2B3E54"/>
<path d="M91.4871 139.915C95.8687 139.915 99.4208 136.363 99.4208 131.981C99.4208 127.599 95.8687 124.047 91.4871 124.047C87.1054 124.047 83.5535 127.599 83.5535 131.981C83.5535 136.363 87.1054 139.915 91.4871 139.915Z" fill="#2B3E54"/>
<path d="M44.3408 375.64C48.7224 375.64 52.2744 372.088 52.2744 367.706C52.2744 363.325 48.7224 359.773 44.3408 359.773C39.9592 359.773 36.4072 363.325 36.4072 367.706C36.4072 372.088 39.9592 375.64 44.3408 375.64Z" fill="#2B3E54"/>
<path d="M44.3408 422.786C48.7224 422.786 52.2744 419.234 52.2744 414.853C52.2744 410.471 48.7224 406.919 44.3408 406.919C39.9592 406.919 36.4072 410.471 36.4072 414.853C36.4072 419.234 39.9592 422.786 44.3408 422.786Z" fill="#2B3E54"/>
<path d="M44.3408 469.927C48.7224 469.927 52.2744 466.375 52.2744 461.993C52.2744 457.611 48.7224 454.059 44.3408 454.059C39.9592 454.059 36.4072 457.611 36.4072 461.993C36.4072 466.375 39.9592 469.927 44.3408 469.927Z" fill="#2B3E54"/>
<path d="M44.3408 187.055C48.7224 187.055 52.2744 183.503 52.2744 179.122C52.2744 174.74 48.7224 171.188 44.3408 171.188C39.9592 171.188 36.4072 174.74 36.4072 179.122C36.4072 183.503 39.9592 187.055 44.3408 187.055Z" fill="#2B3E54"/>
<path d="M44.3408 234.201C48.7224 234.201 52.2744 230.649 52.2744 226.268C52.2744 221.886 48.7224 218.334 44.3408 218.334C39.9592 218.334 36.4072 221.886 36.4072 226.268C36.4072 230.649 39.9592 234.201 44.3408 234.201Z" fill="#2B3E54"/>
<path d="M44.3408 281.348C48.7224 281.348 52.2744 277.796 52.2744 273.414C52.2744 269.032 48.7224 265.48 44.3408 265.48C39.9592 265.48 36.4072 269.032 36.4072 273.414C36.4072 277.796 39.9592 281.348 44.3408 281.348Z" fill="#2B3E54"/>
<path d="M44.3408 328.494C48.7224 328.494 52.2744 324.942 52.2744 320.56C52.2744 316.179 48.7224 312.627 44.3408 312.627C39.9592 312.627 36.4072 316.179 36.4072 320.56C36.4072 324.942 39.9592 328.494 44.3408 328.494Z" fill="#2B3E54"/>
<path d="M44.3408 45.622C48.7224 45.622 52.2744 42.07 52.2744 37.6884C52.2744 33.3067 48.7224 29.7547 44.3408 29.7547C39.9592 29.7547 36.4072 33.3067 36.4072 37.6884C36.4072 42.07 39.9592 45.622 44.3408 45.622Z" fill="#2B3E54"/>
<path d="M44.3408 92.7684C48.7224 92.7684 52.2744 89.2163 52.2744 84.8347C52.2744 80.4531 48.7224 76.9011 44.3408 76.9011C39.9592 76.9011 36.4072 80.4531 36.4072 84.8347C36.4072 89.2163 39.9592 92.7684 44.3408 92.7684Z" fill="#2B3E54"/>
<path d="M44.3408 139.915C48.7224 139.915 52.2744 136.363 52.2744 131.981C52.2744 127.599 48.7224 124.047 44.3408 124.047C39.9592 124.047 36.4072 127.599 36.4072 131.981C36.4072 136.363 39.9592 139.915 44.3408 139.915Z" fill="#2B3E54"/>
<path d="M2.81231 373.315C5.91058 370.216 5.91058 365.193 2.81231 362.095C-0.285974 358.997 -5.3093 358.996 -8.40758 362.095C-11.5059 365.193 -11.5059 370.216 -8.40758 373.315C-5.3093 376.413 -0.285974 376.413 2.81231 373.315Z" fill="#2B3E54"/>
<path d="M5.09303 416.185C5.79508 411.86 2.85813 407.785 -1.46689 407.083C-5.79191 406.38 -9.86709 409.317 -10.5691 413.642C-11.2712 417.967 -8.33426 422.043 -4.00924 422.745C0.315775 423.447 4.39098 420.51 5.09303 416.185Z" fill="#2B3E54"/>
<path d="M5.08756 463.335C5.78961 459.01 2.85251 454.935 -1.47251 454.233C-5.79752 453.531 -9.87271 456.468 -10.5748 460.793C-11.2768 465.118 -8.33988 469.193 -4.01486 469.895C0.31016 470.597 4.38551 467.66 5.08756 463.335Z" fill="#2B3E54"/>
<path d="M5.09164 180.446C5.79369 176.121 2.85666 172.046 -1.46836 171.344C-5.79337 170.642 -9.86856 173.579 -10.5706 177.904C-11.2727 182.229 -8.33573 186.304 -4.01071 187.006C0.314311 187.708 4.38959 184.771 5.09164 180.446Z" fill="#2B3E54"/>
<path d="M5.0922 227.598C5.79425 223.273 2.85722 219.198 -1.4678 218.496C-5.79281 217.793 -9.86807 220.73 -10.5701 225.055C-11.2722 229.38 -8.33517 233.456 -4.01015 234.158C0.314869 234.86 4.39015 231.923 5.0922 227.598Z" fill="#2B3E54"/>
<path d="M5.09237 274.743C5.79442 270.418 2.8574 266.343 -1.46762 265.641C-5.79264 264.939 -9.86783 267.876 -10.5699 272.201C-11.2719 276.526 -8.335 280.601 -4.00998 281.303C0.315043 282.005 4.39032 279.068 5.09237 274.743Z" fill="#2B3E54"/>
<path d="M5.09269 321.888C5.79474 317.563 2.85771 313.488 -1.46731 312.786C-5.79233 312.084 -9.86758 315.021 -10.5696 319.346C-11.2717 323.671 -8.33468 327.746 -4.00966 328.448C0.315358 329.15 4.39064 326.213 5.09269 321.888Z" fill="#2B3E54"/>
<path d="M5.09684 39.0056C5.79889 34.6805 2.86186 30.6053 -1.46316 29.9033C-5.78818 29.2012 -9.86343 32.1382 -10.5655 36.4632C-11.2675 40.7882 -8.33053 44.8636 -4.00551 45.5656C0.319508 46.2677 4.39479 43.3306 5.09684 39.0056Z" fill="#2B3E54"/>
<path d="M5.09701 86.1565C5.79906 81.8315 2.86203 77.7563 -1.46298 77.0542C-5.788 76.3522 -9.86319 79.2891 -10.5652 83.6141C-11.2673 87.9392 -8.33036 92.0145 -4.00534 92.7165C0.319682 93.4186 4.39496 90.4815 5.09701 86.1565Z" fill="#2B3E54"/>
<path d="M5.09733 133.302C5.79937 128.977 2.86235 124.902 -1.46267 124.2C-5.78769 123.498 -9.86294 126.435 -10.565 130.76C-11.267 135.085 -8.33004 139.16 -4.00502 139.862C0.319996 140.564 4.39528 137.627 5.09733 133.302Z" fill="#2B3E54"/>
<path d="M1250.41 190C1249.54 190 1248.66 189.667 1248 189.001C1246.67 187.669 1246.67 185.511 1248 184.179L1627.32 -195.141C1628.65 -196.473 1630.81 -196.473 1632.14 -195.141C1633.47 -193.809 1633.47 -191.651 1632.14 -190.319L1252.82 189.001C1252.15 189.667 1251.29 190 1250.41 190Z" fill="#F46969"/>
<path d="M1297.25 66.1395C1296.38 66.1395 1295.5 65.8066 1294.84 65.1406C1293.51 63.8087 1293.51 61.6505 1294.84 60.3186L1674.16 -319.001C1675.49 -320.333 1677.65 -320.333 1678.98 -319.001C1680.31 -317.669 1680.31 -315.511 1678.98 -314.179L1299.66 65.1406C1298.99 65.8066 1298.12 66.1395 1297.25 66.1395Z" fill="#EAEAEA"/>
<path d="M-215.802 441.153C-216.667 441.153 -217.538 440.821 -218.201 440.159C-219.526 438.834 -219.526 436.687 -218.201 435.362L159.173 57.9938C160.498 56.6687 162.645 56.6687 163.97 57.9938C165.295 59.3188 165.295 61.4659 163.97 62.7909L-213.404 440.159C-214.066 440.821 -214.931 441.153 -215.802 441.153Z" fill="#EAEAEA"/>
<path d="M-343.608 482.309C-344.473 482.309 -345.344 481.977 -346.006 481.315C-347.331 479.99 -347.331 477.843 -346.006 476.518L31.3677 99.156C32.6928 97.831 34.8398 97.831 36.1649 99.156C37.4899 100.481 37.4899 102.628 36.1649 103.953L-341.209 481.315C-341.872 481.977 -342.737 482.309 -343.608 482.309Z" fill="#F46969"/>
<path d="M-204.76 479.8C-205.625 479.8 -206.496 479.468 -207.159 478.806C-208.484 477.481 -208.484 475.334 -207.159 474.009L170.209 96.6408C171.534 95.3157 173.681 95.3157 175.006 96.6408C176.331 97.9658 176.331 100.113 175.006 101.438L-202.362 478.806C-203.024 479.468 -203.889 479.8 -204.76 479.8Z" fill="#F46969"/>
<path d="M1439.62 230.224C1401.85 230.224 1371.23 260.842 1371.23 298.615C1371.23 336.387 1401.85 367.006 1439.62 367.006C1477.39 367.006 1508.01 336.387 1508.01 298.615C1508.01 260.842 1477.39 230.224 1439.62 230.224ZM1439.62 359.06C1406.24 359.06 1379.17 331.998 1379.17 298.615C1379.17 265.232 1406.24 238.17 1439.62 238.17C1473 238.17 1500.07 265.232 1500.07 298.615C1500.07 331.998 1473 359.06 1439.62 359.06Z" fill="#F46969"/>
<path d="M1439.62 168C1367.48 168 1309 226.478 1309 298.62C1309 370.762 1367.48 429.24 1439.62 429.24C1511.76 429.24 1570.24 370.762 1570.24 298.62C1570.24 226.478 1511.76 168 1439.62 168ZM1439.62 392.852C1387.58 392.852 1345.39 350.665 1345.39 298.62C1345.39 246.575 1387.58 204.388 1439.62 204.388C1491.66 204.388 1533.85 246.575 1533.85 298.62C1533.85 350.665 1491.66 392.852 1439.62 392.852Z" fill="#24568E"/>
<path d="M1093.11 781C1090.87 781 1088.59 780.957 1086.36 780.88C1084.96 780.831 1083.87 779.656 1083.92 778.26C1083.98 776.864 1085.15 775.79 1086.54 775.824C1093.18 776.065 1099.93 775.935 1106.52 775.443C1107.91 775.323 1109.13 776.387 1109.23 777.779C1109.34 779.17 1108.29 780.384 1106.9 780.49C1102.34 780.827 1097.7 781 1093.11 781ZM1053 776.536C1052.82 776.536 1052.63 776.517 1052.44 776.474C1045.78 774.962 1039.13 773.055 1032.68 770.806C1031.36 770.344 1030.66 768.904 1031.13 767.585C1031.59 766.266 1033.03 765.572 1034.35 766.03C1040.62 768.221 1047.08 770.074 1053.55 771.538C1054.92 771.846 1055.77 773.204 1055.46 774.567C1055.2 775.742 1054.15 776.541 1053 776.541L1053 776.536ZM1139.96 774.87C1138.84 774.87 1137.82 774.124 1137.52 772.992C1137.16 771.644 1137.96 770.253 1139.31 769.892C1145.73 768.173 1152.11 766.068 1158.28 763.642C1159.58 763.131 1161.05 763.772 1161.56 765.072C1162.07 766.372 1161.43 767.84 1160.13 768.351C1153.78 770.845 1147.22 773.007 1140.62 774.779C1140.39 774.837 1140.18 774.865 1139.96 774.865V774.87ZM1002.85 756.886C1002.42 756.886 1001.98 756.775 1001.59 756.544C995.682 753.135 989.899 749.345 984.395 745.286C983.268 744.458 983.032 742.874 983.861 741.747C984.694 740.625 986.273 740.385 987.4 741.213C992.749 745.161 998.373 748.845 1004.12 752.162C1005.33 752.861 1005.74 754.411 1005.04 755.62C1004.58 756.433 1003.72 756.886 1002.85 756.886ZM1189.31 753.299C1188.46 753.299 1187.65 752.88 1187.16 752.119C1186.42 750.934 1186.77 749.374 1187.95 748.628C1193.57 745.094 1199.04 741.198 1204.23 737.053C1205.33 736.181 1206.92 736.359 1207.79 737.447C1208.66 738.54 1208.48 740.134 1207.39 741.006C1202.06 745.267 1196.42 749.273 1190.65 752.909C1190.24 753.174 1189.77 753.299 1189.31 753.299ZM960.734 723.31C960.055 723.31 959.376 723.041 958.88 722.501C954.229 717.498 949.813 712.183 945.754 706.698C944.921 705.576 945.157 703.987 946.284 703.159C947.406 702.326 948.99 702.562 949.823 703.689C953.766 709.019 958.061 714.19 962.588 719.054C963.541 720.079 963.478 721.678 962.458 722.631C961.971 723.084 961.35 723.31 960.734 723.31ZM1230.1 718.144C1229.52 718.144 1228.93 717.941 1228.45 717.532C1227.39 716.622 1227.27 715.023 1228.19 713.964C1232.52 708.932 1236.62 703.602 1240.36 698.118C1241.15 696.962 1242.73 696.668 1243.88 697.453C1245.03 698.243 1245.33 699.817 1244.54 700.968C1240.69 706.607 1236.48 712.086 1232.03 717.263C1231.53 717.845 1230.82 718.144 1230.11 718.144H1230.1ZM930.326 678.862C929.388 678.862 928.482 678.337 928.044 677.432C925.073 671.288 922.42 664.903 920.157 658.461C919.695 657.141 920.388 655.697 921.707 655.234C923.027 654.772 924.471 655.466 924.933 656.785C927.134 663.049 929.71 669.256 932.599 675.232C933.206 676.488 932.681 678.005 931.424 678.612C931.068 678.785 930.692 678.867 930.326 678.867V678.862ZM1258.78 672.554C1258.45 672.554 1258.1 672.487 1257.77 672.342C1256.49 671.784 1255.91 670.291 1256.47 669.01C1259.13 662.919 1261.47 656.616 1263.42 650.275C1263.83 648.941 1265.25 648.185 1266.58 648.599C1267.92 649.013 1268.67 650.429 1268.26 651.763C1266.25 658.287 1263.84 664.768 1261.11 671.033C1260.69 671.986 1259.76 672.549 1258.79 672.549L1258.78 672.554ZM914.417 627.413C913.185 627.413 912.106 626.512 911.918 625.26C910.907 618.529 910.262 611.648 910.002 604.811C909.949 603.414 911.037 602.24 912.434 602.187C913.811 602.148 915.005 603.222 915.058 604.618C915.308 611.268 915.934 617.961 916.921 624.505C917.128 625.887 916.18 627.177 914.793 627.384C914.663 627.403 914.538 627.413 914.413 627.413H914.417ZM1272.7 620.522C1272.6 620.522 1272.51 620.518 1272.41 620.508C1271.03 620.354 1270.03 619.102 1270.18 617.715C1270.91 611.143 1271.28 604.435 1271.28 597.766V597.371C1271.28 595.975 1272.41 594.839 1273.81 594.839C1275.21 594.839 1276.34 595.97 1276.34 597.371V597.737C1276.34 604.618 1275.96 611.518 1275.21 618.274C1275.07 619.569 1273.97 620.522 1272.7 620.522ZM914.369 573.556C914.244 573.556 914.119 573.546 913.994 573.527C912.612 573.32 911.658 572.034 911.861 570.653C912.862 563.892 914.263 557.122 916.016 550.53C916.372 549.177 917.754 548.373 919.112 548.734C920.46 549.095 921.264 550.482 920.908 551.83C919.204 558.239 917.846 564.821 916.868 571.394C916.68 572.651 915.602 573.551 914.369 573.551V573.556ZM1270.62 566.314C1269.43 566.314 1268.37 565.467 1268.14 564.253C1266.9 557.724 1265.27 551.204 1263.3 544.872C1262.89 543.539 1263.64 542.118 1264.97 541.704C1266.31 541.29 1267.72 542.036 1268.14 543.37C1270.16 549.88 1271.83 556.588 1273.11 563.305C1273.37 564.677 1272.47 566.001 1271.1 566.266C1270.94 566.295 1270.78 566.309 1270.62 566.309V566.314ZM930.163 522.068C929.797 522.068 929.421 521.986 929.07 521.818C927.808 521.211 927.278 519.699 927.885 518.442C930.842 512.294 934.183 506.241 937.819 500.453C938.565 499.269 940.12 498.912 941.31 499.654C942.494 500.395 942.851 501.96 942.109 503.145C938.575 508.774 935.324 514.658 932.45 520.633C932.012 521.538 931.111 522.068 930.168 522.068H930.163ZM1252.74 515.52C1251.84 515.52 1250.96 515.033 1250.51 514.176C1247.39 508.326 1243.91 502.582 1240.15 497.102C1239.36 495.946 1239.65 494.372 1240.8 493.582C1241.95 492.792 1243.53 493.086 1244.32 494.237C1248.19 499.871 1251.77 505.779 1254.97 511.798C1255.63 513.03 1255.16 514.566 1253.93 515.221C1253.55 515.423 1253.14 515.52 1252.74 515.52ZM960.483 477.548C959.867 477.548 959.251 477.326 958.764 476.874C957.739 475.925 957.676 474.322 958.625 473.296C963.267 468.284 968.236 463.483 973.402 459.024C974.457 458.109 976.055 458.23 976.97 459.284C977.885 460.343 977.765 461.942 976.71 462.852C971.688 467.191 966.854 471.856 962.342 476.734C961.841 477.273 961.167 477.548 960.483 477.548ZM1220.65 472.275C1220 472.275 1219.36 472.03 1218.86 471.539C1214.16 466.849 1209.13 462.38 1203.94 458.249C1202.85 457.377 1202.67 455.788 1203.54 454.695C1204.41 453.602 1206 453.419 1207.09 454.291C1212.43 458.538 1217.6 463.136 1222.43 467.956C1223.43 468.943 1223.43 470.547 1222.44 471.534C1221.94 472.03 1221.3 472.28 1220.65 472.28V472.275ZM1002.53 443.89C1001.66 443.89 1000.81 443.438 1000.34 442.629C999.64 441.42 1000.05 439.87 1001.26 439.171C1007.17 435.743 1013.33 432.618 1019.57 429.878C1020.86 429.315 1022.35 429.898 1022.91 431.178C1023.47 432.459 1022.89 433.952 1021.61 434.511C1015.53 437.173 1009.54 440.216 1003.8 443.548C1003.4 443.78 1002.96 443.89 1002.53 443.89ZM1177.27 440.342C1176.87 440.342 1176.47 440.245 1176.1 440.048C1170.21 436.947 1164.1 434.149 1157.93 431.737C1156.63 431.227 1155.98 429.763 1156.49 428.458C1157 427.153 1158.47 426.513 1159.77 427.023C1166.12 429.503 1172.41 432.382 1178.46 435.57C1179.7 436.22 1180.17 437.751 1179.52 438.989C1179.07 439.85 1178.19 440.342 1177.28 440.342H1177.27ZM1052.62 424.139C1051.46 424.139 1050.42 423.344 1050.15 422.169C1049.84 420.807 1050.69 419.449 1052.05 419.136C1058.7 417.614 1065.51 416.454 1072.3 415.688C1073.69 415.529 1074.94 416.531 1075.1 417.918C1075.26 419.304 1074.26 420.561 1072.87 420.715C1066.27 421.462 1059.64 422.588 1053.18 424.067C1053 424.11 1052.8 424.129 1052.62 424.129V424.139ZM1126.41 422.646C1126.25 422.646 1126.1 422.632 1125.94 422.603C1119.43 421.389 1112.77 420.532 1106.13 420.051C1104.73 419.95 1103.69 418.736 1103.79 417.345C1103.89 415.953 1105.11 414.923 1106.5 415.005C1113.32 415.496 1120.18 416.382 1126.87 417.629C1128.24 417.884 1129.15 419.208 1128.89 420.58C1128.67 421.799 1127.6 422.646 1126.41 422.646Z" fill="#F46969"/>
<path d="M13.7721 378.478L-5.69966 359L-12 365.3L7.47187 384.772L-12 404.25L-5.69966 410.55L13.7721 391.072L20.0723 384.772L13.7721 378.478Z" fill="#EAEAEA"/>
<path d="M58.4449 378.478L38.9731 359L32.6729 365.3L52.1447 384.772L32.6729 404.25L38.9731 410.55L58.4449 391.072L64.7451 384.772L58.4449 378.478Z" fill="#EAEAEA"/>
<path d="M103.118 378.478L83.6458 359L77.3455 365.3L96.8173 384.772L77.3455 404.25L83.6458 410.55L103.118 391.072L109.418 384.772L103.118 378.478Z" fill="#EAEAEA"/>
<path d="M147.79 378.478L128.319 359L122.018 365.3L141.49 384.772L122.018 404.25L128.319 410.55L147.79 391.072L154.091 384.772L147.79 378.478Z" fill="#EAEAEA"/>
<path d="M192.463 378.478L172.985 359L166.691 365.3L186.163 384.772L166.691 404.25L172.985 410.55L192.463 391.072L198.763 384.772L192.463 378.478Z" fill="#EAEAEA"/>
<path d="M373.61 6.72998H366.42C365.22 -2.25002 361.67 -10.49 356.43 -17.37L361.51 -22.45C362.57 -23.49 362.57 -25.19 361.51 -26.25L355.54 -32.22C354.48 -33.28 352.78 -33.28 351.74 -32.22L346.66 -27.14C339.78 -32.38 331.55 -35.93 322.56 -37.13V-44.3199C322.56 -45.7999 321.36 -47 319.88 -47H311.41C309.93 -47 308.73 -45.7999 308.73 -44.3199V-37.13C299.75 -35.93 291.51 -32.38 284.63 -27.14L279.55 -32.22C278.51 -33.28 276.81 -33.28 275.75 -32.22L269.78 -26.25C268.72 -25.19 268.72 -23.49 269.78 -22.45L274.86 -17.37C269.62 -10.49 266.07 -2.26002 264.87 6.72998H257.68C256.2 6.72998 255 7.93003 255 9.41003V17.88C255 19.36 256.2 20.5601 257.68 20.5601H264.87C266.07 29.5401 269.62 37.78 274.86 44.66L269.78 49.74C268.72 50.78 268.72 52.48 269.78 53.54L275.75 59.51C276.81 60.57 278.51 60.57 279.55 59.51L284.63 54.4301C291.51 59.6701 299.74 63.22 308.73 64.42V71.61C308.73 73.09 309.93 74.29 311.41 74.29H319.88C321.36 74.29 322.56 73.09 322.56 71.61V64.42C331.54 63.22 339.78 59.6701 346.66 54.4301L351.74 59.51C352.78 60.57 354.48 60.57 355.54 59.51L361.51 53.54C362.57 52.48 362.57 50.78 361.51 49.74L356.43 44.66C361.67 37.78 365.22 29.5501 366.42 20.5601H373.61C375.09 20.5601 376.29 19.36 376.29 17.88V9.41003C376.29 7.93003 375.09 6.72998 373.61 6.72998ZM347.4 35.64C344.76 39.46 341.45 42.77 337.63 45.41C333.2 48.5 328.07 50.67 322.56 51.66C320.31 52.07 318.01 52.29 315.64 52.29C313.27 52.29 310.97 52.07 308.72 51.66C303.2 50.67 298.08 48.51 293.65 45.41C289.83 42.77 286.52 39.46 283.88 35.64C280.79 31.21 278.62 26.1001 277.63 20.5701C277.22 18.3201 277 16.02 277 13.65C277 11.28 277.22 8.97998 277.63 6.72998C278.62 1.18998 280.78 -3.90997 283.88 -8.33997C286.52 -12.16 289.83 -15.47 293.65 -18.11C298.08 -21.2 303.21 -23.37 308.72 -24.36C310.97 -24.77 313.27 -24.99 315.64 -24.99C318.01 -24.99 320.31 -24.77 322.56 -24.36C328.08 -23.37 333.2 -21.21 337.63 -18.11C341.45 -15.47 344.76 -12.16 347.4 -8.33997C350.49 -3.90997 352.66 1.19998 353.65 6.72998C354.06 8.97998 354.28 11.28 354.28 13.65C354.28 16.02 354.06 18.3201 353.65 20.5701C352.66 26.1101 350.5 31.21 347.4 35.64Z" fill="#24568E"/>
<path d="M465.516 127.219L441.382 141.153C437.857 143.188 436.65 147.695 438.685 151.219L438.686 151.221C440.72 154.746 445.227 155.953 448.752 153.918L472.886 139.984C476.41 137.95 477.618 133.443 475.583 129.918L475.582 129.916C473.547 126.392 469.04 125.184 465.516 127.219Z" fill="#FF4131"/>
<path d="M487.314 165.6C489.267 168.983 493.593 170.143 496.976 168.19L521.621 153.961C525.004 152.008 526.164 147.681 524.211 144.298L523.915 143.785C521.962 140.402 517.635 139.243 514.252 141.196L489.607 155.425C486.224 157.378 485.065 161.704 487.018 165.087" fill="#FFBC00"/>
<path d="M487.46 130.235C485.507 133.618 486.667 137.944 490.05 139.897L514.695 154.126C518.078 156.079 522.405 154.92 524.358 151.537L524.654 151.024C526.607 147.641 525.447 143.314 522.064 141.361L497.419 127.132C494.036 125.179 489.71 126.339 487.757 129.722" fill="#009E51"/>
<path d="M472.927 155.015L448.793 141.082C445.268 139.047 440.762 140.254 438.727 143.779L438.726 143.781C436.691 147.305 437.898 151.812 441.423 153.847L465.557 167.781C469.082 169.816 473.588 168.608 475.623 165.083L475.624 165.082C477.659 161.557 476.452 157.05 472.927 155.015Z" fill="#0086F8"/>
<path d="M568.414 148.687C568.414 152.734 567.213 155.957 564.813 158.358C562.115 161.218 558.568 162.647 554.17 162.647C549.962 162.647 546.401 161.191 543.488 158.277C540.574 155.364 539.118 151.776 539.118 147.514C539.118 143.251 540.574 139.663 543.488 136.75C546.401 133.837 549.962 132.38 554.17 132.38C556.302 132.38 558.311 132.758 560.2 133.513C562.088 134.268 563.639 135.334 564.853 136.71L562.182 139.38C561.292 138.301 560.132 137.465 558.702 136.871C557.3 136.251 555.789 135.941 554.17 135.941C551.014 135.941 548.343 137.033 546.158 139.218C544 141.43 542.921 144.196 542.921 147.514C542.921 150.832 544 153.597 546.158 155.809C548.343 157.994 551.014 159.086 554.17 159.086C557.057 159.086 559.458 158.277 561.373 156.659C563.288 155.04 564.394 152.814 564.691 149.982H554.17V146.502H568.212C568.346 147.257 568.414 147.986 568.414 148.687ZM572.937 162V133.027H581.799C586.223 133.027 589.77 134.363 592.441 137.033C595.139 139.704 596.487 143.197 596.487 147.514C596.487 151.857 595.139 155.364 592.441 158.034C589.77 160.678 586.223 162 581.799 162H572.937ZM576.66 136.588V158.439H581.799C585.171 158.439 587.828 157.481 589.77 155.566C591.713 153.624 592.684 150.94 592.684 147.514C592.684 144.115 591.713 141.444 589.77 139.502C587.828 137.559 585.171 136.588 581.799 136.588H576.66ZM628.795 148.687C628.795 152.734 627.594 155.957 625.193 158.358C622.496 161.218 618.948 162.647 614.551 162.647C610.343 162.647 606.782 161.191 603.868 158.277C600.955 155.364 599.498 151.776 599.498 147.514C599.498 143.251 600.955 139.663 603.868 136.75C606.782 133.837 610.343 132.38 614.551 132.38C616.682 132.38 618.692 132.758 620.58 133.513C622.469 134.268 624.02 135.334 625.234 136.71L622.563 139.38C621.673 138.301 620.513 137.465 619.083 136.871C617.68 136.251 616.17 135.941 614.551 135.941C611.395 135.941 608.724 137.033 606.539 139.218C604.381 141.43 603.302 144.196 603.302 147.514C603.302 150.832 604.381 153.597 606.539 155.809C608.724 157.994 611.395 159.086 614.551 159.086C617.438 159.086 619.838 158.277 621.754 156.659C623.669 155.04 624.775 152.814 625.072 149.982H614.551V146.502H628.592C628.727 147.257 628.795 147.986 628.795 148.687ZM659.123 133.027V136.588H645.932V145.774H657.828V149.254H645.932V158.439H659.123V162H642.209V133.027H659.123ZM663.098 142.172H666.659V144.924H666.821C667.387 143.953 668.25 143.143 669.41 142.496C670.597 141.849 671.825 141.525 673.093 141.525C675.52 141.525 677.382 142.226 678.677 143.629C679.999 145.005 680.659 146.974 680.659 149.537V162H676.937V149.78C676.856 146.542 675.224 144.924 672.04 144.924C670.557 144.924 669.316 145.531 668.318 146.745C667.32 147.932 666.821 149.362 666.821 151.034V162H663.098V142.172ZM694.093 162.647C691.153 162.647 688.712 161.649 686.769 159.653C684.854 157.603 683.896 155.08 683.896 152.086C683.896 149.038 684.854 146.515 686.769 144.519C688.712 142.523 691.153 141.525 694.093 141.525C696.117 141.525 697.884 142.037 699.394 143.063C700.905 144.061 702.038 145.45 702.793 147.23L699.394 148.647C698.342 146.165 696.494 144.924 693.851 144.924C692.151 144.924 690.681 145.612 689.44 146.988C688.226 148.363 687.619 150.063 687.619 152.086C687.619 154.109 688.226 155.809 689.44 157.185C690.681 158.56 692.151 159.248 693.851 159.248C696.575 159.248 698.491 158.007 699.597 155.526L702.915 156.942C702.186 158.722 701.04 160.125 699.475 161.15C697.937 162.148 696.144 162.647 694.093 162.647ZM708.684 155.93C708.684 156.901 709.089 157.711 709.898 158.358C710.734 159.006 711.705 159.329 712.811 159.329C714.376 159.329 715.765 158.749 716.979 157.589C718.22 156.429 718.841 155.067 718.841 153.502C717.681 152.585 716.062 152.127 713.985 152.127C712.474 152.127 711.206 152.491 710.181 153.219C709.183 153.947 708.684 154.851 708.684 155.93ZM713.499 141.525C716.251 141.525 718.422 142.267 720.014 143.75C721.606 145.207 722.401 147.217 722.401 149.78V162H718.841V159.248H718.679C717.141 161.514 715.091 162.647 712.528 162.647C710.343 162.647 708.509 162 707.025 160.705C705.568 159.41 704.84 157.792 704.84 155.849C704.84 153.799 705.609 152.167 707.146 150.953C708.711 149.739 710.788 149.132 713.378 149.132C715.59 149.132 717.411 149.537 718.841 150.346V149.496C718.841 148.202 718.328 147.109 717.303 146.219C716.278 145.302 715.077 144.843 713.702 144.843C711.624 144.843 709.979 145.72 708.765 147.473L705.487 145.409C707.295 142.82 709.965 141.525 713.499 141.525ZM730.323 162H726.6V142.172H730.161V145.409H730.323C730.701 144.357 731.47 143.467 732.63 142.739C733.817 141.983 734.976 141.606 736.109 141.606C737.189 141.606 738.106 141.768 738.861 142.091L737.728 145.693C737.269 145.504 736.541 145.409 735.543 145.409C734.14 145.409 732.913 145.976 731.861 147.109C730.836 148.242 730.323 149.564 730.323 151.075V162ZM741.3 142.172H744.861V144.924H745.023C745.59 143.953 746.453 143.143 747.613 142.496C748.8 141.849 750.027 141.525 751.295 141.525C753.723 141.525 755.584 142.226 756.879 143.629C758.201 145.005 758.862 146.974 758.862 149.537V162H755.139V149.78C755.058 146.542 753.426 144.924 750.243 144.924C748.759 144.924 747.518 145.531 746.52 146.745C745.522 147.932 745.023 149.362 745.023 151.034V162H741.3V142.172ZM765.745 155.93C765.745 156.901 766.15 157.711 766.959 158.358C767.796 159.006 768.767 159.329 769.873 159.329C771.437 159.329 772.827 158.749 774.041 157.589C775.282 156.429 775.902 155.067 775.902 153.502C774.742 152.585 773.123 152.127 771.046 152.127C769.536 152.127 768.268 152.491 767.243 153.219C766.244 153.947 765.745 154.851 765.745 155.93ZM770.561 141.525C773.312 141.525 775.484 142.267 777.075 143.75C778.667 145.207 779.463 147.217 779.463 149.78V162H775.902V159.248H775.74C774.202 161.514 772.152 162.647 769.589 162.647C767.404 162.647 765.57 162 764.086 160.705C762.63 159.41 761.901 157.792 761.901 155.849C761.901 153.799 762.67 152.167 764.208 150.953C765.772 149.739 767.85 149.132 770.439 149.132C772.651 149.132 774.472 149.537 775.902 150.346V149.496C775.902 148.202 775.389 147.109 774.364 146.219C773.339 145.302 772.139 144.843 770.763 144.843C768.686 144.843 767.04 145.72 765.826 147.473L762.549 145.409C764.356 142.82 767.027 141.525 770.561 141.525ZM792.528 162.647C789.588 162.647 787.146 161.649 785.204 159.653C783.289 157.603 782.331 155.08 782.331 152.086C782.331 149.038 783.289 146.515 785.204 144.519C787.146 142.523 789.588 141.525 792.528 141.525C794.551 141.525 796.318 142.037 797.829 143.063C799.34 144.061 800.473 145.45 801.228 147.23L797.829 148.647C796.777 146.165 794.929 144.924 792.285 144.924C790.586 144.924 789.116 145.612 787.875 146.988C786.661 148.363 786.054 150.063 786.054 152.086C786.054 154.109 786.661 155.809 787.875 157.185C789.116 158.56 790.586 159.248 792.285 159.248C795.01 159.248 796.925 158.007 798.031 155.526L801.349 156.942C800.621 158.722 799.475 160.125 797.91 161.15C796.372 162.148 794.578 162.647 792.528 162.647ZM809.421 135.334C809.421 136.062 809.164 136.683 808.652 137.195C808.139 137.708 807.519 137.964 806.79 137.964C806.062 137.964 805.442 137.708 804.929 137.195C804.416 136.683 804.16 136.062 804.16 135.334C804.16 134.605 804.416 133.985 804.929 133.472C805.442 132.96 806.062 132.704 806.79 132.704C807.519 132.704 808.139 132.96 808.652 133.472C809.164 133.985 809.421 134.605 809.421 135.334ZM808.652 142.172V162H804.929V142.172H808.652ZM812.166 152.086C812.166 149.038 813.123 146.515 815.039 144.519C816.981 142.523 819.422 141.525 822.363 141.525C825.303 141.525 827.731 142.523 829.647 144.519C831.589 146.515 832.56 149.038 832.56 152.086C832.56 155.161 831.589 157.684 829.647 159.653C827.731 161.649 825.303 162.647 822.363 162.647C819.422 162.647 816.981 161.649 815.039 159.653C813.123 157.657 812.166 155.134 812.166 152.086ZM815.889 152.086C815.889 154.217 816.509 155.944 817.75 157.266C818.991 158.587 820.528 159.248 822.363 159.248C824.197 159.248 825.735 158.587 826.976 157.266C828.217 155.944 828.837 154.217 828.837 152.086C828.837 149.982 828.217 148.269 826.976 146.947C825.708 145.598 824.17 144.924 822.363 144.924C820.555 144.924 819.018 145.598 817.75 146.947C816.509 148.269 815.889 149.982 815.889 152.086ZM826.733 133.027L823.82 138.207H820.582L822.687 133.027H826.733ZM835.546 142.172H839.107V144.924H839.269C839.836 143.953 840.699 143.143 841.859 142.496C843.046 141.849 844.273 141.525 845.541 141.525C847.969 141.525 849.83 142.226 851.125 143.629C852.447 145.005 853.108 146.974 853.108 149.537V162H849.385V149.78C849.304 146.542 847.672 144.924 844.489 144.924C843.005 144.924 841.764 145.531 840.766 146.745C839.768 147.932 839.269 149.362 839.269 151.034V162H835.546V142.172Z" fill="white"/>
<path d="M442.877 214.403H492.547V228.407H457.647V247.443H489.046V261.447H457.647V292.736H442.877V214.403ZM502.132 292.736V214.403H516.464V292.736H502.132ZM565.823 285.734H564.948C563.271 288.433 561.01 290.585 558.165 292.189C555.321 293.721 552.075 294.487 548.428 294.487C541.645 294.487 536.576 292.408 533.221 288.251C529.939 284.093 528.298 278.55 528.298 271.621V239.128H542.63V269.871C542.63 273.736 543.469 276.617 545.146 278.514C546.897 280.337 549.413 281.249 552.695 281.249C554.664 281.249 556.378 280.848 557.837 280.045C559.369 279.17 560.645 278.04 561.666 276.654C562.76 275.195 563.562 273.518 564.073 271.621C564.657 269.652 564.948 267.573 564.948 265.385V239.128H579.28V292.736H565.823V285.734ZM612.331 272.168C612.331 273.408 612.441 274.575 612.66 275.669C612.951 276.69 613.462 277.565 614.191 278.295C615.212 279.462 616.671 280.045 618.567 280.045C619.589 280.045 620.464 279.936 621.193 279.717C621.922 279.498 622.725 279.207 623.6 278.842L624.585 292.299C623.126 292.809 621.74 293.137 620.427 293.283C619.187 293.502 617.656 293.611 615.832 293.611C613.134 293.611 610.69 293.21 608.502 292.408C606.387 291.533 604.6 290.366 603.141 288.907C599.713 285.625 597.999 280.957 597.999 274.903V251.381H588.591V239.128H597.999V222.718H612.331V239.128H632.899V222.718H647.231V239.128H660.36V251.381H647.231V272.168C647.231 273.408 647.341 274.575 647.56 275.669C647.851 276.69 648.362 277.565 649.091 278.295C650.112 279.462 651.571 280.045 653.467 280.045C654.707 280.045 655.692 279.936 656.421 279.717C657.151 279.425 657.844 279.061 658.5 278.623L662.548 291.205C660.87 292.007 659.047 292.59 657.078 292.955C655.181 293.393 653.066 293.611 650.732 293.611C648.034 293.611 645.59 293.21 643.402 292.408C641.287 291.533 639.5 290.366 638.041 288.907C634.613 285.625 632.899 280.957 632.899 274.903V251.381H612.331V272.168ZM721.062 279.827C718.582 284.203 715.227 287.74 710.997 290.439C706.84 293.137 701.734 294.487 695.68 294.487C691.596 294.487 687.803 293.794 684.302 292.408C680.874 290.949 677.884 288.944 675.331 286.391C672.778 283.838 670.773 280.848 669.314 277.42C667.928 273.919 667.235 270.09 667.235 265.932C667.235 262.067 667.928 258.42 669.314 254.992C670.7 251.491 672.632 248.464 675.112 245.911C677.592 243.286 680.51 241.207 683.865 239.675C687.293 238.144 691.049 237.378 695.133 237.378C699.436 237.378 703.266 238.107 706.621 239.566C709.976 240.952 712.784 242.921 715.045 245.474C717.306 247.953 719.02 250.907 720.187 254.335C721.354 257.763 721.937 261.483 721.937 265.495C721.937 266.005 721.937 266.443 721.937 266.807C721.864 267.245 721.828 267.646 721.828 268.011C721.755 268.376 721.718 268.777 721.718 269.214H681.348C681.64 271.402 682.224 273.299 683.099 274.903C684.047 276.435 685.177 277.748 686.49 278.842C687.876 279.863 689.371 280.629 690.976 281.139C692.58 281.577 694.222 281.796 695.899 281.796C699.181 281.796 701.88 281.066 703.995 279.608C706.183 278.076 707.897 276.18 709.137 273.919L721.062 279.827ZM708.043 259.04C707.97 258.092 707.642 257.034 707.058 255.867C706.548 254.7 705.745 253.606 704.651 252.585C703.63 251.564 702.317 250.725 700.713 250.069C699.181 249.412 697.321 249.084 695.133 249.084C692.07 249.084 689.371 249.959 687.037 251.71C684.703 253.46 683.062 255.903 682.114 259.04H708.043ZM731.091 239.128H744.547V246.568H745.422C746.079 245.255 746.954 244.051 748.048 242.957C749.142 241.863 750.346 240.915 751.658 240.113C753.044 239.31 754.503 238.691 756.035 238.253C757.639 237.815 759.207 237.596 760.739 237.596C762.635 237.596 764.24 237.779 765.553 238.144C766.939 238.508 768.106 238.982 769.054 239.566L765.225 252.585C764.349 252.147 763.365 251.819 762.271 251.6C761.25 251.308 759.973 251.163 758.442 251.163C756.472 251.163 754.685 251.564 753.081 252.366C751.476 253.095 750.09 254.153 748.923 255.539C747.829 256.925 746.954 258.566 746.298 260.462C745.714 262.285 745.422 264.291 745.422 266.479V292.736H731.091V239.128ZM814.262 294.487C802.666 294.487 792.965 290.585 785.161 282.78C777.43 274.976 773.564 265.239 773.564 253.57C773.564 241.9 777.43 232.199 785.161 224.468C792.892 216.591 802.593 212.652 814.262 212.652C826.078 212.652 835.669 216.919 843.036 225.453L835.815 232.454C830.199 225.671 823.015 222.28 814.262 222.28C805.583 222.28 798.326 225.197 792.491 231.032C786.729 236.794 783.848 244.307 783.848 253.57C783.848 262.832 786.729 270.345 792.491 276.107C798.326 281.942 805.583 284.859 814.262 284.859C823.379 284.859 831.293 281.03 838.003 273.372L845.333 280.483C841.614 284.932 837.055 288.397 831.658 290.876C826.26 293.283 820.462 294.487 814.262 294.487ZM850.145 265.932C850.145 257.69 852.735 250.871 857.913 245.474C863.164 240.076 869.765 237.378 877.715 237.378C885.665 237.378 892.229 240.076 897.408 245.474C902.659 250.871 905.285 257.69 905.285 265.932C905.285 274.247 902.659 281.066 897.408 286.391C892.229 291.788 885.665 294.487 877.715 294.487C869.765 294.487 863.164 291.788 857.913 286.391C852.735 280.993 850.145 274.174 850.145 265.932ZM860.211 265.932C860.211 271.694 861.888 276.362 865.243 279.936C868.598 283.51 872.756 285.297 877.715 285.297C882.675 285.297 886.832 283.51 890.187 279.936C893.542 276.362 895.22 271.694 895.22 265.932C895.22 260.243 893.542 255.612 890.187 252.038C886.759 248.391 882.602 246.568 877.715 246.568C872.828 246.568 868.671 248.391 865.243 252.038C861.888 255.612 860.211 260.243 860.211 265.932ZM913.36 239.128H922.987V246.568H923.425C924.956 243.942 927.29 241.754 930.427 240.003C933.636 238.253 936.954 237.378 940.382 237.378C946.947 237.378 951.979 239.274 955.48 243.067C959.054 246.786 960.841 252.111 960.841 259.04V292.736H950.776V259.696C950.557 250.944 946.144 246.568 937.538 246.568C933.526 246.568 930.171 248.209 927.473 251.491C924.774 254.7 923.425 258.566 923.425 263.088V292.736H913.36V239.128ZM996.313 213.528C999.96 213.528 1002.95 214.148 1005.28 215.387L1002.55 224.249C1000.8 223.374 998.829 222.936 996.641 222.936C994.161 222.936 992.119 223.812 990.514 225.562C988.983 227.24 988.217 229.501 988.217 232.345V239.128H1002.22V248.318H988.217V292.736H978.152V248.318H968.086V239.128H978.152V231.36C978.152 226.036 979.829 221.733 983.184 218.451C986.612 215.169 990.988 213.528 996.313 213.528Z" fill="#F1F3F4"/>
<path d="M832.374 352.946V365.984H828.237V333.792H839.208C841.995 333.792 844.363 334.722 846.311 336.58C848.29 338.438 849.279 340.701 849.279 343.369C849.279 346.097 848.29 348.375 846.311 350.203C844.393 352.031 842.025 352.946 839.208 352.946H832.374ZM832.374 337.749V348.989H839.297C840.946 348.989 842.31 348.435 843.389 347.326C844.498 346.217 845.052 344.898 845.052 343.369C845.052 341.87 844.498 340.567 843.389 339.457C842.31 338.318 840.946 337.749 839.297 337.749H832.374ZM855.03 359.24C855.03 360.319 855.48 361.218 856.379 361.938C857.308 362.657 858.387 363.017 859.616 363.017C861.355 363.017 862.898 362.372 864.247 361.084C865.626 359.795 866.315 358.281 866.315 356.543C865.026 355.523 863.228 355.014 860.92 355.014C859.242 355.014 857.833 355.419 856.694 356.228C855.585 357.037 855.03 358.041 855.03 359.24ZM860.381 343.234C863.438 343.234 865.851 344.058 867.619 345.707C869.388 347.326 870.272 349.559 870.272 352.406V365.984H866.315V362.927H866.135C864.427 365.445 862.149 366.704 859.301 366.704C856.874 366.704 854.835 365.984 853.187 364.546C851.568 363.107 850.759 361.308 850.759 359.15C850.759 356.872 851.613 355.059 853.322 353.71C855.06 352.361 857.368 351.687 860.246 351.687C862.703 351.687 864.727 352.136 866.315 353.036V352.091C866.315 350.653 865.746 349.439 864.607 348.45C863.468 347.43 862.134 346.921 860.605 346.921C858.297 346.921 856.469 347.895 855.12 349.843L851.478 347.55C853.487 344.673 856.454 343.234 860.381 343.234ZM879.074 365.984H874.937V343.954H878.894V347.55H879.074C879.493 346.381 880.347 345.392 881.636 344.583C882.955 343.744 884.244 343.324 885.503 343.324C886.702 343.324 887.721 343.504 888.56 343.864L887.301 347.865C886.792 347.655 885.983 347.55 884.874 347.55C883.315 347.55 881.951 348.18 880.782 349.439C879.643 350.698 879.074 352.166 879.074 353.845V365.984ZM893.405 359.24C893.405 360.319 893.854 361.218 894.754 361.938C895.683 362.657 896.762 363.017 897.991 363.017C899.729 363.017 901.273 362.372 902.622 361.084C904.001 359.795 904.69 358.281 904.69 356.543C903.401 355.523 901.603 355.014 899.295 355.014C897.616 355.014 896.207 355.419 895.068 356.228C893.959 357.037 893.405 358.041 893.405 359.24ZM898.755 343.234C901.812 343.234 904.225 344.058 905.994 345.707C907.762 347.326 908.646 349.559 908.646 352.406V365.984H904.69V362.927H904.51C902.802 365.445 900.524 366.704 897.676 366.704C895.248 366.704 893.21 365.984 891.561 364.546C889.943 363.107 889.134 361.308 889.134 359.15C889.134 356.872 889.988 355.059 891.696 353.71C893.435 352.361 895.743 351.687 898.62 351.687C901.078 351.687 903.101 352.136 904.69 353.036V352.091C904.69 350.653 904.12 349.439 902.981 348.45C901.842 347.43 900.509 346.921 898.98 346.921C896.672 346.921 894.844 347.895 893.495 349.843L889.853 347.55C891.861 344.673 894.829 343.234 898.755 343.234ZM922.984 362.927C925.022 362.927 926.685 362.193 927.974 360.724C929.323 359.255 929.997 357.337 929.997 354.969C929.997 352.661 929.323 350.758 927.974 349.259C926.655 347.76 924.992 347.011 922.984 347.011C921.005 347.011 919.342 347.76 917.993 349.259C916.644 350.758 915.97 352.661 915.97 354.969C915.97 357.307 916.644 359.21 917.993 360.679C919.342 362.178 921.005 362.927 922.984 362.927ZM922.849 376.415C921.62 376.415 920.466 376.25 919.387 375.921C918.308 375.621 917.319 375.186 916.419 374.617C915.55 374.047 914.801 373.373 914.171 372.593C913.542 371.814 913.062 370.945 912.733 369.986L916.644 368.367C917.094 369.656 917.873 370.69 918.982 371.469C920.091 372.249 921.38 372.638 922.849 372.638C925.097 372.638 926.85 371.964 928.109 370.615C929.368 369.266 929.997 367.408 929.997 365.04V362.927H929.818C929.038 364.096 927.974 365.025 926.625 365.714C925.307 366.374 923.868 366.704 922.309 366.704C919.432 366.704 916.959 365.58 914.891 363.332C912.852 361.024 911.833 358.236 911.833 354.969C911.833 351.702 912.852 348.929 914.891 346.651C916.959 344.373 919.432 343.234 922.309 343.234C923.868 343.234 925.307 343.579 926.625 344.268C927.974 344.928 929.038 345.842 929.818 347.011H929.997V343.954H933.954V365.04C933.954 368.577 932.95 371.35 930.942 373.358C928.903 375.396 926.206 376.415 922.849 376.415ZM958.111 365.984H954.154V362.927H953.974C953.345 364.006 952.371 364.905 951.052 365.625C949.763 366.344 948.414 366.704 947.006 366.704C944.308 366.704 942.225 365.939 940.756 364.411C939.317 362.852 938.598 360.649 938.598 357.801V343.954H942.734V357.532C942.824 361.129 944.638 362.927 948.175 362.927C949.823 362.927 951.202 362.268 952.311 360.949C953.42 359.6 953.974 357.996 953.974 356.138V343.954H958.111V365.984ZM965.939 359.24C965.939 360.319 966.389 361.218 967.288 361.938C968.217 362.657 969.296 363.017 970.525 363.017C972.263 363.017 973.807 362.372 975.156 361.084C976.535 359.795 977.224 358.281 977.224 356.543C975.935 355.523 974.137 355.014 971.829 355.014C970.15 355.014 968.741 355.419 967.602 356.228C966.493 357.037 965.939 358.041 965.939 359.24ZM971.289 343.234C974.347 343.234 976.759 344.058 978.528 345.707C980.296 347.326 981.181 349.559 981.181 352.406V365.984H977.224V362.927H977.044C975.336 365.445 973.058 366.704 970.21 366.704C967.782 366.704 965.744 365.984 964.096 364.546C962.477 363.107 961.668 361.308 961.668 359.15C961.668 356.872 962.522 355.059 964.23 353.71C965.969 352.361 968.277 351.687 971.154 351.687C973.612 351.687 975.635 352.136 977.224 353.036V352.091C977.224 350.653 976.655 349.439 975.516 348.45C974.377 347.43 973.043 346.921 971.514 346.921C969.206 346.921 967.378 347.895 966.029 349.843L962.387 347.55C964.395 344.673 967.363 343.234 971.289 343.234ZM1005.1 343.954L991.297 375.696H987.025L992.151 364.59L983.069 343.954H987.565L994.129 359.78H994.219L1000.6 343.954H1005.1Z" fill="white"/>
</g>
<defs>
<clipPath id="clip0_120_5286">
<rect width="1440" height="500" fill="white"/>
</clipPath>
</defs>
</svg>
