<svg width="264" height="577" viewBox="0 0 264 577" fill="none" xmlns="http://www.w3.org/2000/svg">
<path d="M-24.9018 186.739C-81.0146 186.739 -126.5 232.224 -126.5 288.337C-126.5 344.45 -81.0146 389.935 -24.9018 389.935C31.2109 389.935 76.6961 344.45 76.6961 288.337C76.6961 232.224 31.2109 186.739 -24.9018 186.739ZM-24.9018 378.131C-74.4939 378.131 -114.696 337.929 -114.696 288.337C-114.696 238.745 -74.4939 198.543 -24.9018 198.543C24.6902 198.543 64.8923 238.745 64.8923 288.337C64.8923 337.929 24.6902 378.131 -24.9018 378.131Z" fill="#24568E"/>
<path d="M-25.0717 94.1289C-132.234 94.1289 -219.113 181 -219.113 288.17C-219.113 395.34 -132.242 482.212 -25.0717 482.212C82.0982 482.212 168.969 395.34 168.969 288.17C168.969 181 82.0982 94.1289 -25.0717 94.1289ZM-25.0717 428.156C-102.386 428.156 -165.058 365.485 -165.058 288.17C-165.058 210.856 -102.386 148.184 -25.0717 148.184C52.2428 148.184 114.914 210.856 114.914 288.17C114.914 365.485 52.2428 428.156 -25.0717 428.156Z" fill="#F46969"/>
<path d="M-25.3337 577C-28.8635 577 -32.4464 576.932 -35.9687 576.81C-38.1701 576.734 -39.8931 574.882 -39.8096 572.681C-39.7261 570.479 -37.8815 568.786 -35.6801 568.84C-25.2121 569.219 -14.5771 569.014 -4.18503 568.24C-1.99124 568.05 -0.0783691 569.728 0.088623 571.921C0.255615 574.115 -1.39911 576.028 -3.5929 576.195C-10.774 576.727 -18.0843 577 -25.3337 577ZM-88.5591 569.963C-88.8475 569.963 -89.1437 569.933 -89.4473 569.864C-99.9457 567.481 -110.429 564.475 -120.593 560.93C-122.673 560.201 -123.774 557.931 -123.045 555.851C-122.316 553.771 -120.047 552.678 -117.967 553.399C-108.083 556.853 -97.8961 559.776 -87.6862 562.084C-85.5379 562.569 -84.1867 564.71 -84.6801 566.858C-85.0977 568.711 -86.7448 569.971 -88.5667 569.971L-88.5591 569.963ZM48.5345 567.336C46.7734 567.336 45.164 566.16 44.6858 564.376C44.1165 562.251 45.3768 560.057 47.5098 559.487C57.6287 556.777 67.6867 553.46 77.4183 549.634C79.4679 548.83 81.7832 549.839 82.5879 551.889C83.3925 553.938 82.3829 556.254 80.3333 557.058C70.3208 560.991 59.9742 564.399 49.567 567.192C49.2178 567.283 48.8761 567.329 48.5345 567.329V567.336ZM-167.627 538.984C-168.303 538.984 -168.993 538.81 -169.616 538.445C-178.922 533.071 -188.039 527.097 -196.716 520.697C-198.492 519.392 -198.864 516.894 -197.558 515.118C-196.245 513.349 -193.755 512.97 -191.979 514.275C-183.545 520.5 -174.679 526.307 -165.623 531.537C-163.718 532.638 -163.065 535.082 -164.166 536.988C-164.902 538.271 -166.246 538.984 -167.627 538.984ZM126.327 533.329C124.999 533.329 123.708 532.668 122.949 531.469C121.773 529.602 122.334 527.142 124.194 525.965C133.045 520.394 141.676 514.253 149.852 507.717C151.582 506.343 154.088 506.624 155.462 508.339C156.836 510.062 156.555 512.575 154.839 513.949C146.428 520.667 137.547 526.983 128.453 532.714C127.792 533.131 127.056 533.329 126.327 533.329ZM-234.018 486.052C-235.088 486.052 -236.159 485.627 -236.941 484.777C-244.274 476.89 -251.235 468.509 -257.634 459.863C-258.947 458.094 -258.575 455.589 -256.799 454.284C-255.03 452.97 -252.533 453.342 -251.219 455.119C-245.002 463.522 -238.231 471.675 -231.095 479.342C-229.592 480.958 -229.691 483.479 -231.3 484.982C-232.067 485.695 -233.046 486.052 -234.018 486.052ZM190.646 477.907C189.727 477.907 188.794 477.588 188.042 476.943C186.372 475.508 186.182 472.988 187.625 471.318C194.457 463.385 200.917 454.982 206.815 446.336C208.06 444.514 210.542 444.051 212.356 445.288C214.178 446.533 214.641 449.015 213.404 450.83C207.338 459.719 200.696 468.357 193.675 476.518C192.885 477.436 191.769 477.907 190.653 477.907H190.646ZM-281.955 415.979C-283.436 415.979 -284.863 415.152 -285.553 413.725C-290.237 404.039 -294.42 393.973 -297.988 383.816C-298.716 381.736 -297.623 379.459 -295.543 378.73C-293.463 378.001 -291.186 379.095 -290.457 381.175C-286.988 391.05 -282.927 400.835 -278.372 410.256C-277.416 412.237 -278.243 414.628 -280.224 415.585C-280.786 415.858 -281.378 415.987 -281.955 415.987V415.979ZM235.858 406.035C235.327 406.035 234.787 405.929 234.264 405.701C232.245 404.821 231.326 402.467 232.207 400.448C236.397 390.846 240.086 380.909 243.168 370.911C243.813 368.809 246.045 367.617 248.155 368.27C250.266 368.923 251.442 371.154 250.797 373.257C247.632 383.543 243.836 393.76 239.524 403.636C238.872 405.139 237.399 406.027 235.866 406.027L235.858 406.035ZM-307.036 334.869C-308.979 334.869 -310.68 333.45 -310.976 331.476C-312.57 320.864 -313.587 310.016 -313.997 299.237C-314.081 297.036 -312.365 295.184 -310.164 295.1C-307.993 295.039 -306.11 296.732 -306.027 298.934C-305.632 309.417 -304.645 319.968 -303.089 330.285C-302.762 332.463 -304.258 334.498 -306.444 334.824C-306.649 334.854 -306.846 334.869 -307.044 334.869H-307.036ZM257.796 324.007C257.644 324.007 257.5 323.999 257.348 323.984C255.162 323.741 253.583 321.767 253.826 319.581C254.98 309.219 255.564 298.645 255.564 288.132V287.509C255.564 285.308 257.348 283.516 259.549 283.516C261.751 283.516 263.542 285.3 263.542 287.509V288.086C263.542 298.934 262.943 309.811 261.759 320.462C261.531 322.504 259.8 324.007 257.796 324.007ZM-307.112 249.964C-307.309 249.964 -307.507 249.949 -307.704 249.918C-309.883 249.592 -311.386 247.565 -311.067 245.387C-309.488 234.729 -307.279 224.056 -304.516 213.664C-303.954 211.531 -301.775 210.263 -299.635 210.832C-297.509 211.402 -296.242 213.588 -296.803 215.713C-299.491 225.817 -301.631 236.194 -303.172 246.556C-303.468 248.537 -305.169 249.956 -307.112 249.956V249.964ZM254.524 238.547C252.649 238.547 250.972 237.211 250.607 235.298C248.649 225.005 246.083 214.726 242.986 204.744C242.333 202.642 243.51 200.402 245.612 199.749C247.723 199.097 249.954 200.273 250.607 202.376C253.788 212.639 256.43 223.213 258.449 233.803C258.859 235.966 257.439 238.054 255.276 238.471C255.025 238.517 254.775 238.54 254.524 238.54V238.547ZM-282.213 168.793C-282.79 168.793 -283.382 168.664 -283.937 168.399C-285.925 167.442 -286.76 165.059 -285.804 163.077C-281.143 153.384 -275.875 143.842 -270.144 134.717C-268.967 132.85 -266.515 132.288 -264.64 133.457C-262.773 134.626 -262.211 137.093 -263.38 138.961C-268.952 147.835 -274.076 157.111 -278.608 166.531C-279.298 167.958 -280.718 168.793 -282.206 168.793H-282.213ZM226.331 158.47C224.904 158.47 223.523 157.703 222.809 156.352C217.898 147.129 212.409 138.072 206.481 129.434C205.236 127.612 205.699 125.13 207.513 123.885C209.327 122.64 211.81 123.103 213.062 124.917C219.15 133.799 224.805 143.113 229.854 152.602C230.886 154.545 230.149 156.966 228.206 157.999C227.606 158.318 226.969 158.47 226.331 158.47ZM-234.413 98.6067C-235.384 98.6067 -236.356 98.2576 -237.123 97.5441C-238.74 96.0486 -238.838 93.5209 -237.343 91.904C-230.025 84.0018 -222.191 76.4334 -214.046 69.4041C-212.384 67.9619 -209.864 68.1517 -208.421 69.8141C-206.979 71.4841 -207.169 74.0043 -208.831 75.4391C-216.749 82.2786 -224.37 89.6342 -231.483 97.3239C-232.272 98.1741 -233.335 98.6067 -234.413 98.6067ZM175.737 90.2946C174.72 90.2946 173.703 89.9075 172.921 89.1332C165.504 81.7395 157.587 74.6951 149.404 68.182C147.681 66.808 147.392 64.303 148.766 62.5798C150.14 60.8567 152.645 60.5682 154.368 61.9422C162.787 68.6375 170.924 75.8869 178.553 83.4855C180.117 85.0417 180.117 87.5694 178.561 89.1256C177.779 89.9074 176.762 90.3022 175.737 90.3022V90.2946ZM-168.12 45.5457C-169.494 45.5457 -170.838 44.8321 -171.574 43.5568C-172.683 41.6515 -172.03 39.2071 -170.125 38.1064C-160.818 32.7016 -151.102 27.7751 -141.256 23.4558C-139.237 22.5677 -136.883 23.4862 -136.003 25.5054C-135.115 27.5246 -136.033 29.8778 -138.053 30.7584C-147.625 34.9562 -157.068 39.7537 -166.124 45.0067C-166.754 45.3711 -167.445 45.5457 -168.12 45.5457ZM107.357 39.9511C106.727 39.9511 106.097 39.7993 105.505 39.488C96.2289 34.5994 86.5959 30.189 76.8566 26.3859C74.807 25.5813 73.7899 23.2736 74.5945 21.2164C75.3992 19.1593 77.7144 18.1497 79.764 18.9543C89.7766 22.8637 99.6903 27.4031 109.232 32.4284C111.183 33.4531 111.927 35.8671 110.902 37.818C110.189 39.1768 108.8 39.9511 107.365 39.9511H107.357ZM-89.1664 14.4073C-90.9882 14.4073 -92.628 13.1548 -93.0531 11.3026C-93.5465 9.15436 -92.2029 7.01365 -90.0546 6.52024C-79.579 4.12148 -68.8377 2.29202 -58.1268 1.08505C-55.9482 0.834544 -53.9669 2.41348 -53.7164 4.59969C-53.4659 6.7859 -55.0449 8.7672 -57.2311 9.01011C-67.646 10.1867 -78.0911 11.963 -88.2707 14.2934C-88.5667 14.3617 -88.8703 14.3921 -89.1664 14.3921V14.4073ZM27.1659 12.0541C26.923 12.0541 26.6801 12.0314 26.4296 11.9858C16.1665 10.0729 5.66046 8.72165 -4.79996 7.96255C-7.00134 7.80314 -8.6485 5.89021 -8.48907 3.6964C-8.32965 1.5026 -6.40924 -0.121864 -4.22302 0.00718291C6.53345 0.781466 17.3431 2.17817 27.8946 4.14425C30.058 4.54657 31.4927 6.6341 31.0828 8.79754C30.726 10.7181 29.0485 12.0541 27.1659 12.0541Z" fill="#24568E"/>
</svg>
