<svg width="512" height="518" viewBox="0 0 512 518" fill="none" xmlns="http://www.w3.org/2000/svg">
<path d="M504.401 378.957C508.598 378.957 512.001 375.554 512.001 371.357C512.001 367.159 508.598 363.756 504.401 363.756C500.203 363.756 496.801 367.159 496.801 371.357C496.801 375.554 500.203 378.957 504.401 378.957Z" fill="#CFCFCF" fill-opacity="0.5"/>
<path d="M504.401 424.123C508.598 424.123 512.001 420.72 512.001 416.523C512.001 412.325 508.598 408.922 504.401 408.922C500.203 408.922 496.801 412.325 496.801 416.523C496.801 420.72 500.203 424.123 504.401 424.123Z" fill="#CFCFCF" fill-opacity="0.5"/>
<path d="M504.401 469.289C508.598 469.289 512.001 465.886 512.001 461.688C512.001 457.491 508.598 454.088 504.401 454.088C500.203 454.088 496.801 457.491 496.801 461.688C496.801 465.886 500.203 469.289 504.401 469.289Z" fill="#CFCFCF" fill-opacity="0.5"/>
<path d="M504.401 514.454C508.598 514.454 512.001 511.051 512.001 506.853C512.001 502.656 508.598 499.253 504.401 499.253C500.203 499.253 496.801 502.656 496.801 506.853C496.801 511.051 500.203 514.454 504.401 514.454Z" fill="#CFCFCF" fill-opacity="0.5"/>
<path d="M504.401 198.301C508.598 198.301 512.001 194.898 512.001 190.7C512.001 186.503 508.598 183.1 504.401 183.1C500.203 183.1 496.801 186.503 496.801 190.7C496.801 194.898 500.203 198.301 504.401 198.301Z" fill="#CFCFCF" fill-opacity="0.5"/>
<path d="M504.401 243.466C508.598 243.466 512.001 240.064 512.001 235.866C512.001 231.668 508.598 228.266 504.401 228.266C500.203 228.266 496.801 231.668 496.801 235.866C496.801 240.064 500.203 243.466 504.401 243.466Z" fill="#CFCFCF" fill-opacity="0.5"/>
<path d="M504.401 288.632C508.598 288.632 512.001 285.229 512.001 281.031C512.001 276.834 508.598 273.431 504.401 273.431C500.203 273.431 496.801 276.834 496.801 281.031C496.801 285.229 500.203 288.632 504.401 288.632Z" fill="#CFCFCF" fill-opacity="0.5"/>
<path d="M504.401 333.792C508.598 333.792 512.001 330.39 512.001 326.192C512.001 321.995 508.598 318.592 504.401 318.592C500.203 318.592 496.801 321.995 496.801 326.192C496.801 330.39 500.203 333.792 504.401 333.792Z" fill="#CFCFCF" fill-opacity="0.5"/>
<path d="M504.401 17.6455C508.598 17.6455 512.001 14.2427 512.001 10.0451C512.001 5.8476 508.598 2.44482 504.401 2.44482C500.203 2.44482 496.801 5.8476 496.801 10.0451C496.801 14.2427 500.203 17.6455 504.401 17.6455Z" fill="#CFCFCF" fill-opacity="0.5"/>
<path d="M504.401 62.8051C508.598 62.8051 512.001 59.4023 512.001 55.2048C512.001 51.0073 508.598 47.6045 504.401 47.6045C500.203 47.6045 496.801 51.0073 496.801 55.2048C496.801 59.4023 500.203 62.8051 504.401 62.8051Z" fill="#CFCFCF" fill-opacity="0.5"/>
<path d="M504.401 107.97C508.598 107.97 512.001 104.567 512.001 100.369C512.001 96.1718 508.598 92.769 504.401 92.769C500.203 92.769 496.801 96.1718 496.801 100.369C496.801 104.567 500.203 107.97 504.401 107.97Z" fill="#CFCFCF" fill-opacity="0.5"/>
<path d="M504.401 153.136C508.598 153.136 512.001 149.733 512.001 145.535C512.001 141.338 508.598 137.935 504.401 137.935C500.203 137.935 496.801 141.338 496.801 145.535C496.801 149.733 500.203 153.136 504.401 153.136Z" fill="#CFCFCF" fill-opacity="0.5"/>
<path d="M459.233 378.957C463.43 378.957 466.833 375.554 466.833 371.357C466.833 367.159 463.43 363.756 459.233 363.756C455.035 363.756 451.633 367.159 451.633 371.357C451.633 375.554 455.035 378.957 459.233 378.957Z" fill="#CFCFCF" fill-opacity="0.5"/>
<path d="M459.233 424.123C463.43 424.123 466.833 420.72 466.833 416.523C466.833 412.325 463.43 408.922 459.233 408.922C455.035 408.922 451.633 412.325 451.633 416.523C451.633 420.72 455.035 424.123 459.233 424.123Z" fill="#CFCFCF" fill-opacity="0.5"/>
<path d="M459.233 469.289C463.43 469.289 466.833 465.886 466.833 461.688C466.833 457.491 463.43 454.088 459.233 454.088C455.035 454.088 451.633 457.491 451.633 461.688C451.633 465.886 455.035 469.289 459.233 469.289Z" fill="#CFCFCF" fill-opacity="0.5"/>
<path d="M459.233 514.454C463.43 514.454 466.833 511.051 466.833 506.853C466.833 502.656 463.43 499.253 459.233 499.253C455.035 499.253 451.633 502.656 451.633 506.853C451.633 511.051 455.035 514.454 459.233 514.454Z" fill="#CFCFCF" fill-opacity="0.5"/>
<path d="M459.233 198.301C463.43 198.301 466.833 194.898 466.833 190.7C466.833 186.503 463.43 183.1 459.233 183.1C455.035 183.1 451.633 186.503 451.633 190.7C451.633 194.898 455.035 198.301 459.233 198.301Z" fill="#CFCFCF" fill-opacity="0.5"/>
<path d="M459.233 243.466C463.43 243.466 466.833 240.064 466.833 235.866C466.833 231.668 463.43 228.266 459.233 228.266C455.035 228.266 451.633 231.668 451.633 235.866C451.633 240.064 455.035 243.466 459.233 243.466Z" fill="#CFCFCF" fill-opacity="0.5"/>
<path d="M459.233 288.632C463.43 288.632 466.833 285.229 466.833 281.031C466.833 276.834 463.43 273.431 459.233 273.431C455.035 273.431 451.633 276.834 451.633 281.031C451.633 285.229 455.035 288.632 459.233 288.632Z" fill="#CFCFCF" fill-opacity="0.5"/>
<path d="M459.233 333.792C463.43 333.792 466.833 330.39 466.833 326.192C466.833 321.995 463.43 318.592 459.233 318.592C455.035 318.592 451.633 321.995 451.633 326.192C451.633 330.39 455.035 333.792 459.233 333.792Z" fill="#CFCFCF" fill-opacity="0.5"/>
<path d="M459.233 17.6455C463.43 17.6455 466.833 14.2427 466.833 10.0451C466.833 5.8476 463.43 2.44482 459.233 2.44482C455.035 2.44482 451.633 5.8476 451.633 10.0451C451.633 14.2427 455.035 17.6455 459.233 17.6455Z" fill="#CFCFCF" fill-opacity="0.5"/>
<path d="M459.233 62.8051C463.43 62.8051 466.833 59.4023 466.833 55.2048C466.833 51.0073 463.43 47.6045 459.233 47.6045C455.035 47.6045 451.633 51.0073 451.633 55.2048C451.633 59.4023 455.035 62.8051 459.233 62.8051Z" fill="#CFCFCF" fill-opacity="0.5"/>
<path d="M459.233 107.97C463.43 107.97 466.833 104.567 466.833 100.369C466.833 96.1718 463.43 92.769 459.233 92.769C455.035 92.769 451.633 96.1718 451.633 100.369C451.633 104.567 455.035 107.97 459.233 107.97Z" fill="#CFCFCF" fill-opacity="0.5"/>
<path d="M459.233 153.136C463.43 153.136 466.833 149.733 466.833 145.535C466.833 141.338 463.43 137.935 459.233 137.935C455.035 137.935 451.633 141.338 451.633 145.535C451.633 149.733 455.035 153.136 459.233 153.136Z" fill="#CFCFCF" fill-opacity="0.5"/>
<path d="M414.069 378.957C418.267 378.957 421.67 375.554 421.67 371.357C421.67 367.159 418.267 363.756 414.069 363.756C409.872 363.756 406.469 367.159 406.469 371.357C406.469 375.554 409.872 378.957 414.069 378.957Z" fill="#CFCFCF" fill-opacity="0.5"/>
<path d="M414.069 424.122C418.267 424.122 421.67 420.72 421.67 416.522C421.67 412.325 418.267 408.922 414.069 408.922C409.872 408.922 406.469 412.325 406.469 416.522C406.469 420.72 409.872 424.122 414.069 424.122Z" fill="#CFCFCF" fill-opacity="0.5"/>
<path d="M414.069 469.288C418.267 469.288 421.67 465.885 421.67 461.688C421.67 457.49 418.267 454.087 414.069 454.087C409.872 454.087 406.469 457.49 406.469 461.688C406.469 465.885 409.872 469.288 414.069 469.288Z" fill="#CFCFCF" fill-opacity="0.5"/>
<path d="M414.069 514.454C418.267 514.454 421.67 511.051 421.67 506.853C421.67 502.656 418.267 499.253 414.069 499.253C409.872 499.253 406.469 502.656 406.469 506.853C406.469 511.051 409.872 514.454 414.069 514.454Z" fill="#CFCFCF" fill-opacity="0.5"/>
<path d="M414.069 198.3C418.267 198.3 421.67 194.897 421.67 190.7C421.67 186.502 418.267 183.1 414.069 183.1C409.872 183.1 406.469 186.502 406.469 190.7C406.469 194.897 409.872 198.3 414.069 198.3Z" fill="#CFCFCF" fill-opacity="0.5"/>
<path d="M414.069 243.466C418.267 243.466 421.67 240.064 421.67 235.866C421.67 231.668 418.267 228.266 414.069 228.266C409.872 228.266 406.469 231.668 406.469 235.866C406.469 240.064 409.872 243.466 414.069 243.466Z" fill="#CFCFCF" fill-opacity="0.5"/>
<path d="M414.069 288.632C418.267 288.632 421.67 285.229 421.67 281.031C421.67 276.834 418.267 273.431 414.069 273.431C409.872 273.431 406.469 276.834 406.469 281.031C406.469 285.229 409.872 288.632 414.069 288.632Z" fill="#CFCFCF" fill-opacity="0.5"/>
<path d="M414.069 333.792C418.267 333.792 421.67 330.389 421.67 326.192C421.67 321.994 418.267 318.591 414.069 318.591C409.872 318.591 406.469 321.994 406.469 326.192C406.469 330.389 409.872 333.792 414.069 333.792Z" fill="#CFCFCF" fill-opacity="0.5"/>
<path d="M414.069 17.6455C418.267 17.6455 421.67 14.2427 421.67 10.0451C421.67 5.8476 418.267 2.44482 414.069 2.44482C409.872 2.44482 406.469 5.8476 406.469 10.0451C406.469 14.2427 409.872 17.6455 414.069 17.6455Z" fill="#CFCFCF" fill-opacity="0.5"/>
<path d="M414.069 62.8056C418.267 62.8056 421.67 59.4028 421.67 55.2053C421.67 51.0077 418.267 47.605 414.069 47.605C409.872 47.605 406.469 51.0077 406.469 55.2053C406.469 59.4028 409.872 62.8056 414.069 62.8056Z" fill="#CFCFCF" fill-opacity="0.5"/>
<path d="M414.069 107.97C418.267 107.97 421.67 104.567 421.67 100.369C421.67 96.1718 418.267 92.769 414.069 92.769C409.872 92.769 406.469 96.1718 406.469 100.369C406.469 104.567 409.872 107.97 414.069 107.97Z" fill="#CFCFCF" fill-opacity="0.5"/>
<path d="M414.069 153.136C418.267 153.136 421.67 149.733 421.67 145.535C421.67 141.338 418.267 137.935 414.069 137.935C409.872 137.935 406.469 141.338 406.469 145.535C406.469 149.733 409.872 153.136 414.069 153.136Z" fill="#CFCFCF" fill-opacity="0.5"/>
<path d="M368.901 378.957C373.099 378.957 376.502 375.554 376.502 371.357C376.502 367.159 373.099 363.756 368.901 363.756C364.704 363.756 361.301 367.159 361.301 371.357C361.301 375.554 364.704 378.957 368.901 378.957Z" fill="#CFCFCF" fill-opacity="0.5"/>
<path d="M368.901 424.122C373.099 424.122 376.502 420.72 376.502 416.522C376.502 412.325 373.099 408.922 368.901 408.922C364.704 408.922 361.301 412.325 361.301 416.522C361.301 420.72 364.704 424.122 368.901 424.122Z" fill="#CFCFCF" fill-opacity="0.5"/>
<path d="M368.901 469.288C373.099 469.288 376.502 465.885 376.502 461.688C376.502 457.49 373.099 454.087 368.901 454.087C364.704 454.087 361.301 457.49 361.301 461.688C361.301 465.885 364.704 469.288 368.901 469.288Z" fill="#CFCFCF" fill-opacity="0.5"/>
<path d="M368.901 514.454C373.099 514.454 376.502 511.051 376.502 506.853C376.502 502.656 373.099 499.253 368.901 499.253C364.704 499.253 361.301 502.656 361.301 506.853C361.301 511.051 364.704 514.454 368.901 514.454Z" fill="#CFCFCF" fill-opacity="0.5"/>
<path d="M368.901 198.3C373.099 198.3 376.502 194.897 376.502 190.7C376.502 186.502 373.099 183.1 368.901 183.1C364.704 183.1 361.301 186.502 361.301 190.7C361.301 194.897 364.704 198.3 368.901 198.3Z" fill="#CFCFCF" fill-opacity="0.5"/>
<path d="M368.901 243.466C373.099 243.466 376.502 240.064 376.502 235.866C376.502 231.668 373.099 228.266 368.901 228.266C364.704 228.266 361.301 231.668 361.301 235.866C361.301 240.064 364.704 243.466 368.901 243.466Z" fill="#CFCFCF" fill-opacity="0.5"/>
<path d="M368.901 288.632C373.099 288.632 376.502 285.229 376.502 281.031C376.502 276.834 373.099 273.431 368.901 273.431C364.704 273.431 361.301 276.834 361.301 281.031C361.301 285.229 364.704 288.632 368.901 288.632Z" fill="#CFCFCF" fill-opacity="0.5"/>
<path d="M368.901 333.792C373.099 333.792 376.502 330.389 376.502 326.192C376.502 321.994 373.099 318.591 368.901 318.591C364.704 318.591 361.301 321.994 361.301 326.192C361.301 330.389 364.704 333.792 368.901 333.792Z" fill="#CFCFCF" fill-opacity="0.5"/>
<path d="M368.905 17.6455C373.103 17.6455 376.506 14.2427 376.506 10.0451C376.506 5.8476 373.103 2.44482 368.905 2.44482C364.708 2.44482 361.305 5.8476 361.305 10.0451C361.305 14.2427 364.708 17.6455 368.905 17.6455Z" fill="#CFCFCF" fill-opacity="0.5"/>
<path d="M368.905 62.8056C373.103 62.8056 376.506 59.4028 376.506 55.2053C376.506 51.0077 373.103 47.605 368.905 47.605C364.708 47.605 361.305 51.0077 361.305 55.2053C361.305 59.4028 364.708 62.8056 368.905 62.8056Z" fill="#CFCFCF" fill-opacity="0.5"/>
<path d="M368.901 107.97C373.099 107.97 376.502 104.567 376.502 100.369C376.502 96.1718 373.099 92.769 368.901 92.769C364.704 92.769 361.301 96.1718 361.301 100.369C361.301 104.567 364.704 107.97 368.901 107.97Z" fill="#CFCFCF" fill-opacity="0.5"/>
<path d="M368.901 153.136C373.099 153.136 376.502 149.733 376.502 145.535C376.502 141.338 373.099 137.935 368.901 137.935C364.704 137.935 361.301 141.338 361.301 145.535C361.301 149.733 364.704 153.136 368.901 153.136Z" fill="#CFCFCF" fill-opacity="0.5"/>
<path d="M323.745 378.957C327.942 378.957 331.345 375.554 331.345 371.357C331.345 367.159 327.942 363.756 323.745 363.756C319.547 363.756 316.145 367.159 316.145 371.357C316.145 375.554 319.547 378.957 323.745 378.957Z" fill="#CFCFCF" fill-opacity="0.5"/>
<path d="M323.745 424.122C327.942 424.122 331.345 420.72 331.345 416.522C331.345 412.325 327.942 408.922 323.745 408.922C319.547 408.922 316.145 412.325 316.145 416.522C316.145 420.72 319.547 424.122 323.745 424.122Z" fill="#CFCFCF" fill-opacity="0.5"/>
<path d="M323.745 469.288C327.942 469.288 331.345 465.885 331.345 461.688C331.345 457.49 327.942 454.087 323.745 454.087C319.547 454.087 316.145 457.49 316.145 461.688C316.145 465.885 319.547 469.288 323.745 469.288Z" fill="#CFCFCF" fill-opacity="0.5"/>
<path d="M323.745 514.454C327.942 514.454 331.345 511.051 331.345 506.853C331.345 502.656 327.942 499.253 323.745 499.253C319.547 499.253 316.145 502.656 316.145 506.853C316.145 511.051 319.547 514.454 323.745 514.454Z" fill="#CFCFCF" fill-opacity="0.5"/>
<path d="M323.745 198.3C327.942 198.3 331.345 194.897 331.345 190.7C331.345 186.502 327.942 183.1 323.745 183.1C319.547 183.1 316.145 186.502 316.145 190.7C316.145 194.897 319.547 198.3 323.745 198.3Z" fill="#CFCFCF" fill-opacity="0.5"/>
<path d="M323.745 243.466C327.942 243.466 331.345 240.064 331.345 235.866C331.345 231.668 327.942 228.266 323.745 228.266C319.547 228.266 316.145 231.668 316.145 235.866C316.145 240.064 319.547 243.466 323.745 243.466Z" fill="#CFCFCF" fill-opacity="0.5"/>
<path d="M323.745 288.632C327.942 288.632 331.345 285.229 331.345 281.031C331.345 276.834 327.942 273.431 323.745 273.431C319.547 273.431 316.145 276.834 316.145 281.031C316.145 285.229 319.547 288.632 323.745 288.632Z" fill="#CFCFCF" fill-opacity="0.5"/>
<path d="M323.745 333.792C327.942 333.792 331.345 330.389 331.345 326.192C331.345 321.994 327.942 318.591 323.745 318.591C319.547 318.591 316.145 321.994 316.145 326.192C316.145 330.389 319.547 333.792 323.745 333.792Z" fill="#CFCFCF" fill-opacity="0.5"/>
<path d="M323.745 17.6455C327.942 17.6455 331.345 14.2427 331.345 10.0451C331.345 5.8476 327.942 2.44482 323.745 2.44482C319.547 2.44482 316.145 5.8476 316.145 10.0451C316.145 14.2427 319.547 17.6455 323.745 17.6455Z" fill="#CFCFCF" fill-opacity="0.5"/>
<path d="M323.745 62.8056C327.942 62.8056 331.345 59.4028 331.345 55.2053C331.345 51.0077 327.942 47.605 323.745 47.605C319.547 47.605 316.145 51.0077 316.145 55.2053C316.145 59.4028 319.547 62.8056 323.745 62.8056Z" fill="#CFCFCF" fill-opacity="0.5"/>
<path d="M323.745 107.97C327.942 107.97 331.345 104.567 331.345 100.369C331.345 96.1718 327.942 92.769 323.745 92.769C319.547 92.769 316.145 96.1718 316.145 100.369C316.145 104.567 319.547 107.97 323.745 107.97Z" fill="#CFCFCF" fill-opacity="0.5"/>
<path d="M323.745 153.136C327.942 153.136 331.345 149.733 331.345 145.535C331.345 141.338 327.942 137.935 323.745 137.935C319.547 137.935 316.145 141.338 316.145 145.535C316.145 149.733 319.547 153.136 323.745 153.136Z" fill="#CFCFCF" fill-opacity="0.5"/>
<path d="M278.577 378.957C282.774 378.957 286.177 375.554 286.177 371.357C286.177 367.159 282.774 363.756 278.577 363.756C274.379 363.756 270.977 367.159 270.977 371.357C270.977 375.554 274.379 378.957 278.577 378.957Z" fill="#CFCFCF" fill-opacity="0.5"/>
<path d="M278.577 424.122C282.774 424.122 286.177 420.72 286.177 416.522C286.177 412.325 282.774 408.922 278.577 408.922C274.379 408.922 270.977 412.325 270.977 416.522C270.977 420.72 274.379 424.122 278.577 424.122Z" fill="#CFCFCF" fill-opacity="0.5"/>
<path d="M278.577 469.288C282.774 469.288 286.177 465.885 286.177 461.688C286.177 457.49 282.774 454.087 278.577 454.087C274.379 454.087 270.977 457.49 270.977 461.688C270.977 465.885 274.379 469.288 278.577 469.288Z" fill="#CFCFCF" fill-opacity="0.5"/>
<path d="M278.577 514.454C282.774 514.454 286.177 511.051 286.177 506.853C286.177 502.656 282.774 499.253 278.577 499.253C274.379 499.253 270.977 502.656 270.977 506.853C270.977 511.051 274.379 514.454 278.577 514.454Z" fill="#CFCFCF" fill-opacity="0.5"/>
<path d="M278.577 198.3C282.774 198.3 286.177 194.897 286.177 190.7C286.177 186.502 282.774 183.1 278.577 183.1C274.379 183.1 270.977 186.502 270.977 190.7C270.977 194.897 274.379 198.3 278.577 198.3Z" fill="#CFCFCF" fill-opacity="0.5"/>
<path d="M278.577 243.466C282.774 243.466 286.177 240.064 286.177 235.866C286.177 231.668 282.774 228.266 278.577 228.266C274.379 228.266 270.977 231.668 270.977 235.866C270.977 240.064 274.379 243.466 278.577 243.466Z" fill="#CFCFCF" fill-opacity="0.5"/>
<path d="M278.577 288.632C282.774 288.632 286.177 285.229 286.177 281.031C286.177 276.834 282.774 273.431 278.577 273.431C274.379 273.431 270.977 276.834 270.977 281.031C270.977 285.229 274.379 288.632 278.577 288.632Z" fill="#CFCFCF" fill-opacity="0.5"/>
<path d="M278.577 333.792C282.774 333.792 286.177 330.389 286.177 326.192C286.177 321.994 282.774 318.591 278.577 318.591C274.379 318.591 270.977 321.994 270.977 326.192C270.977 330.389 274.379 333.792 278.577 333.792Z" fill="#CFCFCF" fill-opacity="0.5"/>
<path d="M278.577 17.6455C282.774 17.6455 286.177 14.2427 286.177 10.0451C286.177 5.8476 282.774 2.44482 278.577 2.44482C274.379 2.44482 270.977 5.8476 270.977 10.0451C270.977 14.2427 274.379 17.6455 278.577 17.6455Z" fill="#CFCFCF" fill-opacity="0.5"/>
<path d="M278.577 62.8056C282.774 62.8056 286.177 59.4028 286.177 55.2053C286.177 51.0077 282.774 47.605 278.577 47.605C274.379 47.605 270.977 51.0077 270.977 55.2053C270.977 59.4028 274.379 62.8056 278.577 62.8056Z" fill="#CFCFCF" fill-opacity="0.5"/>
<path d="M278.577 107.97C282.774 107.97 286.177 104.567 286.177 100.369C286.177 96.1718 282.774 92.769 278.577 92.769C274.379 92.769 270.977 96.1718 270.977 100.369C270.977 104.567 274.379 107.97 278.577 107.97Z" fill="#CFCFCF" fill-opacity="0.5"/>
<path d="M278.577 153.136C282.774 153.136 286.177 149.733 286.177 145.535C286.177 141.338 282.774 137.935 278.577 137.935C274.379 137.935 270.977 141.338 270.977 145.535C270.977 149.733 274.379 153.136 278.577 153.136Z" fill="#CFCFCF" fill-opacity="0.5"/>
<path d="M236.278 378.254C240.162 376.66 242.018 372.22 240.425 368.337C238.831 364.454 234.391 362.597 230.508 364.191C226.625 365.784 224.768 370.224 226.362 374.108C227.955 377.991 232.395 379.847 236.278 378.254Z" fill="#CFCFCF" fill-opacity="0.5"/>
<path d="M236.319 423.545C240.197 421.938 242.039 417.492 240.433 413.614C238.826 409.736 234.38 407.895 230.502 409.501C226.624 411.107 224.783 415.553 226.389 419.431C227.995 423.309 232.441 425.151 236.319 423.545Z" fill="#CFCFCF" fill-opacity="0.5"/>
<path d="M236.323 468.712C240.201 467.106 242.043 462.66 240.437 458.782C238.83 454.904 234.384 453.062 230.506 454.669C226.628 456.275 224.787 460.721 226.393 464.599C227.999 468.477 232.445 470.319 236.323 468.712Z" fill="#CFCFCF" fill-opacity="0.5"/>
<path d="M238.787 512.228C241.755 509.26 241.755 504.448 238.787 501.48C235.819 498.511 231.006 498.512 228.038 501.48C225.07 504.448 225.07 509.26 228.038 512.228C231.006 515.196 235.819 515.196 238.787 512.228Z" fill="#CFCFCF" fill-opacity="0.5"/>
<path d="M236.271 197.603C240.154 196.01 242.01 191.57 240.417 187.687C238.823 183.803 234.384 181.947 230.5 183.541C226.617 185.134 224.761 189.574 226.354 193.457C227.947 197.341 232.387 199.197 236.271 197.603Z" fill="#CFCFCF" fill-opacity="0.5"/>
<path d="M236.271 242.765C240.154 241.172 242.01 236.732 240.417 232.849C238.823 228.965 234.384 227.109 230.5 228.703C226.617 230.296 224.761 234.736 226.354 238.619C227.947 242.503 232.387 244.359 236.271 242.765Z" fill="#CFCFCF" fill-opacity="0.5"/>
<path d="M236.271 287.928C240.154 286.335 242.01 281.895 240.417 278.011C238.823 274.128 234.384 272.272 230.5 273.865C226.617 275.459 224.761 279.899 226.354 283.782C227.947 287.665 232.387 289.521 236.271 287.928Z" fill="#CFCFCF" fill-opacity="0.5"/>
<path d="M236.275 333.091C240.158 331.498 242.014 327.058 240.421 323.174C238.827 319.291 234.387 317.435 230.504 319.028C226.621 320.622 224.764 325.062 226.358 328.945C227.951 332.828 232.391 334.685 236.275 333.091Z" fill="#CFCFCF" fill-opacity="0.5"/>
<path d="M236.263 16.948C240.146 15.3546 242.003 10.9147 240.409 7.0314C238.816 3.14807 234.376 1.2918 230.492 2.88526C226.609 4.47872 224.753 8.91857 226.346 12.8019C227.94 16.6852 232.38 18.5415 236.263 16.948Z" fill="#CFCFCF" fill-opacity="0.5"/>
<path d="M236.259 62.1057C240.142 60.5123 241.999 56.0724 240.405 52.1891C238.812 48.3058 234.372 46.4495 230.488 48.043C226.605 49.6364 224.749 54.0763 226.342 57.9596C227.936 61.8429 232.376 63.6992 236.259 62.1057Z" fill="#CFCFCF" fill-opacity="0.5"/>
<path d="M236.263 107.272C240.146 105.679 242.003 101.239 240.409 97.3556C238.816 93.4723 234.376 91.616 230.492 93.2095C226.609 94.8029 224.753 99.2428 226.346 103.126C227.94 107.009 232.38 108.866 236.263 107.272Z" fill="#CFCFCF" fill-opacity="0.5"/>
<path d="M237.157 152.158C240.81 150.091 242.095 145.453 240.027 141.8C237.96 138.147 233.322 136.862 229.669 138.93C226.016 140.997 224.731 145.635 226.798 149.288C228.866 152.941 233.504 154.226 237.157 152.158Z" fill="#CFCFCF" fill-opacity="0.5"/>
<path d="M188.245 378.957C192.442 378.957 195.845 375.554 195.845 371.357C195.845 367.159 192.442 363.756 188.245 363.756C184.047 363.756 180.645 367.159 180.645 371.357C180.645 375.554 184.047 378.957 188.245 378.957Z" fill="#CFCFCF" fill-opacity="0.5"/>
<path d="M188.245 424.122C192.442 424.122 195.845 420.72 195.845 416.522C195.845 412.325 192.442 408.922 188.245 408.922C184.047 408.922 180.645 412.325 180.645 416.522C180.645 420.72 184.047 424.122 188.245 424.122Z" fill="#CFCFCF" fill-opacity="0.5"/>
<path d="M188.245 469.288C192.442 469.288 195.845 465.885 195.845 461.688C195.845 457.49 192.442 454.087 188.245 454.087C184.047 454.087 180.645 457.49 180.645 461.688C180.645 465.885 184.047 469.288 188.245 469.288Z" fill="#CFCFCF" fill-opacity="0.5"/>
<path d="M188.245 514.454C192.442 514.454 195.845 511.051 195.845 506.853C195.845 502.656 192.442 499.253 188.245 499.253C184.047 499.253 180.645 502.656 180.645 506.853C180.645 511.051 184.047 514.454 188.245 514.454Z" fill="#CFCFCF" fill-opacity="0.5"/>
<path d="M188.245 198.3C192.442 198.3 195.845 194.897 195.845 190.7C195.845 186.502 192.442 183.1 188.245 183.1C184.047 183.1 180.645 186.502 180.645 190.7C180.645 194.897 184.047 198.3 188.245 198.3Z" fill="#CFCFCF" fill-opacity="0.5"/>
<path d="M188.245 243.466C192.442 243.466 195.845 240.064 195.845 235.866C195.845 231.668 192.442 228.266 188.245 228.266C184.047 228.266 180.645 231.668 180.645 235.866C180.645 240.064 184.047 243.466 188.245 243.466Z" fill="#CFCFCF" fill-opacity="0.5"/>
<path d="M188.245 288.632C192.442 288.632 195.845 285.229 195.845 281.031C195.845 276.834 192.442 273.431 188.245 273.431C184.047 273.431 180.645 276.834 180.645 281.031C180.645 285.229 184.047 288.632 188.245 288.632Z" fill="#CFCFCF" fill-opacity="0.5"/>
<path d="M188.245 333.792C192.442 333.792 195.845 330.389 195.845 326.192C195.845 321.994 192.442 318.591 188.245 318.591C184.047 318.591 180.645 321.994 180.645 326.192C180.645 330.389 184.047 333.792 188.245 333.792Z" fill="#CFCFCF" fill-opacity="0.5"/>
<path d="M188.249 17.6455C192.446 17.6455 195.849 14.2427 195.849 10.0451C195.849 5.8476 192.446 2.44482 188.249 2.44482C184.051 2.44482 180.648 5.8476 180.648 10.0451C180.648 14.2427 184.051 17.6455 188.249 17.6455Z" fill="#CFCFCF" fill-opacity="0.5"/>
<path d="M188.249 62.8051C192.446 62.8051 195.849 59.4023 195.849 55.2048C195.849 51.0073 192.446 47.6045 188.249 47.6045C184.051 47.6045 180.648 51.0073 180.648 55.2048C180.648 59.4023 184.051 62.8051 188.249 62.8051Z" fill="#CFCFCF" fill-opacity="0.5"/>
<path d="M188.245 107.97C192.442 107.97 195.845 104.567 195.845 100.369C195.845 96.1718 192.442 92.769 188.245 92.769C184.047 92.769 180.645 96.1718 180.645 100.369C180.645 104.567 184.047 107.97 188.245 107.97Z" fill="#CFCFCF" fill-opacity="0.5"/>
<path d="M188.245 153.136C192.442 153.136 195.845 149.733 195.845 145.535C195.845 141.338 192.442 137.935 188.245 137.935C184.047 137.935 180.645 141.338 180.645 145.535C180.645 149.733 184.047 153.136 188.245 153.136Z" fill="#CFCFCF" fill-opacity="0.5"/>
<path d="M143.093 378.957C147.29 378.957 150.693 375.554 150.693 371.357C150.693 367.159 147.29 363.756 143.093 363.756C138.895 363.756 135.492 367.159 135.492 371.357C135.492 375.554 138.895 378.957 143.093 378.957Z" fill="#CFCFCF" fill-opacity="0.5"/>
<path d="M143.093 424.122C147.29 424.122 150.693 420.72 150.693 416.522C150.693 412.325 147.29 408.922 143.093 408.922C138.895 408.922 135.492 412.325 135.492 416.522C135.492 420.72 138.895 424.122 143.093 424.122Z" fill="#CFCFCF" fill-opacity="0.5"/>
<path d="M143.093 469.288C147.29 469.288 150.693 465.885 150.693 461.688C150.693 457.49 147.29 454.087 143.093 454.087C138.895 454.087 135.492 457.49 135.492 461.688C135.492 465.885 138.895 469.288 143.093 469.288Z" fill="#CFCFCF" fill-opacity="0.5"/>
<path d="M143.093 514.454C147.29 514.454 150.693 511.051 150.693 506.853C150.693 502.656 147.29 499.253 143.093 499.253C138.895 499.253 135.492 502.656 135.492 506.853C135.492 511.051 138.895 514.454 143.093 514.454Z" fill="#CFCFCF" fill-opacity="0.5"/>
<path d="M143.093 198.301C147.29 198.301 150.693 194.898 150.693 190.7C150.693 186.503 147.29 183.1 143.093 183.1C138.895 183.1 135.492 186.503 135.492 190.7C135.492 194.898 138.895 198.301 143.093 198.301Z" fill="#CFCFCF" fill-opacity="0.5"/>
<path d="M143.093 243.466C147.29 243.466 150.693 240.064 150.693 235.866C150.693 231.668 147.29 228.266 143.093 228.266C138.895 228.266 135.492 231.668 135.492 235.866C135.492 240.064 138.895 243.466 143.093 243.466Z" fill="#CFCFCF" fill-opacity="0.5"/>
<path d="M143.093 288.632C147.29 288.632 150.693 285.229 150.693 281.031C150.693 276.834 147.29 273.431 143.093 273.431C138.895 273.431 135.492 276.834 135.492 281.031C135.492 285.229 138.895 288.632 143.093 288.632Z" fill="#CFCFCF" fill-opacity="0.5"/>
<path d="M143.093 333.792C147.29 333.792 150.693 330.389 150.693 326.192C150.693 321.994 147.29 318.591 143.093 318.591C138.895 318.591 135.492 321.994 135.492 326.192C135.492 330.389 138.895 333.792 143.093 333.792Z" fill="#CFCFCF" fill-opacity="0.5"/>
<path d="M143.093 17.6455C147.29 17.6455 150.693 14.2427 150.693 10.0451C150.693 5.8476 147.29 2.44482 143.093 2.44482C138.895 2.44482 135.492 5.8476 135.492 10.0451C135.492 14.2427 138.895 17.6455 143.093 17.6455Z" fill="#CFCFCF" fill-opacity="0.5"/>
<path d="M143.093 62.8051C147.29 62.8051 150.693 59.4023 150.693 55.2048C150.693 51.0073 147.29 47.6045 143.093 47.6045C138.895 47.6045 135.492 51.0073 135.492 55.2048C135.492 59.4023 138.895 62.8051 143.093 62.8051Z" fill="#CFCFCF" fill-opacity="0.5"/>
<path d="M143.093 107.97C147.29 107.97 150.693 104.567 150.693 100.369C150.693 96.1718 147.29 92.769 143.093 92.769C138.895 92.769 135.492 96.1718 135.492 100.369C135.492 104.567 138.895 107.97 143.093 107.97Z" fill="#CFCFCF" fill-opacity="0.5"/>
<path d="M143.093 153.136C147.29 153.136 150.693 149.733 150.693 145.535C150.693 141.338 147.29 137.935 143.093 137.935C138.895 137.935 135.492 141.338 135.492 145.535C135.492 149.733 138.895 153.136 143.093 153.136Z" fill="#CFCFCF" fill-opacity="0.5"/>
<path d="M97.9246 378.957C102.122 378.957 105.525 375.554 105.525 371.357C105.525 367.159 102.122 363.756 97.9246 363.756C93.7271 363.756 90.3242 367.159 90.3242 371.357C90.3242 375.554 93.7271 378.957 97.9246 378.957Z" fill="#CFCFCF" fill-opacity="0.5"/>
<path d="M97.9246 424.122C102.122 424.122 105.525 420.72 105.525 416.522C105.525 412.325 102.122 408.922 97.9246 408.922C93.7271 408.922 90.3242 412.325 90.3242 416.522C90.3242 420.72 93.7271 424.122 97.9246 424.122Z" fill="#CFCFCF" fill-opacity="0.5"/>
<path d="M97.9246 469.288C102.122 469.288 105.525 465.885 105.525 461.688C105.525 457.49 102.122 454.087 97.9246 454.087C93.7271 454.087 90.3242 457.49 90.3242 461.688C90.3242 465.885 93.7271 469.288 97.9246 469.288Z" fill="#CFCFCF" fill-opacity="0.5"/>
<path d="M97.9246 514.454C102.122 514.454 105.525 511.051 105.525 506.853C105.525 502.656 102.122 499.253 97.9246 499.253C93.7271 499.253 90.3242 502.656 90.3242 506.853C90.3242 511.051 93.7271 514.454 97.9246 514.454Z" fill="#CFCFCF" fill-opacity="0.5"/>
<path d="M97.9246 198.3C102.122 198.3 105.525 194.897 105.525 190.7C105.525 186.502 102.122 183.1 97.9246 183.1C93.7271 183.1 90.3242 186.502 90.3242 190.7C90.3242 194.897 93.7271 198.3 97.9246 198.3Z" fill="#CFCFCF" fill-opacity="0.5"/>
<path d="M97.9246 243.466C102.122 243.466 105.525 240.064 105.525 235.866C105.525 231.668 102.122 228.266 97.9246 228.266C93.7271 228.266 90.3242 231.668 90.3242 235.866C90.3242 240.064 93.7271 243.466 97.9246 243.466Z" fill="#CFCFCF" fill-opacity="0.5"/>
<path d="M97.9246 288.632C102.122 288.632 105.525 285.229 105.525 281.031C105.525 276.834 102.122 273.431 97.9246 273.431C93.7271 273.431 90.3242 276.834 90.3242 281.031C90.3242 285.229 93.7271 288.632 97.9246 288.632Z" fill="#CFCFCF" fill-opacity="0.5"/>
<path d="M97.9246 333.792C102.122 333.792 105.525 330.389 105.525 326.192C105.525 321.994 102.122 318.591 97.9246 318.591C93.7271 318.591 90.3242 321.994 90.3242 326.192C90.3242 330.389 93.7271 333.792 97.9246 333.792Z" fill="#CFCFCF" fill-opacity="0.5"/>
<path d="M97.9246 17.6455C102.122 17.6455 105.525 14.2427 105.525 10.0451C105.525 5.8476 102.122 2.44482 97.9246 2.44482C93.7271 2.44482 90.3242 5.8476 90.3242 10.0451C90.3242 14.2427 93.7271 17.6455 97.9246 17.6455Z" fill="#CFCFCF" fill-opacity="0.5"/>
<path d="M97.9246 62.8051C102.122 62.8051 105.525 59.4023 105.525 55.2048C105.525 51.0073 102.122 47.6045 97.9246 47.6045C93.7271 47.6045 90.3242 51.0073 90.3242 55.2048C90.3242 59.4023 93.7271 62.8051 97.9246 62.8051Z" fill="#CFCFCF" fill-opacity="0.5"/>
<path d="M97.9246 107.97C102.122 107.97 105.525 104.567 105.525 100.369C105.525 96.1718 102.122 92.769 97.9246 92.769C93.7271 92.769 90.3242 96.1718 90.3242 100.369C90.3242 104.567 93.7271 107.97 97.9246 107.97Z" fill="#CFCFCF" fill-opacity="0.5"/>
<path d="M97.9246 153.136C102.122 153.136 105.525 149.733 105.525 145.535C105.525 141.338 102.122 137.935 97.9246 137.935C93.7271 137.935 90.3242 141.338 90.3242 145.535C90.3242 149.733 93.7271 153.136 97.9246 153.136Z" fill="#CFCFCF" fill-opacity="0.5"/>
<path d="M52.7645 378.957C56.962 378.957 60.3649 375.554 60.3649 371.357C60.3649 367.159 56.962 363.756 52.7645 363.756C48.5669 363.756 45.1641 367.159 45.1641 371.357C45.1641 375.554 48.5669 378.957 52.7645 378.957Z" fill="#CFCFCF" fill-opacity="0.5"/>
<path d="M52.7645 424.122C56.962 424.122 60.3649 420.72 60.3649 416.522C60.3649 412.325 56.962 408.922 52.7645 408.922C48.5669 408.922 45.1641 412.325 45.1641 416.522C45.1641 420.72 48.5669 424.122 52.7645 424.122Z" fill="#CFCFCF" fill-opacity="0.5"/>
<path d="M52.7645 469.288C56.962 469.288 60.3649 465.885 60.3649 461.688C60.3649 457.49 56.962 454.087 52.7645 454.087C48.5669 454.087 45.1641 457.49 45.1641 461.688C45.1641 465.885 48.5669 469.288 52.7645 469.288Z" fill="#CFCFCF" fill-opacity="0.5"/>
<path d="M52.7645 514.454C56.962 514.454 60.3649 511.051 60.3649 506.853C60.3649 502.656 56.962 499.253 52.7645 499.253C48.5669 499.253 45.1641 502.656 45.1641 506.853C45.1641 511.051 48.5669 514.454 52.7645 514.454Z" fill="#CFCFCF" fill-opacity="0.5"/>
<path d="M52.7645 198.3C56.962 198.3 60.3649 194.897 60.3649 190.7C60.3649 186.502 56.962 183.1 52.7645 183.1C48.5669 183.1 45.1641 186.502 45.1641 190.7C45.1641 194.897 48.5669 198.3 52.7645 198.3Z" fill="#CFCFCF" fill-opacity="0.5"/>
<path d="M52.7645 243.466C56.962 243.466 60.3649 240.064 60.3649 235.866C60.3649 231.668 56.962 228.266 52.7645 228.266C48.5669 228.266 45.1641 231.668 45.1641 235.866C45.1641 240.064 48.5669 243.466 52.7645 243.466Z" fill="#CFCFCF" fill-opacity="0.5"/>
<path d="M52.7645 288.632C56.962 288.632 60.3649 285.229 60.3649 281.031C60.3649 276.834 56.962 273.431 52.7645 273.431C48.5669 273.431 45.1641 276.834 45.1641 281.031C45.1641 285.229 48.5669 288.632 52.7645 288.632Z" fill="#CFCFCF" fill-opacity="0.5"/>
<path d="M52.7645 333.792C56.962 333.792 60.3649 330.389 60.3649 326.192C60.3649 321.994 56.962 318.591 52.7645 318.591C48.5669 318.591 45.1641 321.994 45.1641 326.192C45.1641 330.389 48.5669 333.792 52.7645 333.792Z" fill="#CFCFCF" fill-opacity="0.5"/>
<path d="M52.7645 17.6455C56.962 17.6455 60.3649 14.2427 60.3649 10.0451C60.3649 5.8476 56.962 2.44482 52.7645 2.44482C48.5669 2.44482 45.1641 5.8476 45.1641 10.0451C45.1641 14.2427 48.5669 17.6455 52.7645 17.6455Z" fill="#CFCFCF" fill-opacity="0.5"/>
<path d="M52.7645 62.8051C56.962 62.8051 60.3649 59.4023 60.3649 55.2048C60.3649 51.0073 56.962 47.6045 52.7645 47.6045C48.5669 47.6045 45.1641 51.0073 45.1641 55.2048C45.1641 59.4023 48.5669 62.8051 52.7645 62.8051Z" fill="#CFCFCF" fill-opacity="0.5"/>
<path d="M52.7645 107.97C56.962 107.97 60.3649 104.567 60.3649 100.369C60.3649 96.1718 56.962 92.769 52.7645 92.769C48.5669 92.769 45.1641 96.1718 45.1641 100.369C45.1641 104.567 48.5669 107.97 52.7645 107.97Z" fill="#CFCFCF" fill-opacity="0.5"/>
<path d="M52.7645 153.136C56.962 153.136 60.3649 149.733 60.3649 145.535C60.3649 141.338 56.962 137.935 52.7645 137.935C48.5669 137.935 45.1641 141.338 45.1641 145.535C45.1641 149.733 48.5669 153.136 52.7645 153.136Z" fill="#CFCFCF" fill-opacity="0.5"/>
<path d="M7.60041 378.957C11.7979 378.957 15.2008 375.554 15.2008 371.357C15.2008 367.159 11.7979 363.756 7.60041 363.756C3.40287 363.756 0 367.159 0 371.357C0 375.554 3.40287 378.957 7.60041 378.957Z" fill="#CFCFCF" fill-opacity="0.5"/>
<path d="M7.60041 424.122C11.7979 424.122 15.2008 420.72 15.2008 416.522C15.2008 412.325 11.7979 408.922 7.60041 408.922C3.40287 408.922 0 412.325 0 416.522C0 420.72 3.40287 424.122 7.60041 424.122Z" fill="#CFCFCF" fill-opacity="0.5"/>
<path d="M7.60041 469.288C11.7979 469.288 15.2008 465.885 15.2008 461.688C15.2008 457.49 11.7979 454.087 7.60041 454.087C3.40287 454.087 0 457.49 0 461.688C0 465.885 3.40287 469.288 7.60041 469.288Z" fill="#CFCFCF" fill-opacity="0.5"/>
<path d="M7.60041 514.454C11.7979 514.454 15.2008 511.051 15.2008 506.853C15.2008 502.656 11.7979 499.253 7.60041 499.253C3.40287 499.253 0 502.656 0 506.853C0 511.051 3.40287 514.454 7.60041 514.454Z" fill="#CFCFCF" fill-opacity="0.5"/>
<path d="M7.60041 198.3C11.7979 198.3 15.2008 194.897 15.2008 190.7C15.2008 186.502 11.7979 183.1 7.60041 183.1C3.40287 183.1 0 186.502 0 190.7C0 194.897 3.40287 198.3 7.60041 198.3Z" fill="#CFCFCF" fill-opacity="0.5"/>
<path d="M7.60041 243.466C11.7979 243.466 15.2008 240.064 15.2008 235.866C15.2008 231.668 11.7979 228.266 7.60041 228.266C3.40287 228.266 0 231.668 0 235.866C0 240.064 3.40287 243.466 7.60041 243.466Z" fill="#CFCFCF" fill-opacity="0.5"/>
<path d="M7.60041 288.632C11.7979 288.632 15.2008 285.229 15.2008 281.031C15.2008 276.834 11.7979 273.431 7.60041 273.431C3.40287 273.431 0 276.834 0 281.031C0 285.229 3.40287 288.632 7.60041 288.632Z" fill="#CFCFCF" fill-opacity="0.5"/>
<path d="M7.60041 333.792C11.7979 333.792 15.2008 330.389 15.2008 326.192C15.2008 321.994 11.7979 318.591 7.60041 318.591C3.40287 318.591 0 321.994 0 326.192C0 330.389 3.40287 333.792 7.60041 333.792Z" fill="#CFCFCF" fill-opacity="0.5"/>
<path d="M7.60041 17.6455C11.7979 17.6455 15.2008 14.2427 15.2008 10.0451C15.2008 5.8476 11.7979 2.44482 7.60041 2.44482C3.40287 2.44482 0 5.8476 0 10.0451C0 14.2427 3.40287 17.6455 7.60041 17.6455Z" fill="#CFCFCF" fill-opacity="0.5"/>
<path d="M7.60041 62.8051C11.7979 62.8051 15.2008 59.4023 15.2008 55.2048C15.2008 51.0073 11.7979 47.6045 7.60041 47.6045C3.40287 47.6045 0 51.0073 0 55.2048C0 59.4023 3.40287 62.8051 7.60041 62.8051Z" fill="#CFCFCF" fill-opacity="0.5"/>
<path d="M7.60041 107.97C11.7979 107.97 15.2008 104.567 15.2008 100.369C15.2008 96.1718 11.7979 92.769 7.60041 92.769C3.40287 92.769 0 96.1718 0 100.369C0 104.567 3.40287 107.97 7.60041 107.97Z" fill="#CFCFCF" fill-opacity="0.5"/>
<path d="M7.60041 153.136C11.7979 153.136 15.2008 149.733 15.2008 145.535C15.2008 141.338 11.7979 137.935 7.60041 137.935C3.40287 137.935 0 141.338 0 145.535C0 149.733 3.40287 153.136 7.60041 153.136Z" fill="#CFCFCF" fill-opacity="0.5"/>
</svg>
