<svg width="1433" height="422" viewBox="0 0 1433 422" fill="none" xmlns="http://www.w3.org/2000/svg">
<path d="M68.1697 134.679C70.0214 135.234 72.179 132.622 72.9725 128.886L73.4768 128.945C77.114 129.359 76.1634 125.73 77.3124 124.063C80.9249 118.815 84.7687 113.791 88.2985 108.483C89.3071 106.97 89.4642 104.736 90.1833 102.915C90.7537 101.449 91.3076 99.4399 92.3574 98.8488L101.302 93.8958C106.278 83.5878 111.635 72.5232 113.181 69.3433C114.726 66.1516 123.53 61.5413 124.481 59.3663C125.44 57.1794 129.466 49.8975 130.838 47.6633C132.21 45.4173 137.17 38.1237 138.278 35.8895C139.385 33.6317 145.651 28.4777 146.867 27.0355C148.073 25.5815 150.702 19.8955 148.23 20.132C145.75 20.3566 139.807 22.9808 136.352 23.6074C132.904 24.2339 125.175 33.0052 123.018 33.8799C120.852 34.7547 110.759 39.6132 105.286 42.7221L100.318 45.441L95.5978 48.018C90.9025 52.0726 80.6852 60.3829 72.8734 66.4826C65.0781 72.6059 35.9388 93.021 26.5894 100.196L18.1824 106.923C10.3375 113.211 2.6084 119.689 -5.25302 125.943L-10.1716 129.856C-15.3464 134.49 -24.704 142.055 -30.97 146.653C-37.236 151.24 -57.6376 169.043 -63.8127 173.842C-69.9794 178.653 -92.0674 199.139 -100.417 206.563L-108.501 212.426L-116.321 218.1C-124.216 225.418 -135.987 235.867 -142.485 241.317C-148.982 246.767 -166.904 262.843 -167.97 264.758C-169.045 266.662 -177.154 269.794 -179.585 272.998L-183.478 274.558L-187 275.977C-190.314 279.452 -194.448 283.459 -196.184 284.878C-197.928 286.296 -205.351 291.675 -208.691 293.886L-211.559 296.155L-214.783 298.72C-218.205 301.758 -226.298 308.106 -232.779 312.835C-239.26 317.575 -259.794 331.595 -263.547 334.302C-267.3 337.009 -280.328 345.851 -284.015 348.192L-287.321 350.402L-290.339 352.412C-293.935 353.913 -297.605 356.597 -298.506 358.417C-299.415 360.214 -307.649 361.195 -310.922 362.07L-313.923 363.122L-317.221 364.292C-320.842 365.51 -325.107 366.775 -326.711 367.07C-328.315 367.389 -333.01 369.6 -333.828 370.356L-333.886 370.309C-336.226 367.46 -338.441 367.058 -341.682 369.032C-343.409 370.096 -345.997 369.576 -348.253 370.38C-350.634 371.243 -353.42 370.581 -356.032 370.581H-359.016C-362.29 370.628 -367.316 370.12 -370.168 369.446C-373.028 368.784 -383.593 362.46 -388.222 359.103L-388.875 351.939L-389.164 348.806C-392.479 345.603 -394.645 342.766 -393.992 342.506C-393.339 342.246 -392.314 338.38 -393.612 334.68L-395.728 332.718L-397.827 330.767C-399.572 328.238 -401.167 326.027 -401.39 325.838C-401.605 325.649 -402.754 322.658 -404.002 319.431C-405.259 316.192 -411.517 299.737 -414.881 289.819L-415.526 279.83L-416.485 264.865C-411.641 250.1 -407.367 237.747 -406.995 237.428L-406.937 237.073L-406.35 233.882C-405.788 230.347 -404.267 225.276 -402.994 222.604L-401.572 220.335C-399.96 217.746 -398.662 214.826 -397.555 211.882L-395.29 205.865C-391.867 199.896 -387.932 191.302 -386.544 186.798L-384.833 182.897L-381.195 174.622C-376.847 165.709 -372.334 155.626 -371.16 152.221C-369.978 148.817 -368.068 139.301 -369.763 139.939L-371.077 140.802L-378.038 145.341C-385.634 150.46 -397.092 158.451 -403.49 163.073C-409.888 167.707 -429.29 182.495 -433.158 184.209L-436.622 185.994L-436.961 186.16C-436.647 188.37 -439.176 191.999 -442.582 194.21C-445.988 196.432 -457.189 203.359 -459.355 204.589L-460.305 203.868L-466.224 199.305C-467.274 205.085 -469.903 209.246 -472.06 208.549C-474.218 207.84 -481.377 209.164 -483.245 210.854C-485.105 212.568 -489.511 207.757 -486.998 204.021C-484.485 200.298 -474.094 197.472 -476.962 195.356L-478.616 194.316C-480.409 193.17 -482.22 192.85 -482.484 196.054L-482.749 199.293C-484.658 198.796 -490.627 193.347 -496 187.164L-490.123 180.639C-487.494 177.708 -487.932 176.005 -488.974 172.613L-489.61 170.556C-487.899 166.619 -486.039 164.551 -485.469 165.957C-484.898 167.376 -481.765 169.894 -479.599 168.854L-477.913 167.518L-476.954 166.785C-476.326 165.272 -476.904 163.463 -478.244 162.766L-479.426 162.068L-479.74 161.891C-480.302 161.158 -478.343 155.614 -475.408 149.561L-472.325 144.254L-471.49 142.812C-469.432 142.221 -466.191 141.287 -464.282 140.743L-464.637 137.965C-465.1 134.419 -463.637 133.461 -460.851 133.698C-459.917 133.78 -458.04 132.764 -458.073 132.539C-459.421 123.626 -451.221 125.896 -448.931 121.652L-448.137 120.198C-447.211 118.555 -444.996 116.084 -443.227 114.736L-441.615 113.519C-439.557 111.97 -437.382 110.611 -435.448 108.873L-431.53 105.398C-426.868 102.277 -420.874 97.9859 -418.237 95.8699C-415.592 93.7539 -407.541 87.5242 -404.408 88.3989L-402.581 84.0133C-401.349 81.0698 -398.654 78.8356 -396.373 76.6251C-395.091 75.3721 -393.24 73.9181 -391.785 74.1072L-388.379 74.5091C-386.031 72.2986 -376.665 66.0688 -367.547 60.7021L-358.396 61.3404L-354.404 61.6123C-350.221 61.234 -344.624 60.8794 -341.954 60.8439C-339.284 60.7966 -328.422 60.3592 -323.719 59.6263L-319.842 62.9008C-319.66 63.0308 -318.362 60.3474 -316.733 62.4161L-313.708 66.258C-310.178 70.2417 -306.599 74.1545 -305.764 74.9347L-305.871 75.3602C-308.186 84.8408 -300.325 90.0303 -298.638 98.045L-297.406 103.885C-292.48 109.275 -288.148 115.777 -287.784 118.33L-287.156 119.961L-283.387 129.797C-286.726 139.443 -294.364 157.103 -300.366 169.031L-301.383 181.951C-301.407 182.282 -302.127 182.59 -302.11 182.873L-301.879 187.507C-304.152 191.456 -308.029 198.714 -310.492 203.643L-312.468 208.277C-314.311 212.58 -315.634 217.178 -317.486 221.458L-319.362 225.784C-321.718 230.371 -324.496 236.246 -325.521 238.858C-326.546 241.447 -330.927 252.204 -332.911 256.992L-334.928 261.188C-336.093 263.635 -339.152 267.513 -338.896 267.808C-335.746 271.366 -339.789 273.47 -340.07 276.154L-340.334 278.755C-342.417 281.97 -342.508 284.322 -340.541 283.991L-339.26 283.199L-333.928 279.948C-328.72 275.208 -322.57 269.664 -320.255 267.631C-317.949 265.598 -307.037 260.68 -306.648 260.562C-306.26 260.455 -304.061 258.623 -301.928 257.051C-299.779 255.455 -292.05 248.552 -288.685 245.951C-285.313 243.338 -273.88 234.934 -270.64 233.22C-267.399 231.494 -260.679 223.219 -260.356 222.888C-260.034 222.569 -257.512 221.422 -255.479 220.323C-253.445 219.223 -246.716 213.951 -244.633 212.852C-242.558 211.752 -237.251 206.267 -236.425 205.31C-235.582 204.352 -231.539 203.028 -230.622 202.012L-229.737 201.054C-228.241 199.435 -226.629 197.934 -225.224 196.208C-222.107 192.413 -216.519 192.768 -214.229 188.347L-211.443 182.968C-206.674 180.261 -201.086 176.679 -199.027 174.965C-196.961 173.275 -189.446 168.215 -186.834 167.6L-186.685 163.392L-186.636 162.115C-183.833 160.981 -180.147 159.562 -178.435 158.995C-176.733 158.415 -170.806 153.084 -167.945 150.649C-165.085 148.226 -153.677 137.811 -148.445 133.426C-143.22 129.028 -125.183 113.566 -119.859 108.92C-114.552 104.287 -95.9444 88.3635 -90.4141 83.7296C-84.8839 79.0957 -66.863 63.4445 -62.5562 59.3899L-58.5552 55.8672L-58.4064 55.7254C-57.2491 57.1084 -54.6286 56.2928 -52.5868 53.9167C-50.545 51.5407 -44.2873 46.4812 -42.6009 47.2378L-42.1132 46.7177C-38.8148 43.3132 -37.2938 38.5374 -32.9787 35.3694C-29.1266 32.5323 -24.8528 30.5936 -21.0833 27.6502L-17.5701 24.9195C-13.7427 21.846 -6.63351 16.3492 -1.77283 12.7083C3.08786 9.04373 18.3395 -1.78442 20.8442 -4.62148C23.3655 -7.47038 33.9714 -14.1493 37.0547 -15.8634C40.1381 -17.5774 49.6859 -23.8308 51.5872 -25.5567L53.0421 -27.4126C54.6458 -29.4695 56.2991 -30.7935 58.8038 -30.167L61.8707 -29.4222C62.904 -32.2474 64.2184 -34.3516 64.8053 -34.0679C65.384 -33.7842 67.4175 -34.9781 68.0457 -37.3305L68.4839 -37.2951C72.4931 -36.9641 74.0389 -42.4255 76.3783 -42.6855C79.5857 -43.0165 82.6195 -46.1373 85.9922 -44.0804L86.3146 -43.8795C86.5792 -43.4894 88.2655 -44.7306 90.0511 -46.6338C91.8449 -48.537 100.252 -52.3788 102.633 -53.7265C105.013 -55.0622 112.924 -59.4242 114.908 -60.3817C116.901 -61.3511 124.985 -61.3392 127.878 -61.2565L128.961 -65.7604C129.366 -67.4626 133.012 -68.4556 135.318 -69.1294C142.46 -71.2099 149.346 -74.508 156.935 -74.5553C159.845 -74.5671 162.234 -79.1064 165.813 -76.2221C169.293 -73.4204 170.971 -78.7281 173.567 -78.8463L176.518 -79C179.767 -77.8179 185.487 -76.5176 189.24 -76.1393C193.002 -75.761 204.393 -75.3354 206.311 -76.4585L207.121 -72.723C207.27 -72.0019 210.477 -72.8648 212.634 -72.1319L221.496 -69.1648C226.332 -60.3463 230.391 -52.4616 230.507 -51.6577L230.226 -51.3622C226.117 -47.1184 229.87 -43.4894 231.217 -40.144C233.135 -35.3919 234.673 -30.5216 236.376 -25.6986L238.864 -18.6768C243.096 -11.6787 247.965 -2.47005 249.685 1.79738L247.75 6.65588C246.014 10.9824 245.543 15.9946 244.502 20.6994C244.245 21.8697 244.229 23.3473 243.601 24.1393L236.31 33.2652C231.631 45.5355 224.794 61.3995 221.124 68.4922L216.578 73.4689L211.138 79.4149C205.649 86.413 200.797 92.3354 200.359 92.56L200.309 92.8555L198.466 104.523C190.373 112.266 182.578 120.422 181.131 122.621C179.693 124.843 171.815 133.579 167.731 137.953L166.185 143.852L165.888 144.987C165.292 146.098 162.97 149.242 160.729 151.997C158.497 154.751 148.925 166.513 144.709 172.376C140.501 178.251 126.705 196.81 123.82 201.208C120.943 205.594 110.668 220.535 108.08 225.217C105.509 229.91 96.9536 244.178 94.9448 246.542L93.1344 248.717C89.8774 252.642 86.7444 256.519 84.1818 261.259L82.3715 264.616C79.2468 267.926 75.9402 271.792 75.0392 273.175L74.5266 274.664L72.584 280.256C67.963 285.776 64.053 290.871 63.9042 291.569L64.1109 292.053L64.4002 292.774C65.1359 293.59 63.7554 297.408 61.3499 301.238C58.9361 305.057 50.7027 316.31 48.6278 317.812C46.5529 319.313 47.0324 327.694 46.4207 328.77L45.8172 329.786L39.8405 339.787C35.6081 352.14 32.1031 363.394 32.0618 364.753C32.0204 366.124 33.1447 370.628 34.5417 369.954C35.947 369.293 40.9069 369.032 42.9322 369.281L45.0567 368.134L49.4214 365.805C54.5135 363.796 62.7469 360.45 67.7316 358.37L72.0219 355.982C74.9317 354.339 77.8167 353.334 80.7017 352.01L84.8514 350.095C86.9263 352.459 89.4724 353.452 90.5057 352.282C91.5473 351.135 94.0107 347.79 93.7131 347.4C93.4155 347.01 92.8865 344.716 94.5894 344.953C96.2922 345.213 101.054 345.887 101.211 345.91L101.293 345.272L101.632 342.624C103.236 340.532 106.179 337.706 108.155 336.359C110.13 334.988 121.174 330.283 127.143 325.602L128.474 324.916C129.507 324.384 131.359 325.803 132.284 325.188C133.227 324.585 133.276 322.339 134.136 321.251C134.434 320.885 136.434 321.547 136.889 322.327L138.046 324.313C139.022 326.997 141.13 328.19 142.741 326.973C144.337 325.743 148.247 322.445 148.148 322.126C148.049 321.819 146.528 321.24 144.973 321.547C143.428 321.843 139.815 321.181 140.369 319.443C140.939 317.693 147.685 316.062 151.562 316.074L153.075 310.364C153.645 308.177 158.671 305.175 159.407 305.837L163.507 309.655C165.458 306.156 169.55 301.888 172.592 300.163L172.641 298.508L172.798 292.112C175.807 294.287 179.593 294.394 181.214 292.349L182.751 290.587C184.859 288.211 188.81 288.01 190.819 285.575C192.431 283.613 195.713 291.155 195.506 283.944C195.473 282.632 199.119 281.521 199.598 279.759L200.896 275.114C203.765 276.095 207.096 275.811 208.278 274.499C209.46 273.187 213.436 270.787 214.437 272.111C215.445 273.447 219.967 267.028 222.968 264.226C225.952 261.425 233.995 253.954 234.598 254.344C235.202 254.746 237.715 254.793 237.607 252.665L237.864 251.14L238.037 250.112C238.765 249.107 240.451 249.864 241.79 251.826C243.138 253.788 246.932 246.376 249.486 245.797L249.387 241.459C249.321 238.752 253.033 246.495 253.835 239.662L254.413 234.768C257.232 237.865 260.191 240.407 260.977 240.43C261.77 240.454 264.606 239.036 264.068 237.286C263.548 235.536 263.928 230.974 266.044 230.903C268.169 230.808 272.93 222.344 276.278 219.2C279.626 216.067 291.05 211.646 290.843 208.762L291.778 207.934L294.795 205.322C298.573 203.418 303.433 199.99 305.599 197.685C307.757 195.392 315.767 194.375 316.279 192.626L315.974 192.389L312.981 190.049C314.899 188.287 318.644 185.687 321.305 184.28C323.967 182.873 330.589 177.164 331.68 177.708L332.763 177.814L334.507 178.027C336.598 177.187 337.698 176.183 336.97 175.804C336.235 175.45 335.284 174.09 336.813 173.795C338.351 173.476 342.939 172.459 343.443 168.865C343.931 165.26 351.404 161.063 351.693 161.915L351.858 163.002L352.048 164.231C352.032 164.799 352.726 164.444 353.602 163.428C354.479 162.411 357.141 159.314 357.141 159.314C357.141 159.314 357.661 157.056 359.158 155.389C360.654 153.711 365.771 148.616 367.523 148.001C369.267 147.386 371.243 141.216 372.053 140.317C372.855 139.407 378.857 136.653 381.841 134.241L384.643 134.088C388.313 133.898 387.974 129.087 388.231 129.3L394.927 134.679C396.431 128.118 400.903 119.879 404.855 116.368L408.707 113.365C411.418 111.273 413.567 106.001 418.197 110.162C418.742 110.658 421.462 108.802 422.553 107.372C426.455 102.301 431.084 98.636 436.573 96.4018L437.086 96.1891C438.788 98.6951 440.599 98.8961 441.103 96.6383C441.607 94.3923 447.658 88.9191 450.006 87.2168L452.668 89.451L452.775 89.5456C453.61 88.5053 453.577 85.7037 452.726 83.3277L455.123 84.6044C458.322 86.2948 460.57 86.1293 461.356 82.5711C462.546 77.2043 465.497 75.5021 469.383 76.6842C473.954 78.0555 471.4 70.5727 475.211 71.2347C477.732 71.6602 480.369 71.2583 482.948 70.9982C483.303 70.9628 483.543 69.6388 483.874 68.9296L485.957 64.4612C490.09 63.8938 496.364 64.4139 499.902 65.6196L499.803 59.449C499.795 59.0826 501.622 58.4915 502.63 58.3496C505.259 58.0068 508.83 59.7918 508.929 54.094C508.938 53.7276 511.492 53.3493 512.881 53.1365C514.848 52.8174 517.651 54.2832 517.485 49.8148L517.469 49.2119C518.113 48.5381 521.478 45.8311 524.942 43.195C528.405 40.547 540.722 40.7007 542.45 39.1403C544.186 37.5799 553.023 35.5585 557.776 36.0668L561.14 34.2346L564.621 32.3432C567.423 33.5607 571.044 34.0336 572.664 33.3834C574.301 32.7214 581.749 31.6694 585.427 30.8419L587.99 34.802C588.395 35.4285 590.123 34.8847 591.23 34.8965L595.595 34.932C599.679 37.4381 605.697 41.3272 608.978 43.5732L611.566 46.5522C614.707 50.1458 616.534 53.6212 615.988 58.8934L615.798 60.6311C616.914 62.7235 618.344 65.4069 618.973 66.5771C619.609 67.7711 620.816 79.3322 621.328 80.9989L622.031 82.3584C623.626 85.5146 625.404 88.5408 627.016 91.6734C627.793 93.1983 627.528 97.9977 627.082 99.9364C626.561 102.194 624.081 104.263 626.9 107.053L627.702 107.845C627.148 111.025 626.189 113.081 625.561 112.419C624.933 111.781 622.833 111.178 622.13 112.372C621.428 113.578 621.114 118.283 621.097 122.479L620.419 126.227L619.808 129.619C617.915 132.291 614.773 136.523 612.831 139.017C610.88 141.511 610.045 150.945 608.35 151.772C606.656 152.611 603.878 163.002 600.166 168.712L597.901 174.8L594.62 183.63C590.85 193.288 587.792 202.78 587.808 204.695C587.825 206.622 583.518 208.005 583.617 209.684C583.733 211.35 577.029 219.07 573.242 226.399L573.383 234.52C573.441 237.558 570.589 237.239 570.234 238.031L568.109 242.783C566.588 248.469 566.257 254.19 567.365 255.526L564.728 256.093C564.05 256.235 562.81 256.507 562.81 256.732C562.678 264.888 558.09 270.964 555.701 278.057C555.056 279.937 555.288 282.336 555.503 284.452L555.916 288.519C559.421 288.507 564.678 287.632 567.58 286.592C570.498 285.528 580.244 284.842 582.716 287.1L585.328 282.738C586.609 280.599 589.23 279.535 591.239 277.962C591.602 277.679 597.496 275.09 597.695 275.326L599.15 277.182C600.927 276.461 603.324 273.317 604.481 270.196C605.63 267.063 612.946 271.071 613.542 270.362L613.575 269.676C613.789 264.226 618.642 266.047 619.097 266.803C622.321 272.123 624.982 267.193 627.52 266.295L629.785 265.491C631.629 262.855 633.183 259.959 633.224 259.049C633.274 258.138 633.059 255.514 633.497 254.557C633.935 253.587 636.026 251.259 637.291 251.554C638.556 251.838 643.202 251.377 644.408 251.661C645.615 251.956 649.054 251.294 648.575 249.178C648.095 247.05 648.029 240.903 649.616 240.903C651.212 240.903 655.287 240.04 655.717 238.976C656.147 237.913 658.18 237.381 659.296 240.123L662.859 236.683L664.446 235.158C666.521 234.012 670.96 231.364 674.308 229.259L674.126 224.247C674.102 223.621 675.557 222.391 676.3 222.403C677.036 222.415 677.937 223.538 678.45 224.413L679.442 226.068C680.458 228.278 682.31 228.408 683.55 226.34L684.757 224.909C685.377 224.141 687.08 224.035 687.188 223.396L687.353 222.226C687.353 220.89 687.89 220.122 688.551 220.5C689.204 220.89 691.403 220.571 690.99 218.23C690.577 215.902 690.626 210.417 692.47 213.904L693.734 214.152L695.016 214.389C696.611 212.592 701.836 206.445 706.622 200.759L711.458 196.279C712.375 195.439 713.516 196.657 713.409 198.465L713.367 199.116C712.516 200.085 713.144 200.877 714.773 200.877C716.385 200.877 720.708 199.931 720.832 198.749C720.948 197.579 722.08 194.103 723.047 194.103C724.006 194.103 727.255 192.555 727.428 190.664C727.602 188.784 729.222 183.559 730.611 183.559C732 183.559 737.249 181.419 738.787 178.807C740.324 176.194 745.846 170.39 746.582 170.52L747.227 170.828C748.5 171.419 750.294 173.109 750.889 172.636L753.013 170.993C754.931 168.511 758.312 163.108 760.519 158.995L768.438 156.418C769.1 156.193 770.199 155.224 770.125 154.916L768.281 147.008C773.514 144.171 779.259 142.398 781.028 143.072L782.368 144.136C784.079 145.495 784.947 147.977 787.873 145.956L791.8 143.261C792.279 139.844 796.892 137.126 802.067 137.22L804.794 131.499C804.852 131.369 807.002 133.166 807.795 132.835L813.383 130.47C813.656 123.319 817.211 118.046 821.303 118.744L821.377 119.512L821.724 122.952C823.75 122.81 827.453 121.084 829.925 119.098L827.941 116.711C825.213 113.46 827.585 112.372 828.957 111.096L831.999 108.247C835.612 105.374 839.795 104.192 841.283 105.611C842.787 107.041 849.078 106.225 847.309 105.764C845.54 105.303 841.589 103.069 842.217 101.792C842.853 100.504 847.797 98.9907 851.467 100.35L852.996 94.676C854.344 89.7466 858.031 93.3047 860.395 92.0871L861.94 91.3069C863.635 89.9712 865.396 89.8057 865.859 90.9405C866.33 92.0753 868.446 93.4702 869.653 91.8153C870.877 90.1603 868.157 86.0702 870.224 86.5076C872.29 86.9449 874.547 79.935 876.208 79.4385C877.878 78.942 882.483 77.2162 882.747 76.8024L883.061 76.696C886.781 75.5257 891.477 78.8475 894.312 73.859L896.18 70.5963C897.792 66.6599 901.115 66.6717 903.554 70.6082L904.91 62.1915C905.48 58.6452 909.489 54.5669 914.573 55.5362C915.937 55.7845 917.723 54.0349 919.111 52.8646C920.872 51.387 922.269 49.271 924.096 47.9589L929.841 43.8097C933.33 47.8998 938.009 49.0937 940.232 46.4339L942.373 44.2234C942.836 43.7387 943.911 43.9397 944.696 44.0224L949.788 44.5662C950.698 41.1499 950.755 35.6767 949.904 32.3905L953.558 32.4968L955.426 32.5441C957.203 32.0358 959.369 31.1138 960.229 30.4991L960.278 29.8607L960.518 26.6336C962.469 27.1064 963.37 28.8796 962.527 30.57L962.866 31.0547C963.965 32.6032 965.528 33.809 967.09 34.7192C967.321 34.8611 968.628 32.7451 969.281 31.563C969.942 30.3572 970.917 28.9623 970.826 27.7448C970.744 26.5981 968.09 24.955 970.967 24.6594L973.893 24.3639C977.406 25.2978 980.333 24.8486 980.407 23.3709C980.465 21.8933 981.217 17.3067 981.887 16.7629L982.515 16.7275C984.755 16.5974 987.004 16.4792 989.228 16.7157L994.535 17.2712C995.775 14.3632 997.816 12.2473 999.089 12.5783C1000.37 12.8974 1003.88 13.3821 1006.26 11.8572L1007.89 15.6517L1008.06 16.0418C1010.84 15.037 1014.19 12.4364 1015.51 10.2731L1016.95 9.67025L1019.26 8.71275C1022.14 8.83096 1025.8 8.55907 1027.38 8.09805C1028.96 7.62521 1030.06 12.7556 1030.51 12.8028C1030.96 12.8619 1034.76 12.2236 1038.1 11.7271C1041.44 11.2306 1049.29 16.7157 1047.39 16.7157C1045.5 16.7157 1043.39 20.3211 1046.08 24.7185L1050.78 19.9192C1052.8 17.8623 1059.16 22.9336 1058.59 26.1489L1057.66 31.3266C1058.43 36.6933 1060.82 43.9752 1062.96 47.5215L1064.67 50.9142C1066.41 54.3777 1068.19 57.9005 1069.34 61.6477C1070.21 64.4612 1072.02 68.5867 1066.7 68.9177C1066.37 68.9296 1065.8 71.7075 1065.99 73.0788C1066.25 75.0174 1067.31 76.8024 1067.63 78.7529L1067.77 79.5331C1067.02 80.6088 1066.06 81.1644 1065.66 80.7507C1065.25 80.3488 1063.28 80.3488 1063.31 82.7603L1063.25 84.368L1063.1 87.8434C1061.07 90.5267 1057.62 94.806 1055.44 97.383C1053.25 99.9482 1049.47 109.251 1048.83 109.819C1048.19 110.398 1046.99 112.975 1045.99 114.748C1044.99 116.545 1040.32 119.879 1042.13 120.316C1043.94 120.753 1044.47 126.723 1039.64 132.705L1038.45 140.128C1038.02 142.906 1036.16 139.076 1035.63 139.431L1034.31 140.317C1033.19 141.937 1031.8 144.313 1031.23 145.59C1030.65 146.854 1030.94 150.814 1029.71 151.335C1028.49 151.855 1025.45 153.687 1026.25 154.006C1027.06 154.314 1029.56 158.132 1028.56 161.229C1027.56 164.314 1020.08 168.085 1020.6 171.797L1019.86 174.764C1019.47 176.313 1016.47 177.601 1014.51 177.849C1011.85 178.216 1012.33 180.084 1011.67 182.046L1009.92 187.259C1007.27 192.579 1004.78 198.371 1004.39 200.132C1003.99 201.905 1001.75 205.026 1001.32 203.324C1000.88 201.61 994.973 202.319 993.005 203.596L994.188 205.369L996.105 208.277C994.32 208.809 992.823 210.062 992.782 211.055L992.881 211.93C993.179 214.377 993.7 216.788 993.873 219.235C994.08 222.214 993.791 223.822 990.492 225.524L985.855 227.924C985.921 234.685 985.78 241.459 985.532 242.984C985.268 244.509 982.714 249.615 980.821 252.453C978.928 255.29 974.364 263.115 975.174 263.493C975.976 263.884 978.159 265.657 976.828 265.94C975.489 266.212 971.306 269.144 971.016 271.745L971.703 273.884L972.281 275.752C974.158 277.324 975.199 278.814 974.596 279.05C974.009 279.275 972.67 281.686 974.232 283.377C975.795 285.079 979.977 288.483 980.573 287.715C981.168 286.958 983.358 285.374 983.871 286.178C984.392 287.006 988.69 288.72 991.749 287.36C994.799 286.001 1002.51 281.19 1003.41 283.187C1004.31 285.197 1009.17 283.128 1008.79 282.62C1008.4 282.124 1009.58 279.346 1012.89 278.388C1016.2 277.431 1025.2 275.787 1024.82 277.052C1024.43 278.329 1024.5 282.053 1026.21 281.261C1027.91 280.469 1031.77 278.045 1031.32 277.466C1030.86 276.887 1029.4 274.073 1030.68 274.546C1031.96 275.007 1034.89 276.059 1035.45 276.248C1036 276.414 1039.33 276.142 1041.64 275.208C1043.94 274.286 1047.92 269.546 1046.36 267.595C1044.79 265.657 1050.27 264.002 1051.46 267.063L1054.47 267.997L1054.77 268.092C1055.1 268.6 1056.33 266.614 1057.53 263.671C1058.7 260.739 1067.23 258.564 1069.21 258.304C1071.16 258.044 1076.15 253.091 1077.36 252.003C1078.57 250.916 1083.57 254.285 1084.52 257.819L1088.4 254.391L1089.9 253.067C1093.18 252.665 1093.11 251.708 1089.77 250.939L1088.08 249.426L1087.23 248.682C1087.61 245.644 1089.33 243.067 1091.02 242.96L1091.55 243.598L1095.99 249.013C1097.06 244.237 1099.84 242.676 1102.16 245.537L1106.26 243.35L1109.04 241.873C1112.99 242.511 1116.57 242.96 1117 242.854C1117.43 242.771 1121.28 235.761 1123 233.87L1124.89 232.841C1125.56 232.463 1127.94 234 1127.98 234.792L1128.2 239.213C1130.69 238.362 1134.64 235.903 1136.98 233.751C1139.32 231.588 1145.6 226.411 1145.87 227.084C1146.14 227.77 1147.08 227.226 1147.12 223.81L1149.8 221.635C1151.26 220.465 1150.01 215.63 1153.51 217.261C1154.47 217.71 1154.46 220.831 1155 222.687L1155.21 223.443C1155.61 224.07 1156.99 221.623 1158.28 218.018L1160.08 215.192L1162.43 211.504C1165.74 214.79 1169.06 218.372 1169.81 219.448L1170.59 219.554C1172.5 219.791 1172.27 219.129 1171.93 216.871L1171.59 214.578C1173.2 211.847 1176.14 208.833 1178.15 207.887C1180.16 206.941 1186.73 203.915 1188.6 202.792C1190.47 201.645 1196.19 198.926 1197.27 200.049C1198.34 201.172 1201.15 203.809 1201.37 203.667C1201.58 203.525 1201.87 202.272 1201.5 201.172C1201.15 200.073 1201.53 196.822 1203.44 197.295C1205.35 197.756 1210.69 198.146 1210.1 196.905C1209.5 195.64 1209.93 191.503 1212.03 189.765L1213.93 188.997C1214.94 188.583 1217.24 189.186 1217.45 189.931C1218.18 192.46 1217.06 193.891 1214.6 193.69L1214.13 193.654C1213.09 194.813 1215.24 197.295 1218.9 199.175L1219.91 193.051C1220.23 191.136 1221.23 189.351 1222.1 187.625L1224.44 182.932C1228.05 183.772 1232.53 184.93 1234.41 185.498L1236.13 185.734L1236.58 185.805C1237.27 184.918 1237.22 183.949 1236.48 183.642C1235.73 183.334 1233.75 181.419 1234.82 180.509C1235.89 179.611 1239.37 178.169 1239.62 179.788C1239.87 181.419 1240.71 185.202 1241.02 185.096C1241.31 184.978 1243.12 181.809 1244.38 178.31L1247.81 182.791L1248.28 183.405C1251.74 181.478 1252.66 179.031 1250.36 177.979L1249.27 176.88C1248.82 176.431 1249.41 173.629 1249.46 173.629C1253.02 173.759 1256.57 174.043 1260.1 174.469C1260.23 174.48 1260.14 176.076 1260.3 176.88L1260.38 177.247C1260.9 177.743 1262.33 176.514 1263.54 174.528C1264.76 172.542 1269.77 167.872 1271.49 169.338L1272.78 170.662L1274.16 172.093C1275.78 174.055 1277.76 174.457 1278.58 173.003C1279.38 171.537 1282.67 168.854 1284.51 169.48L1286.12 169.752C1286.27 169.776 1286.97 167.541 1286.88 166.43L1286.76 165.154C1286.11 163.806 1286.62 162.6 1287.9 162.494L1288.55 163.097C1290.03 164.527 1292.02 166.537 1293.05 164.137C1295.3 158.924 1300.12 160.579 1303.31 157.931L1307.16 154.739C1307.57 158.77 1308.57 160.945 1309.38 159.55C1310.2 158.167 1313.67 155.153 1313.94 158.203L1313.36 158.794C1311.33 160.792 1311.88 162.257 1313.68 163.451C1314.78 164.184 1317.15 164.905 1317.32 164.551L1320 159.007C1325.12 157.978 1330.27 155.389 1331.45 153.238L1332.97 152.138L1334.35 151.134C1336.39 150.992 1339.67 150.318 1341.65 149.644C1343.63 148.959 1350.33 149.171 1353.89 148.379L1355.89 152.623C1356.42 153.722 1359.01 154.893 1359.47 154.444L1362.33 151.524C1365.47 152.848 1369.94 153.522 1372.27 153.013C1374.61 152.517 1382.07 158.522 1385.08 160.378C1388.07 162.246 1397.71 160.52 1398.62 161.229L1399.51 161.915L1405.96 166.82C1413.07 172.199 1419.89 178.251 1421.09 180.249C1422.32 182.271 1425.33 188.985 1426.46 189.848C1427.59 190.711 1425.95 194.754 1425.91 194.99C1425.87 195.203 1425.59 200.451 1425.53 206.291L1426.53 211.362C1427.05 213.987 1429.04 216.197 1430.34 218.62L1431.64 221.032C1433.19 223.975 1433.45 227.746 1432.24 229.413L1430.78 229.921L1428.38 230.761C1428.11 228.243 1427.11 226.091 1426.15 225.985L1425.73 226.434C1425.34 226.836 1425.75 228.704 1425.52 228.775L1424.3 229.177C1422.89 229.295 1421.92 228.846 1422.16 228.16C1422.4 227.498 1421.41 225.938 1419.41 226.233C1417.41 226.541 1414.79 219.72 1413.09 218.963C1411.39 218.195 1408.08 211.516 1406.93 210.357C1405.78 209.199 1401.62 207.39 1400.79 207.769C1399.97 208.147 1397.32 207.911 1396.77 206.291L1396.07 204.932C1396 204.802 1394.6 205.854 1393.79 205.901L1392.53 205.972C1391.13 205.688 1387.34 204.636 1384.12 203.631C1380.91 202.638 1369.72 202.13 1366.45 202.638C1363.18 203.158 1353.84 205.121 1352.95 205.511C1352.05 205.901 1347.95 206.208 1345.89 205.724C1343.83 205.251 1336.54 208.395 1333.05 207.379L1330.84 211.492C1330.7 211.752 1330.17 211.894 1329.87 211.811L1325.71 210.807C1321.08 210.05 1316.07 211.019 1314.54 212.982C1313.03 214.944 1303.4 218.538 1299.06 220.122L1295.21 221.848C1293.94 222.415 1291.99 216.694 1291.37 222.581C1290.93 226.659 1287.86 224.235 1286.01 224.838L1284 225.489C1281.79 226.139 1278.62 225.843 1276.95 224.815C1275.27 223.786 1269.63 229.129 1267.94 229.945C1266.24 230.749 1258.53 233.539 1254.83 234.65L1251.62 236.116C1245.84 238.764 1238.91 238.421 1234.62 245.159L1234.06 246.045C1232.05 245.821 1227.81 245.584 1224.62 245.502L1222.55 248.859L1221.85 249.982C1220.2 250.407 1217.58 250.868 1216.02 251.022C1214.46 251.164 1210.43 254.888 1209.63 255.514C1208.83 256.141 1200.45 258.848 1193 260.928L1187.32 266.201C1187 266.484 1184.55 261.72 1183.78 267.323L1183.53 269.097C1180.47 270.409 1174.55 272.785 1170.37 274.357C1166.19 275.929 1153.94 280.61 1152.07 280.492C1150.21 280.374 1145.1 283.53 1142.47 284.902C1139.84 286.285 1132.46 290.907 1131.58 291.462C1130.68 292.018 1126.19 292.597 1123.54 292.845C1120.9 293.094 1113.97 297.905 1111.7 297.834C1109.43 297.751 1100 305.458 1093.84 309.135L1087.62 304.064L1087.27 303.78C1086.42 304.324 1083.37 306.109 1080.49 307.752L1078.66 310.683C1075.63 315.554 1069.92 311.783 1065.94 316.097L1062.96 319.301C1057.67 320.306 1050.94 321.925 1047.99 322.895L1045.32 323.734L1041.07 325.046C1039.31 323.119 1037 323.521 1035.92 325.921C1034.83 328.32 1028.65 324.573 1027.89 324.502L1027.8 324.751C1027.19 326.488 1027.72 329.763 1025 328.782L1023.07 328.084C1021.13 325.897 1019.28 325.082 1018.94 326.287C1018.6 327.493 1012.45 329.101 1006.18 329.845L1001.29 327.789C997.535 326.204 995.932 331.678 992.642 328.982L989.872 326.701C986.268 325.105 981.953 323.462 980.267 323.025C978.58 322.575 973.513 320.637 972.612 320.128C971.727 319.632 968.694 314.797 967.247 311.192L965.792 311.085L961.089 310.731C961.857 307.504 960.435 300.352 957.931 294.819L955.186 290.138L952.293 285.197C950.788 278.684 949.416 272.868 949.259 272.3C949.094 271.721 948.953 267.004 948.639 262.075L948.829 257.488L949.144 249.935C951.036 244.757 953.401 238.468 954.417 235.997L952.293 235.43C946.548 233.917 948.896 231.257 951.392 228.881C955.128 225.311 958.146 220.926 961.651 217.202C965.734 212.875 964.627 207.958 964.759 203.005L964.767 202.496C963.957 201.905 962.634 200.652 961.824 199.718C961.022 198.773 965.247 195.451 966.404 194.553L967.016 193.418L968.842 190.001C970.959 185.498 973.05 183.476 973.488 185.521L973.786 186.656C974.199 188.264 969.586 188.949 973.174 190.864C973.687 191.136 975.158 189.422 975.976 188.394C976.671 187.531 977.068 186.337 977.588 185.285L980.027 180.367C976.109 178.039 974.075 175.923 975.497 175.686C976.919 175.438 980.721 174.149 979.622 173.57C978.522 173.003 977.001 170.993 977.903 169.988C978.804 168.984 982.871 168.168 982.871 165.792C982.871 163.416 983.846 155.803 985.028 157.387C986.219 158.971 988.145 160.212 987.566 157.813C986.987 155.413 990.716 149.916 991.096 150.271C991.484 150.625 993.336 151.134 993.501 149.833C993.658 148.545 993.245 144.762 992.055 145.708L991.36 145.755C990.74 145.802 989.492 144.868 989.517 144.786L990.36 142.161C991.459 139.443 993.89 134.572 995.766 131.345C997.634 128.094 1005.41 116.214 1008.19 110.954L1009.65 105.492L1010.38 102.714C1011.76 99.96 1013.98 97.2766 1015.29 96.7447C1016.61 96.2127 1018.09 93.2456 1018.33 94.676C1018.57 96.1063 1019.85 98.045 1020.61 95.7753C1021.37 93.5175 1019.36 87.6187 1021.06 87.5124C1022.77 87.406 1028.1 84.6635 1029.79 82.7366L1029.51 81.389C1028.49 76.4123 1027.24 82.2165 1026.36 81.5545C1025.67 81.0344 1025.01 78.7766 1025.33 78.3983L1026.74 76.696C1028.63 75.2066 1031.67 73.3861 1033.47 72.6768L1034.91 71.6248C1035.67 71.0692 1036.55 68.9414 1036.31 68.6222C1035.15 67.0382 1033 66.1279 1032.4 64.4257L1031.94 63.0899C1032.95 60.9267 1032.59 58.657 1031.15 58.0659L1030.84 58.4915C1028.38 61.9314 1024.72 62.4752 1021.75 64.3784C1018.55 66.4353 1015.23 59.8036 1012.81 65.9861C1010.86 70.9864 1006.13 67.842 1002.74 68.8232C1001.46 69.1896 1000.34 70.5136 999.288 71.6129C996.262 74.7692 992.848 76.1168 988.756 76.7788C985.136 77.3462 981.407 79.3913 978.349 81.8619L972.86 86.3066C966.205 90.2785 959.807 92.5127 958.65 91.2597C957.493 90.0184 953.797 87.0159 954.103 88.5408C954.417 90.0775 955.037 94.144 954.864 94.5814L954.36 94.6878L945.415 96.5673C937.769 103.424 926.981 112.301 921.426 116.309L915.689 117.975C912.953 118.767 914.011 121.226 912.928 122.42C911.994 123.449 910.473 123.78 909.175 124.335C904.844 126.203 900.239 127.539 897.552 132.598L897.23 133.189C896.428 133.52 893.246 134.69 890.162 135.79C887.071 136.889 875.878 146.547 871.025 151.346L865.9 153.545L851.872 159.55C838.72 170.284 824.832 181.478 821.013 184.434C817.186 187.401 805.067 195.711 803.447 198.123L801.645 198.631L797.156 199.884C793.783 203.643 789.791 208.36 788.278 210.381C786.765 212.403 777.383 213.868 773.456 216.339C769.546 218.81 759.048 230.643 756.808 233.054C754.559 235.466 745.301 239.213 743.78 240.218C742.25 241.211 734.389 249.107 728.983 254.592L723.089 257.075L719.6 258.54C718.021 261.354 715.45 264.368 713.88 265.243C712.309 266.118 707.986 269.77 707.292 270.468C706.605 271.177 703.687 272.525 702.075 273.731C700.463 274.936 694.288 277.762 691.122 279.499L688.675 281.923L683.823 286.734C677.946 291.19 672.498 295.399 671.729 296.084C670.944 296.77 665.604 298.413 662.19 299.181L659.363 300.624L656.825 301.9C654.345 304.158 650.137 307.409 647.475 309.147L645.062 310.742C642.342 312.516 638.151 313.662 637.266 316.298L635.878 320.4C633.406 320.164 628.818 321.263 625.685 322.847C622.552 324.42 608.755 331.524 601.902 334.94L595.562 335.2L588.808 335.472C581.988 337.482 569.754 339.279 561.612 339.456L555.288 334.834L553.304 333.38C552.08 333.983 549.799 333.51 548.22 332.34L547.517 331.134C545.674 328.001 543.376 331.784 542.772 330.815L540.557 327.245C538.631 322.883 536.531 316.913 535.895 313.97C535.258 311.026 529.356 305.151 528.587 304.383L528.686 303.874C529.777 298.153 526.413 294.654 524.305 290.304C522.313 286.178 522.09 280.965 520.387 276.603L517.948 270.362C517.717 263.151 517.576 252.192 517.634 245.998L520.106 241.648C523.065 236.435 523.429 231.068 524.479 225.406L525.371 220.583C528.876 215.902 533.406 213.242 535.423 214.66L536.399 211.717L537.267 209.081C537.308 205.913 537.498 200.688 537.705 197.449L540.483 196.279L541.45 195.877C543.384 195.818 543.963 194.434 542.706 192.779L541.714 192.058L540.565 191.195C538.953 190.545 539.524 189.73 541.838 189.41C544.161 189.091 547.873 183.665 546.691 183.453C545.5 183.228 543.45 180.734 545.26 178.44C547.071 176.147 547.451 165.768 547.906 162.754C548.36 159.739 554.42 154.928 553.882 152.883L554.461 152.127L555.875 150.235C557.561 148.107 557.247 144.325 555.155 141.842L559.388 141.854H563.414C563.761 138.804 565.158 135.837 566.514 135.258L566.505 134.726L566.464 132.669C565.968 130.423 566.125 127.822 566.828 126.912C567.539 125.99 568.927 122.574 568.283 120.481L569.597 118.543L571.333 115.989C573.069 113.046 573.863 107.124 573.094 102.809L577.888 102.62L581.211 102.49C582.526 99.5345 583.757 96.0945 583.964 94.8415C584.154 93.5766 576.847 92.3354 567.158 95.6335C557.478 98.9434 529.579 113.885 524.611 117.16C519.634 120.422 502.729 126.593 499.539 127.373C496.348 128.142 489.09 138.048 486.337 140.081C483.584 142.126 473.499 147.8 470.457 149.183C467.415 150.554 459.719 157.411 458.711 158.144C457.71 158.876 451.568 160.768 447.452 162.115L445.187 166.773L444.343 168.523C441.855 169.445 427.562 176.868 412.559 185.025L401.275 197.13L398.762 199.825C395.398 202.272 390.884 204.837 388.718 205.511C386.569 206.196 380.526 212.816 378.832 214.294C377.137 215.76 371.408 220.831 369.904 222.25C368.391 223.668 363.646 227.711 362.836 228.29C362.018 228.869 357.868 230.844 355.586 231.848L351.255 237.18C350.097 238.61 348.444 239.686 346.849 240.407L342.344 242.464C338.673 246.589 330.845 252.724 324.959 256.117L320.694 261.247L319.743 262.382C318.363 263.257 315.544 265.586 313.477 267.572C311.419 269.558 301.97 276.248 298.399 279.736L294.696 281.934L290.587 284.358C286.52 287.691 280.519 292.633 277.27 295.34C274.013 298.047 263.341 304.489 262.225 306.002C261.101 307.504 258.15 311.18 260.357 313.981L254.628 313.544C252.9 313.402 251.098 315.932 249.197 316.913C246.998 318.048 244.452 318.414 242.427 319.833C240.567 321.133 239.302 324.821 237.607 324.987C231.631 325.543 228.638 331.335 224.075 334.255C215.181 339.952 206.542 346.194 197.904 352.412L193.721 355.426C189.273 359.02 177.56 365.947 167.673 370.841L160.192 378.407L157.836 380.794C154.918 380.357 149.454 381.764 145.684 383.915C141.915 386.079 130.664 391.552 128.399 389.956L126.903 394.07C125.655 397.545 122.389 395.926 120.166 396.966L117.934 398.018C115.718 399.838 103.914 406.328 91.7043 412.44L79.7841 415.69L77.0479 416.435C74.0141 417.003 70.319 417.806 68.8311 418.22C67.3431 418.646 58.7791 420.679 53.0008 421.471C47.2225 422.239 29.6562 422.038 26.7713 421.696C23.8945 421.365 14.5286 415.927 11.4122 414.106L10.3788 411.482L5.00568 397.876C-2.45895 383.903 -10.1302 367.378 -12.0233 361.136L-13.6683 355.415L-15.3546 349.563C-14.2139 343.57 -13.7758 336.903 -14.3792 334.751C-14.9909 332.588 -14.7016 324.112 -14.5363 320.578C-14.3627 317.02 -12.6019 307.22 -13.7014 305.47C-14.7925 303.733 -10.1468 296.557 -9.05557 293.389L-8.30334 290.292C-7.44363 286.781 -7.03033 283.117 -5.96396 279.712L-5.02982 276.709C-3.49225 273.624 -1.45044 267.95 -0.491547 264.12L0.756714 260.834C1.45935 258.99 2.81503 257.335 4.17902 256.011C6.62589 253.623 6.90695 250.608 7.65921 247.192C9.07275 240.667 11.6602 234.343 14.5782 228.491C16.3803 224.862 19.8027 222.368 22.2908 219.141C24.126 216.765 21.4394 210.972 26.9366 210.889C27.5235 210.878 28.1104 206.421 28.5734 203.998L28.6725 203.466C28.3171 202.804 30.2101 199.187 32.8719 195.463C35.542 191.716 43.7836 179.493 44.7839 176.029C45.7841 172.565 54.9434 163.7 57.2828 158.64L58.8286 153.722C59.3081 152.209 59.3742 149.715 60.2092 149.301C65.8221 146.571 65.9791 140.152 68.054 134.974L68.1697 134.679Z" fill="white" fill-opacity="0.1"/>
</svg>
