<svg width="354" height="479" viewBox="0 0 354 479" fill="none" xmlns="http://www.w3.org/2000/svg">
<path d="M202.917 442.285L191.775 453.427L180.626 442.285L173.414 449.497L184.563 460.639L173.414 471.788L180.626 479L191.775 467.851L202.917 479L210.129 471.788L198.987 460.639L210.129 449.497L202.917 442.285Z" fill="#24568E"/>
<path d="M256.355 388.85L245.213 399.992L234.064 388.85L226.852 396.062L238 407.204L226.852 418.353L234.064 425.565L245.213 414.416L256.355 425.565L263.567 418.353L252.425 407.204L263.567 396.062L256.355 388.85Z" fill="#24568E"/>
<path d="M309.788 335.414L298.646 346.562L287.497 335.414L280.285 342.626L291.434 353.775L280.285 364.917L287.497 372.129L298.646 360.98L309.788 372.129L317.001 364.917L305.859 353.775L317.001 342.626L309.788 335.414Z" fill="#24568E"/>
<path d="M144.503 383.871L133.361 395.013L122.212 383.871L115 391.083L126.149 402.225L115 413.374L122.212 420.586L133.361 409.437L144.503 420.586L151.715 413.374L140.573 402.225L151.715 391.083L144.503 383.871Z" fill="#24568E"/>
<path d="M197.941 330.436L186.792 341.578L175.65 330.436L168.438 337.648L179.586 348.79L168.438 359.939L175.65 367.151L186.792 356.002L197.941 367.151L205.153 359.939L194.004 348.79L205.153 337.648L197.941 330.436Z" fill="#24568E"/>
<path d="M251.374 277L240.225 288.142L229.083 277L221.871 284.212L233.013 295.354L221.871 306.503L229.083 313.715L240.225 302.567L251.374 313.715L258.587 306.503L247.438 295.354L258.587 284.212L251.374 277Z" fill="#24568E"/>
<path d="M202.917 442.285L191.775 453.427L180.626 442.285L173.414 449.497L184.563 460.639L173.414 471.788L180.626 479L191.775 467.851L202.917 479L210.129 471.788L198.987 460.639L210.129 449.497L202.917 442.285Z" fill="#24568E"/>
<path d="M256.355 388.85L245.213 399.992L234.064 388.85L226.852 396.062L238 407.204L226.852 418.353L234.064 425.565L245.213 414.416L256.355 425.565L263.567 418.353L252.425 407.204L263.567 396.062L256.355 388.85Z" fill="#24568E"/>
<path d="M309.788 335.414L298.646 346.562L287.497 335.414L280.285 342.626L291.434 353.775L280.285 364.917L287.497 372.129L298.646 360.98L309.788 372.129L317.001 364.917L305.859 353.775L317.001 342.626L309.788 335.414Z" fill="#24568E"/>
<path d="M144.503 383.871L133.361 395.013L122.212 383.871L115 391.083L126.149 402.225L115 413.374L122.212 420.586L133.361 409.437L144.503 420.586L151.715 413.374L140.573 402.225L151.715 391.083L144.503 383.871Z" fill="#24568E"/>
<path d="M197.941 330.436L186.792 341.578L175.65 330.436L168.438 337.648L179.586 348.79L168.438 359.939L175.65 367.151L186.792 356.002L197.941 367.151L205.153 359.939L194.004 348.79L205.153 337.648L197.941 330.436Z" fill="#24568E"/>
<path d="M251.374 277L240.225 288.142L229.083 277L221.871 284.212L233.013 295.354L221.871 306.503L229.083 313.715L240.225 302.567L251.374 313.715L258.587 306.503L247.438 295.354L258.587 284.212L251.374 277Z" fill="#24568E"/>
<path d="M364.917 277.285L353.775 288.427L342.626 277.285L335.414 284.497L346.563 295.639L335.414 306.788L342.626 314L353.775 302.851L364.917 314L372.129 306.788L360.987 295.639L372.129 284.497L364.917 277.285Z" fill="#24568E"/>
<path d="M306.503 218.871L295.361 230.013L284.212 218.871L277 226.083L288.149 237.225L277 248.374L284.212 255.586L295.361 244.437L306.503 255.586L313.715 248.374L302.573 237.225L313.715 226.083L306.503 218.871Z" fill="#24568E"/>
<path d="M359.941 165.436L348.792 176.578L337.65 165.436L330.438 172.648L341.586 183.79L330.438 194.939L337.65 202.151L348.792 191.002L359.941 202.151L367.153 194.939L356.004 183.79L367.153 172.648L359.941 165.436Z" fill="#24568E"/>
<path d="M87.9171 320.285L76.7752 331.427L65.6263 320.285L58.4141 327.497L69.5626 338.639L58.4141 349.788L65.6263 357L76.7752 345.851L87.9171 357L95.1293 349.788L83.9874 338.639L95.1293 327.497L87.9171 320.285Z" fill="#24568E"/>
<path d="M141.355 266.85L130.213 277.992L119.064 266.85L111.852 274.062L123 285.204L111.852 296.353L119.064 303.565L130.213 292.416L141.355 303.565L148.567 296.353L137.425 285.204L148.567 274.062L141.355 266.85Z" fill="#24568E"/>
<path d="M194.788 213.414L183.646 224.562L172.497 213.414L165.285 220.626L176.434 231.775L165.285 242.917L172.497 250.129L183.646 238.98L194.788 250.129L202.001 242.917L190.859 231.775L202.001 220.626L194.788 213.414Z" fill="#24568E"/>
<path d="M29.503 261.871L18.3611 273.013L7.21223 261.871L0 269.083L11.1486 280.225L0 291.374L7.21223 298.586L18.3611 287.437L29.503 298.586L36.7153 291.374L25.5733 280.225L36.7153 269.083L29.503 261.871Z" fill="#24568E"/>
<path d="M82.9405 208.436L71.7916 219.578L60.6497 208.436L53.4375 215.648L64.5864 226.79L53.4375 237.939L60.6497 245.151L71.7916 234.002L82.9405 245.151L90.1528 237.939L79.0042 226.79L90.1528 215.648L82.9405 208.436Z" fill="#24568E"/>
<path d="M136.374 155L125.225 166.142L114.083 155L106.871 162.212L118.013 173.354L106.871 184.503L114.083 191.715L125.225 180.567L136.374 191.715L143.587 184.503L132.438 173.354L143.587 162.212L136.374 155Z" fill="#24568E"/>
<path d="M254.917 165.285L243.775 176.427L232.626 165.285L225.414 172.497L236.563 183.639L225.414 194.788L232.626 202L243.775 190.851L254.917 202L262.129 194.788L250.987 183.639L262.129 172.497L254.917 165.285Z" fill="#24568E"/>
<path d="M308.355 111.85L297.213 122.992L286.064 111.85L278.852 119.062L290 130.204L278.852 141.353L286.064 148.565L297.213 137.416L308.355 148.565L315.567 141.353L304.425 130.204L315.567 119.062L308.355 111.85Z" fill="#24568E"/>
<path d="M361.788 58.4136L350.646 69.5624L339.497 58.4136L332.285 65.6259L343.434 76.7747L332.285 87.9167L339.497 95.129L350.646 83.9802L361.788 95.129L369.001 87.9167L357.859 76.7747L369.001 65.6259L361.788 58.4136Z" fill="#24568E"/>
<path d="M196.503 106.871L185.361 118.013L174.212 106.871L167 114.083L178.149 125.225L167 136.374L174.212 143.586L185.361 132.437L196.503 143.586L203.715 136.374L192.573 125.225L203.715 114.083L196.503 106.871Z" fill="#24568E"/>
<path d="M249.941 53.4355L238.792 64.5776L227.65 53.4355L220.438 60.6479L231.586 71.7899L220.438 82.9387L227.65 90.151L238.792 79.0022L249.941 90.151L257.153 82.9387L246.004 71.7899L257.153 60.6479L249.941 53.4355Z" fill="#24568E"/>
<path d="M303.374 0L292.225 11.142L281.083 0L273.871 7.21233L285.013 18.3543L273.871 29.5032L281.083 36.7155L292.225 25.5667L303.374 36.7155L310.587 29.5032L299.438 18.3543L310.587 7.21233L303.374 0Z" fill="#24568E"/>
</svg>
