<svg width="64" height="65" viewBox="0 0 64 65" fill="none" xmlns="http://www.w3.org/2000/svg">
<path d="M31.9987 5.8335C28.4968 5.8335 25.0292 6.52325 21.7938 7.86338C18.5585 9.2035 15.6187 11.1678 13.1425 13.644C8.14155 18.645 5.33203 25.4277 5.33203 32.5002C5.33203 44.2868 12.9854 54.2868 23.572 57.8335C24.9054 58.0468 25.332 57.2202 25.332 56.5002V51.9935C17.9454 53.5935 16.372 48.4202 16.372 48.4202C15.1454 45.3268 13.412 44.5002 13.412 44.5002C10.9854 42.8468 13.5987 42.9002 13.5987 42.9002C16.2654 43.0868 17.6787 45.6468 17.6787 45.6468C19.9987 49.7002 23.9187 48.5002 25.4387 47.8602C25.6787 46.1268 26.372 44.9535 27.1187 44.2868C21.1987 43.6202 14.9854 41.3268 14.9854 31.1668C14.9854 28.2068 15.9987 25.8335 17.732 23.9402C17.4654 23.2735 16.532 20.5002 17.9987 16.9002C17.9987 16.9002 20.2387 16.1802 25.332 19.6202C27.4387 19.0335 29.732 18.7402 31.9987 18.7402C34.2654 18.7402 36.5587 19.0335 38.6654 19.6202C43.7587 16.1802 45.9987 16.9002 45.9987 16.9002C47.4654 20.5002 46.532 23.2735 46.2654 23.9402C47.9987 25.8335 49.012 28.2068 49.012 31.1668C49.012 41.3535 42.772 43.5935 36.8254 44.2602C37.7854 45.0868 38.6654 46.7135 38.6654 49.1935V56.5002C38.6654 57.2202 39.092 58.0735 40.452 57.8335C51.0387 54.2602 58.6654 44.2868 58.6654 32.5002C58.6654 28.9982 57.9756 25.5306 56.6355 22.2953C55.2954 19.0599 53.3311 16.1202 50.8549 13.644C48.3786 11.1678 45.4389 9.2035 42.2036 7.86338C38.9682 6.52325 35.5006 5.8335 31.9987 5.8335Z" fill="black"/>
</svg>
