<svg width="64" height="64" viewBox="0 0 64 64" fill="none" xmlns="http://www.w3.org/2000/svg">
<path d="M32 8.00049H21.3333C13.9695 8.00049 8 13.97 8 21.3338V42.6672C8 50.0309 13.9695 56.0005 21.3333 56.0005H42.6667C50.0304 56.0005 56 50.0309 56 42.6672V21.3338C56 13.97 50.0304 8.00049 42.6667 8.00049H32Z" stroke="#828282" stroke-width="5.33333" stroke-linecap="round" stroke-linejoin="round"/>
<path d="M31.9987 21.334C37.8897 21.334 42.6654 26.1096 42.6654 32.0007C42.6654 37.8917 37.8897 42.6673 31.9987 42.6673C26.1077 42.6673 21.332 37.8916 21.332 32.0007C21.332 26.1096 26.1077 21.334 31.9987 21.334Z" stroke="#828282" stroke-width="5.33333" stroke-linecap="round" stroke-linejoin="round"/>
<path d="M45.332 22.668C47.5412 22.668 49.332 20.8771 49.332 18.668C49.332 16.4588 47.5412 14.668 45.332 14.668C43.1229 14.668 41.332 16.4588 41.332 18.668C41.332 20.8771 43.1229 22.668 45.332 22.668Z" fill="#828282"/>
</svg>
