<svg width="64" height="64" viewBox="0 0 64 64" fill="none" xmlns="http://www.w3.org/2000/svg">
<g clip-path="url(#clip0_367_1240)">
<path d="M49 0H15C6.71573 0 0 6.71573 0 15V49C0 57.2843 6.71573 64 15 64H49C57.2843 64 64 57.2843 64 49V15C64 6.71573 57.2843 0 49 0Z" fill="white"/>
<path d="M49 0H15C6.71573 0 0 6.71573 0 15V49C0 57.2843 6.71573 64 15 64H49C57.2843 64 64 57.2843 64 49V15C64 6.71573 57.2843 0 49 0Z" fill="#828282"/>
<path d="M46.1787 54.4212H53.4963C53.7614 54.4212 54.0157 54.3159 54.2033 54.1284C54.3908 53.941 54.4962 53.6867 54.4963 53.4215L54.5 37.961C54.5 29.8802 52.7587 23.669 43.3155 23.669C39.7257 23.5355 36.3405 25.386 34.5137 28.476C34.5048 28.491 34.4912 28.5027 34.475 28.5092C34.4588 28.5158 34.441 28.5169 34.4241 28.5123C34.4072 28.5078 34.3923 28.4978 34.3817 28.484C34.371 28.4702 34.3651 28.4532 34.365 28.4357V25.415C34.365 25.1498 34.2596 24.8954 34.0721 24.7079C33.8846 24.5204 33.6302 24.415 33.365 24.415H26.4207C26.1555 24.415 25.9012 24.5204 25.7136 24.7079C25.5261 24.8954 25.4207 25.1498 25.4207 25.415V53.42C25.4207 53.6852 25.5261 53.9396 25.7136 54.1271C25.9012 54.3146 26.1555 54.42 26.4207 54.42H33.7378C34.003 54.42 34.2573 54.3146 34.4449 54.1271C34.6324 53.9396 34.7378 53.6852 34.7378 53.42V39.5768C34.7378 35.6625 35.4803 31.8717 40.333 31.8717C45.1167 31.8717 45.1787 36.3507 45.1787 39.8302V53.4212C45.1787 53.6865 45.2841 53.9408 45.4716 54.1284C45.6592 54.3159 45.9135 54.4212 46.1787 54.4212ZM9.5 14.907C9.5 17.873 11.9418 20.3135 14.908 20.3135C17.8735 20.3132 20.3137 17.8713 20.3137 14.9058C20.3132 11.9403 17.8727 9.5 14.907 9.5C11.9405 9.5 9.5 11.941 9.5 14.907ZM11.2397 54.4212H18.5665C18.8317 54.4212 19.0861 54.3159 19.2736 54.1284C19.4611 53.9408 19.5665 53.6865 19.5665 53.4212V25.415C19.5665 25.1498 19.4611 24.8954 19.2736 24.7079C19.0861 24.5204 18.8317 24.415 18.5665 24.415H11.2397C10.9745 24.415 10.7202 24.5204 10.5326 24.7079C10.3451 24.8954 10.2397 25.1498 10.2397 25.415V53.4212C10.2397 53.6865 10.3451 53.9408 10.5326 54.1284C10.7202 54.3159 10.9745 54.4212 11.2397 54.4212Z" fill="white"/>
</g>
<defs>
<clipPath id="clip0_367_1240">
<rect width="64" height="64" fill="white"/>
</clipPath>
</defs>
</svg>
