<svg width="64" height="64" viewBox="0 0 64 64" fill="none" xmlns="http://www.w3.org/2000/svg">
<path d="M26.6654 40.0002L40.5054 32.0002L26.6654 24.0002V40.0002ZM57.492 19.1202C57.8387 20.3735 58.0787 22.0535 58.2387 24.1868C58.4254 26.3202 58.5054 28.1602 58.5054 29.7602L58.6654 32.0002C58.6654 37.8402 58.2387 42.1335 57.492 44.8802C56.8254 47.2802 55.2787 48.8268 52.8787 49.4935C51.6254 49.8402 49.332 50.0802 45.812 50.2402C42.3454 50.4268 39.172 50.5068 36.2387 50.5068L31.9987 50.6668C20.8254 50.6668 13.8654 50.2402 11.1187 49.4935C8.7187 48.8268 7.17203 47.2802 6.50536 44.8802C6.1587 43.6268 5.9187 41.9468 5.7587 39.8135C5.57203 37.6802 5.49203 35.8402 5.49203 34.2402L5.33203 32.0002C5.33203 26.1602 5.7587 21.8668 6.50536 19.1202C7.17203 16.7202 8.7187 15.1735 11.1187 14.5068C12.372 14.1602 14.6654 13.9202 18.1854 13.7602C21.652 13.5735 24.8254 13.4935 27.7587 13.4935L31.9987 13.3335C43.172 13.3335 50.132 13.7602 52.8787 14.5068C55.2787 15.1735 56.8254 16.7202 57.492 19.1202Z" fill="black"/>
</svg>
